<?xml version="1.0" encoding="UTF-8"?>
<svg xmlns="http://www.w3.org/2000/svg" xmlns:xlink="http://www.w3.org/1999/xlink" width="48px" height="48px" viewBox="0 0 48 48" version="1.1">
<defs>
<linearGradient id="linear0" gradientUnits="userSpaceOnUse" x1="500.37" y1="603.93" x2="500.37" y2="91.3" gradientTransform="matrix(0.06,0,0,0.06,0,0)">
<stop offset="0" style="stop-color:rgb(88.627451%,96.470588%,99.607843%);stop-opacity:1;"/>
<stop offset="0.12" style="stop-color:rgb(78.039216%,89.411765%,99.607843%);stop-opacity:1;"/>
<stop offset="0.3" style="stop-color:rgb(58.823529%,76.862745%,100%);stop-opacity:1;"/>
<stop offset="0.48" style="stop-color:rgb(44.313725%,68.627451%,98.823529%);stop-opacity:1;"/>
<stop offset="0.66" style="stop-color:rgb(28.235294%,59.215686%,97.647059%);stop-opacity:1;"/>
<stop offset="0.81" style="stop-color:rgb(5.490196%,32.156863%,71.372549%);stop-opacity:1;"/>
<stop offset="0.84" style="stop-color:rgb(0.392157%,26.27451%,65.490196%);stop-opacity:1;"/>
<stop offset="0.98" style="stop-color:rgb(0%,4.313725%,10.196078%);stop-opacity:1;"/>
<stop offset="1" style="stop-color:rgb(0%,0%,0%);stop-opacity:1;"/>
</linearGradient>
<linearGradient id="linear1" gradientUnits="userSpaceOnUse" x1="287.64" y1="603.93" x2="287.64" y2="91.3" gradientTransform="matrix(0.06,0,0,0.06,0,0)">
<stop offset="0" style="stop-color:rgb(88.627451%,96.470588%,99.607843%);stop-opacity:1;"/>
<stop offset="0.12" style="stop-color:rgb(78.039216%,89.411765%,99.607843%);stop-opacity:1;"/>
<stop offset="0.3" style="stop-color:rgb(58.823529%,76.862745%,100%);stop-opacity:1;"/>
<stop offset="0.48" style="stop-color:rgb(44.313725%,68.627451%,98.823529%);stop-opacity:1;"/>
<stop offset="0.66" style="stop-color:rgb(28.235294%,59.215686%,97.647059%);stop-opacity:1;"/>
<stop offset="0.81" style="stop-color:rgb(5.490196%,32.156863%,71.372549%);stop-opacity:1;"/>
<stop offset="0.84" style="stop-color:rgb(0.392157%,26.27451%,65.490196%);stop-opacity:1;"/>
<stop offset="0.98" style="stop-color:rgb(0%,4.313725%,10.196078%);stop-opacity:1;"/>
<stop offset="1" style="stop-color:rgb(0%,0%,0%);stop-opacity:1;"/>
</linearGradient>
<linearGradient id="linear2" gradientUnits="userSpaceOnUse" x1="287.82" y1="603.93" x2="287.82" y2="91.3" gradientTransform="matrix(0.06,0,0,0.06,0,0)">
<stop offset="0" style="stop-color:rgb(88.627451%,96.470588%,99.607843%);stop-opacity:1;"/>
<stop offset="0.12" style="stop-color:rgb(78.039216%,89.411765%,99.607843%);stop-opacity:1;"/>
<stop offset="0.3" style="stop-color:rgb(58.823529%,76.862745%,100%);stop-opacity:1;"/>
<stop offset="0.48" style="stop-color:rgb(44.313725%,68.627451%,98.823529%);stop-opacity:1;"/>
<stop offset="0.66" style="stop-color:rgb(28.235294%,59.215686%,97.647059%);stop-opacity:1;"/>
<stop offset="0.81" style="stop-color:rgb(5.490196%,32.156863%,71.372549%);stop-opacity:1;"/>
<stop offset="0.84" style="stop-color:rgb(0.392157%,26.27451%,65.490196%);stop-opacity:1;"/>
<stop offset="0.98" style="stop-color:rgb(0%,4.313725%,10.196078%);stop-opacity:1;"/>
<stop offset="1" style="stop-color:rgb(0%,0%,0%);stop-opacity:1;"/>
</linearGradient>
<linearGradient id="linear3" gradientUnits="userSpaceOnUse" x1="482.45" y1="603.93" x2="482.45" y2="91.3" gradientTransform="matrix(0.06,0,0,0.06,0,0)">
<stop offset="0" style="stop-color:rgb(88.627451%,96.470588%,99.607843%);stop-opacity:1;"/>
<stop offset="0.12" style="stop-color:rgb(78.039216%,89.411765%,99.607843%);stop-opacity:1;"/>
<stop offset="0.3" style="stop-color:rgb(58.823529%,76.862745%,100%);stop-opacity:1;"/>
<stop offset="0.48" style="stop-color:rgb(44.313725%,68.627451%,98.823529%);stop-opacity:1;"/>
<stop offset="0.66" style="stop-color:rgb(28.235294%,59.215686%,97.647059%);stop-opacity:1;"/>
<stop offset="0.81" style="stop-color:rgb(5.490196%,32.156863%,71.372549%);stop-opacity:1;"/>
<stop offset="0.84" style="stop-color:rgb(0.392157%,26.27451%,65.490196%);stop-opacity:1;"/>
<stop offset="0.98" style="stop-color:rgb(0%,4.313725%,10.196078%);stop-opacity:1;"/>
<stop offset="1" style="stop-color:rgb(0%,0%,0%);stop-opacity:1;"/>
</linearGradient>
<linearGradient id="linear4" gradientUnits="userSpaceOnUse" x1="453.24" y1="603.93" x2="453.24" y2="91.3" gradientTransform="matrix(0.06,0,0,0.06,0,0)">
<stop offset="0" style="stop-color:rgb(88.627451%,96.470588%,99.607843%);stop-opacity:1;"/>
<stop offset="0.12" style="stop-color:rgb(78.039216%,89.411765%,99.607843%);stop-opacity:1;"/>
<stop offset="0.3" style="stop-color:rgb(58.823529%,76.862745%,100%);stop-opacity:1;"/>
<stop offset="0.48" style="stop-color:rgb(44.313725%,68.627451%,98.823529%);stop-opacity:1;"/>
<stop offset="0.66" style="stop-color:rgb(28.235294%,59.215686%,97.647059%);stop-opacity:1;"/>
<stop offset="0.81" style="stop-color:rgb(5.490196%,32.156863%,71.372549%);stop-opacity:1;"/>
<stop offset="0.84" style="stop-color:rgb(0.392157%,26.27451%,65.490196%);stop-opacity:1;"/>
<stop offset="0.98" style="stop-color:rgb(0%,4.313725%,10.196078%);stop-opacity:1;"/>
<stop offset="1" style="stop-color:rgb(0%,0%,0%);stop-opacity:1;"/>
</linearGradient>
<linearGradient id="linear5" gradientUnits="userSpaceOnUse" x1="472.48" y1="603.93" x2="472.48" y2="91.3" gradientTransform="matrix(0.06,0,0,0.06,0,0)">
<stop offset="0" style="stop-color:rgb(88.627451%,96.470588%,99.607843%);stop-opacity:1;"/>
<stop offset="0.12" style="stop-color:rgb(78.039216%,89.411765%,99.607843%);stop-opacity:1;"/>
<stop offset="0.3" style="stop-color:rgb(58.823529%,76.862745%,100%);stop-opacity:1;"/>
<stop offset="0.48" style="stop-color:rgb(44.313725%,68.627451%,98.823529%);stop-opacity:1;"/>
<stop offset="0.66" style="stop-color:rgb(28.235294%,59.215686%,97.647059%);stop-opacity:1;"/>
<stop offset="0.81" style="stop-color:rgb(5.490196%,32.156863%,71.372549%);stop-opacity:1;"/>
<stop offset="0.84" style="stop-color:rgb(0.392157%,26.27451%,65.490196%);stop-opacity:1;"/>
<stop offset="0.98" style="stop-color:rgb(0%,4.313725%,10.196078%);stop-opacity:1;"/>
<stop offset="1" style="stop-color:rgb(0%,0%,0%);stop-opacity:1;"/>
</linearGradient>
<linearGradient id="linear6" gradientUnits="userSpaceOnUse" x1="499.03" y1="603.93" x2="499.03" y2="91.3" gradientTransform="matrix(0.06,0,0,0.06,0,0)">
<stop offset="0" style="stop-color:rgb(88.627451%,96.470588%,99.607843%);stop-opacity:1;"/>
<stop offset="0.12" style="stop-color:rgb(78.039216%,89.411765%,99.607843%);stop-opacity:1;"/>
<stop offset="0.3" style="stop-color:rgb(58.823529%,76.862745%,100%);stop-opacity:1;"/>
<stop offset="0.48" style="stop-color:rgb(44.313725%,68.627451%,98.823529%);stop-opacity:1;"/>
<stop offset="0.66" style="stop-color:rgb(28.235294%,59.215686%,97.647059%);stop-opacity:1;"/>
<stop offset="0.81" style="stop-color:rgb(5.490196%,32.156863%,71.372549%);stop-opacity:1;"/>
<stop offset="0.84" style="stop-color:rgb(0.392157%,26.27451%,65.490196%);stop-opacity:1;"/>
<stop offset="0.98" style="stop-color:rgb(0%,4.313725%,10.196078%);stop-opacity:1;"/>
<stop offset="1" style="stop-color:rgb(0%,0%,0%);stop-opacity:1;"/>
</linearGradient>
<linearGradient id="linear7" gradientUnits="userSpaceOnUse" x1="401.28" y1="603.93" x2="401.28" y2="91.3" gradientTransform="matrix(0.06,0,0,0.06,0,0)">
<stop offset="0" style="stop-color:rgb(88.627451%,96.470588%,99.607843%);stop-opacity:1;"/>
<stop offset="0.12" style="stop-color:rgb(78.039216%,89.411765%,99.607843%);stop-opacity:1;"/>
<stop offset="0.3" style="stop-color:rgb(58.823529%,76.862745%,100%);stop-opacity:1;"/>
<stop offset="0.48" style="stop-color:rgb(44.313725%,68.627451%,98.823529%);stop-opacity:1;"/>
<stop offset="0.66" style="stop-color:rgb(28.235294%,59.215686%,97.647059%);stop-opacity:1;"/>
<stop offset="0.81" style="stop-color:rgb(5.490196%,32.156863%,71.372549%);stop-opacity:1;"/>
<stop offset="0.84" style="stop-color:rgb(0.392157%,26.27451%,65.490196%);stop-opacity:1;"/>
<stop offset="0.98" style="stop-color:rgb(0%,4.313725%,10.196078%);stop-opacity:1;"/>
<stop offset="1" style="stop-color:rgb(0%,0%,0%);stop-opacity:1;"/>
</linearGradient>
<linearGradient id="linear8" gradientUnits="userSpaceOnUse" x1="297.61" y1="603.93" x2="297.61" y2="91.3" gradientTransform="matrix(0.06,0,0,0.06,0,0)">
<stop offset="0" style="stop-color:rgb(88.627451%,96.470588%,99.607843%);stop-opacity:1;"/>
<stop offset="0.12" style="stop-color:rgb(78.039216%,89.411765%,99.607843%);stop-opacity:1;"/>
<stop offset="0.3" style="stop-color:rgb(58.823529%,76.862745%,100%);stop-opacity:1;"/>
<stop offset="0.48" style="stop-color:rgb(44.313725%,68.627451%,98.823529%);stop-opacity:1;"/>
<stop offset="0.66" style="stop-color:rgb(28.235294%,59.215686%,97.647059%);stop-opacity:1;"/>
<stop offset="0.81" style="stop-color:rgb(5.490196%,32.156863%,71.372549%);stop-opacity:1;"/>
<stop offset="0.84" style="stop-color:rgb(0.392157%,26.27451%,65.490196%);stop-opacity:1;"/>
<stop offset="0.98" style="stop-color:rgb(0%,4.313725%,10.196078%);stop-opacity:1;"/>
<stop offset="1" style="stop-color:rgb(0%,0%,0%);stop-opacity:1;"/>
</linearGradient>
<linearGradient id="linear9" gradientUnits="userSpaceOnUse" x1="590.82" y1="603.93" x2="590.82" y2="91.3" gradientTransform="matrix(0.06,0,0,0.06,0,0)">
<stop offset="0" style="stop-color:rgb(88.627451%,96.470588%,99.607843%);stop-opacity:1;"/>
<stop offset="0.12" style="stop-color:rgb(78.039216%,89.411765%,99.607843%);stop-opacity:1;"/>
<stop offset="0.3" style="stop-color:rgb(58.823529%,76.862745%,100%);stop-opacity:1;"/>
<stop offset="0.48" style="stop-color:rgb(44.313725%,68.627451%,98.823529%);stop-opacity:1;"/>
<stop offset="0.66" style="stop-color:rgb(28.235294%,59.215686%,97.647059%);stop-opacity:1;"/>
<stop offset="0.81" style="stop-color:rgb(5.490196%,32.156863%,71.372549%);stop-opacity:1;"/>
<stop offset="0.84" style="stop-color:rgb(0.392157%,26.27451%,65.490196%);stop-opacity:1;"/>
<stop offset="0.98" style="stop-color:rgb(0%,4.313725%,10.196078%);stop-opacity:1;"/>
<stop offset="1" style="stop-color:rgb(0%,0%,0%);stop-opacity:1;"/>
</linearGradient>
<linearGradient id="linear10" gradientUnits="userSpaceOnUse" x1="500.73" y1="603.93" x2="500.73" y2="91.3" gradientTransform="matrix(0.06,0,0,0.06,0,0)">
<stop offset="0" style="stop-color:rgb(88.627451%,96.470588%,99.607843%);stop-opacity:1;"/>
<stop offset="0.12" style="stop-color:rgb(78.039216%,89.411765%,99.607843%);stop-opacity:1;"/>
<stop offset="0.3" style="stop-color:rgb(58.823529%,76.862745%,100%);stop-opacity:1;"/>
<stop offset="0.48" style="stop-color:rgb(44.313725%,68.627451%,98.823529%);stop-opacity:1;"/>
<stop offset="0.66" style="stop-color:rgb(28.235294%,59.215686%,97.647059%);stop-opacity:1;"/>
<stop offset="0.81" style="stop-color:rgb(5.490196%,32.156863%,71.372549%);stop-opacity:1;"/>
<stop offset="0.84" style="stop-color:rgb(0.392157%,26.27451%,65.490196%);stop-opacity:1;"/>
<stop offset="0.98" style="stop-color:rgb(0%,4.313725%,10.196078%);stop-opacity:1;"/>
<stop offset="1" style="stop-color:rgb(0%,0%,0%);stop-opacity:1;"/>
</linearGradient>
<linearGradient id="linear11" gradientUnits="userSpaceOnUse" x1="484.01" y1="603.93" x2="484.01" y2="91.3" gradientTransform="matrix(0.06,0,0,0.06,0,0)">
<stop offset="0" style="stop-color:rgb(88.627451%,96.470588%,99.607843%);stop-opacity:1;"/>
<stop offset="0.12" style="stop-color:rgb(78.039216%,89.411765%,99.607843%);stop-opacity:1;"/>
<stop offset="0.3" style="stop-color:rgb(58.823529%,76.862745%,100%);stop-opacity:1;"/>
<stop offset="0.48" style="stop-color:rgb(44.313725%,68.627451%,98.823529%);stop-opacity:1;"/>
<stop offset="0.66" style="stop-color:rgb(28.235294%,59.215686%,97.647059%);stop-opacity:1;"/>
<stop offset="0.81" style="stop-color:rgb(5.490196%,32.156863%,71.372549%);stop-opacity:1;"/>
<stop offset="0.84" style="stop-color:rgb(0.392157%,26.27451%,65.490196%);stop-opacity:1;"/>
<stop offset="0.98" style="stop-color:rgb(0%,4.313725%,10.196078%);stop-opacity:1;"/>
<stop offset="1" style="stop-color:rgb(0%,0%,0%);stop-opacity:1;"/>
</linearGradient>
<linearGradient id="linear12" gradientUnits="userSpaceOnUse" x1="404.58" y1="603.93" x2="404.58" y2="91.3" gradientTransform="matrix(0.06,0,0,0.06,0,0)">
<stop offset="0" style="stop-color:rgb(88.627451%,96.470588%,99.607843%);stop-opacity:1;"/>
<stop offset="0.12" style="stop-color:rgb(78.039216%,89.411765%,99.607843%);stop-opacity:1;"/>
<stop offset="0.3" style="stop-color:rgb(58.823529%,76.862745%,100%);stop-opacity:1;"/>
<stop offset="0.48" style="stop-color:rgb(44.313725%,68.627451%,98.823529%);stop-opacity:1;"/>
<stop offset="0.66" style="stop-color:rgb(28.235294%,59.215686%,97.647059%);stop-opacity:1;"/>
<stop offset="0.81" style="stop-color:rgb(5.490196%,32.156863%,71.372549%);stop-opacity:1;"/>
<stop offset="0.84" style="stop-color:rgb(0.392157%,26.27451%,65.490196%);stop-opacity:1;"/>
<stop offset="0.98" style="stop-color:rgb(0%,4.313725%,10.196078%);stop-opacity:1;"/>
<stop offset="1" style="stop-color:rgb(0%,0%,0%);stop-opacity:1;"/>
</linearGradient>
<linearGradient id="linear13" gradientUnits="userSpaceOnUse" x1="287.64" y1="603.93" x2="287.64" y2="91.3" gradientTransform="matrix(0.06,0,0,0.06,0,0)">
<stop offset="0" style="stop-color:rgb(88.627451%,96.470588%,99.607843%);stop-opacity:1;"/>
<stop offset="0.12" style="stop-color:rgb(78.039216%,89.411765%,99.607843%);stop-opacity:1;"/>
<stop offset="0.3" style="stop-color:rgb(58.823529%,76.862745%,100%);stop-opacity:1;"/>
<stop offset="0.48" style="stop-color:rgb(44.313725%,68.627451%,98.823529%);stop-opacity:1;"/>
<stop offset="0.66" style="stop-color:rgb(28.235294%,59.215686%,97.647059%);stop-opacity:1;"/>
<stop offset="0.81" style="stop-color:rgb(5.490196%,32.156863%,71.372549%);stop-opacity:1;"/>
<stop offset="0.84" style="stop-color:rgb(0.392157%,26.27451%,65.490196%);stop-opacity:1;"/>
<stop offset="0.98" style="stop-color:rgb(0%,4.313725%,10.196078%);stop-opacity:1;"/>
<stop offset="1" style="stop-color:rgb(0%,0%,0%);stop-opacity:1;"/>
</linearGradient>
<linearGradient id="linear14" gradientUnits="userSpaceOnUse" x1="262.2" y1="603.93" x2="262.2" y2="91.3" gradientTransform="matrix(0.06,0,0,0.06,0,0)">
<stop offset="0" style="stop-color:rgb(88.627451%,96.470588%,99.607843%);stop-opacity:1;"/>
<stop offset="0.12" style="stop-color:rgb(78.039216%,89.411765%,99.607843%);stop-opacity:1;"/>
<stop offset="0.3" style="stop-color:rgb(58.823529%,76.862745%,100%);stop-opacity:1;"/>
<stop offset="0.48" style="stop-color:rgb(44.313725%,68.627451%,98.823529%);stop-opacity:1;"/>
<stop offset="0.66" style="stop-color:rgb(28.235294%,59.215686%,97.647059%);stop-opacity:1;"/>
<stop offset="0.81" style="stop-color:rgb(5.490196%,32.156863%,71.372549%);stop-opacity:1;"/>
<stop offset="0.84" style="stop-color:rgb(0.392157%,26.27451%,65.490196%);stop-opacity:1;"/>
<stop offset="0.98" style="stop-color:rgb(0%,4.313725%,10.196078%);stop-opacity:1;"/>
<stop offset="1" style="stop-color:rgb(0%,0%,0%);stop-opacity:1;"/>
</linearGradient>
<linearGradient id="linear15" gradientUnits="userSpaceOnUse" x1="321.4" y1="603.93" x2="321.4" y2="91.3" gradientTransform="matrix(0.06,0,0,0.06,0,0)">
<stop offset="0" style="stop-color:rgb(88.627451%,96.470588%,99.607843%);stop-opacity:1;"/>
<stop offset="0.12" style="stop-color:rgb(78.039216%,89.411765%,99.607843%);stop-opacity:1;"/>
<stop offset="0.3" style="stop-color:rgb(58.823529%,76.862745%,100%);stop-opacity:1;"/>
<stop offset="0.48" style="stop-color:rgb(44.313725%,68.627451%,98.823529%);stop-opacity:1;"/>
<stop offset="0.66" style="stop-color:rgb(28.235294%,59.215686%,97.647059%);stop-opacity:1;"/>
<stop offset="0.81" style="stop-color:rgb(5.490196%,32.156863%,71.372549%);stop-opacity:1;"/>
<stop offset="0.84" style="stop-color:rgb(0.392157%,26.27451%,65.490196%);stop-opacity:1;"/>
<stop offset="0.98" style="stop-color:rgb(0%,4.313725%,10.196078%);stop-opacity:1;"/>
<stop offset="1" style="stop-color:rgb(0%,0%,0%);stop-opacity:1;"/>
</linearGradient>
<linearGradient id="linear16" gradientUnits="userSpaceOnUse" x1="262.2" y1="603.93" x2="262.2" y2="91.3" gradientTransform="matrix(0.06,0,0,0.06,0,0)">
<stop offset="0" style="stop-color:rgb(88.627451%,96.470588%,99.607843%);stop-opacity:1;"/>
<stop offset="0.12" style="stop-color:rgb(78.039216%,89.411765%,99.607843%);stop-opacity:1;"/>
<stop offset="0.3" style="stop-color:rgb(58.823529%,76.862745%,100%);stop-opacity:1;"/>
<stop offset="0.48" style="stop-color:rgb(44.313725%,68.627451%,98.823529%);stop-opacity:1;"/>
<stop offset="0.66" style="stop-color:rgb(28.235294%,59.215686%,97.647059%);stop-opacity:1;"/>
<stop offset="0.81" style="stop-color:rgb(5.490196%,32.156863%,71.372549%);stop-opacity:1;"/>
<stop offset="0.84" style="stop-color:rgb(0.392157%,26.27451%,65.490196%);stop-opacity:1;"/>
<stop offset="0.98" style="stop-color:rgb(0%,4.313725%,10.196078%);stop-opacity:1;"/>
<stop offset="1" style="stop-color:rgb(0%,0%,0%);stop-opacity:1;"/>
</linearGradient>
<linearGradient id="linear17" gradientUnits="userSpaceOnUse" x1="549.49" y1="603.93" x2="549.49" y2="91.3" gradientTransform="matrix(0.06,0,0,0.06,0,0)">
<stop offset="0" style="stop-color:rgb(88.627451%,96.470588%,99.607843%);stop-opacity:1;"/>
<stop offset="0.12" style="stop-color:rgb(78.039216%,89.411765%,99.607843%);stop-opacity:1;"/>
<stop offset="0.3" style="stop-color:rgb(58.823529%,76.862745%,100%);stop-opacity:1;"/>
<stop offset="0.48" style="stop-color:rgb(44.313725%,68.627451%,98.823529%);stop-opacity:1;"/>
<stop offset="0.66" style="stop-color:rgb(28.235294%,59.215686%,97.647059%);stop-opacity:1;"/>
<stop offset="0.81" style="stop-color:rgb(5.490196%,32.156863%,71.372549%);stop-opacity:1;"/>
<stop offset="0.84" style="stop-color:rgb(0.392157%,26.27451%,65.490196%);stop-opacity:1;"/>
<stop offset="0.98" style="stop-color:rgb(0%,4.313725%,10.196078%);stop-opacity:1;"/>
<stop offset="1" style="stop-color:rgb(0%,0%,0%);stop-opacity:1;"/>
</linearGradient>
<linearGradient id="linear18" gradientUnits="userSpaceOnUse" x1="373.01" y1="603.93" x2="373.01" y2="91.3" gradientTransform="matrix(0.06,0,0,0.06,0,0)">
<stop offset="0" style="stop-color:rgb(88.627451%,96.470588%,99.607843%);stop-opacity:1;"/>
<stop offset="0.12" style="stop-color:rgb(78.039216%,89.411765%,99.607843%);stop-opacity:1;"/>
<stop offset="0.3" style="stop-color:rgb(58.823529%,76.862745%,100%);stop-opacity:1;"/>
<stop offset="0.48" style="stop-color:rgb(44.313725%,68.627451%,98.823529%);stop-opacity:1;"/>
<stop offset="0.66" style="stop-color:rgb(28.235294%,59.215686%,97.647059%);stop-opacity:1;"/>
<stop offset="0.81" style="stop-color:rgb(5.490196%,32.156863%,71.372549%);stop-opacity:1;"/>
<stop offset="0.84" style="stop-color:rgb(0.392157%,26.27451%,65.490196%);stop-opacity:1;"/>
<stop offset="0.98" style="stop-color:rgb(0%,4.313725%,10.196078%);stop-opacity:1;"/>
<stop offset="1" style="stop-color:rgb(0%,0%,0%);stop-opacity:1;"/>
</linearGradient>
<linearGradient id="linear19" gradientUnits="userSpaceOnUse" x1="230.32" y1="603.93" x2="230.32" y2="91.3" gradientTransform="matrix(0.06,0,0,0.06,0,0)">
<stop offset="0" style="stop-color:rgb(88.627451%,96.470588%,99.607843%);stop-opacity:1;"/>
<stop offset="0.12" style="stop-color:rgb(78.039216%,89.411765%,99.607843%);stop-opacity:1;"/>
<stop offset="0.3" style="stop-color:rgb(58.823529%,76.862745%,100%);stop-opacity:1;"/>
<stop offset="0.48" style="stop-color:rgb(44.313725%,68.627451%,98.823529%);stop-opacity:1;"/>
<stop offset="0.66" style="stop-color:rgb(28.235294%,59.215686%,97.647059%);stop-opacity:1;"/>
<stop offset="0.81" style="stop-color:rgb(5.490196%,32.156863%,71.372549%);stop-opacity:1;"/>
<stop offset="0.84" style="stop-color:rgb(0.392157%,26.27451%,65.490196%);stop-opacity:1;"/>
<stop offset="0.98" style="stop-color:rgb(0%,4.313725%,10.196078%);stop-opacity:1;"/>
<stop offset="1" style="stop-color:rgb(0%,0%,0%);stop-opacity:1;"/>
</linearGradient>
<linearGradient id="linear20" gradientUnits="userSpaceOnUse" x1="269.98" y1="603.93" x2="269.98" y2="91.3" gradientTransform="matrix(0.06,0,0,0.06,0,0)">
<stop offset="0" style="stop-color:rgb(88.627451%,96.470588%,99.607843%);stop-opacity:1;"/>
<stop offset="0.12" style="stop-color:rgb(78.039216%,89.411765%,99.607843%);stop-opacity:1;"/>
<stop offset="0.3" style="stop-color:rgb(58.823529%,76.862745%,100%);stop-opacity:1;"/>
<stop offset="0.48" style="stop-color:rgb(44.313725%,68.627451%,98.823529%);stop-opacity:1;"/>
<stop offset="0.66" style="stop-color:rgb(28.235294%,59.215686%,97.647059%);stop-opacity:1;"/>
<stop offset="0.81" style="stop-color:rgb(5.490196%,32.156863%,71.372549%);stop-opacity:1;"/>
<stop offset="0.84" style="stop-color:rgb(0.392157%,26.27451%,65.490196%);stop-opacity:1;"/>
<stop offset="0.98" style="stop-color:rgb(0%,4.313725%,10.196078%);stop-opacity:1;"/>
<stop offset="1" style="stop-color:rgb(0%,0%,0%);stop-opacity:1;"/>
</linearGradient>
<linearGradient id="linear21" gradientUnits="userSpaceOnUse" x1="577.7" y1="603.93" x2="577.7" y2="91.3" gradientTransform="matrix(0.06,0,0,0.06,0,0)">
<stop offset="0" style="stop-color:rgb(88.627451%,96.470588%,99.607843%);stop-opacity:1;"/>
<stop offset="0.12" style="stop-color:rgb(78.039216%,89.411765%,99.607843%);stop-opacity:1;"/>
<stop offset="0.3" style="stop-color:rgb(58.823529%,76.862745%,100%);stop-opacity:1;"/>
<stop offset="0.48" style="stop-color:rgb(44.313725%,68.627451%,98.823529%);stop-opacity:1;"/>
<stop offset="0.66" style="stop-color:rgb(28.235294%,59.215686%,97.647059%);stop-opacity:1;"/>
<stop offset="0.81" style="stop-color:rgb(5.490196%,32.156863%,71.372549%);stop-opacity:1;"/>
<stop offset="0.84" style="stop-color:rgb(0.392157%,26.27451%,65.490196%);stop-opacity:1;"/>
<stop offset="0.98" style="stop-color:rgb(0%,4.313725%,10.196078%);stop-opacity:1;"/>
<stop offset="1" style="stop-color:rgb(0%,0%,0%);stop-opacity:1;"/>
</linearGradient>
<linearGradient id="linear22" gradientUnits="userSpaceOnUse" x1="522.63" y1="603.93" x2="522.63" y2="91.3" gradientTransform="matrix(0.06,0,0,0.06,0,0)">
<stop offset="0" style="stop-color:rgb(88.627451%,96.470588%,99.607843%);stop-opacity:1;"/>
<stop offset="0.12" style="stop-color:rgb(78.039216%,89.411765%,99.607843%);stop-opacity:1;"/>
<stop offset="0.3" style="stop-color:rgb(58.823529%,76.862745%,100%);stop-opacity:1;"/>
<stop offset="0.48" style="stop-color:rgb(44.313725%,68.627451%,98.823529%);stop-opacity:1;"/>
<stop offset="0.66" style="stop-color:rgb(28.235294%,59.215686%,97.647059%);stop-opacity:1;"/>
<stop offset="0.81" style="stop-color:rgb(5.490196%,32.156863%,71.372549%);stop-opacity:1;"/>
<stop offset="0.84" style="stop-color:rgb(0.392157%,26.27451%,65.490196%);stop-opacity:1;"/>
<stop offset="0.98" style="stop-color:rgb(0%,4.313725%,10.196078%);stop-opacity:1;"/>
<stop offset="1" style="stop-color:rgb(0%,0%,0%);stop-opacity:1;"/>
</linearGradient>
<linearGradient id="linear23" gradientUnits="userSpaceOnUse" x1="209.36" y1="603.93" x2="209.36" y2="91.3" gradientTransform="matrix(0.06,0,0,0.06,0,0)">
<stop offset="0" style="stop-color:rgb(88.627451%,96.470588%,99.607843%);stop-opacity:1;"/>
<stop offset="0.12" style="stop-color:rgb(78.039216%,89.411765%,99.607843%);stop-opacity:1;"/>
<stop offset="0.3" style="stop-color:rgb(58.823529%,76.862745%,100%);stop-opacity:1;"/>
<stop offset="0.48" style="stop-color:rgb(44.313725%,68.627451%,98.823529%);stop-opacity:1;"/>
<stop offset="0.66" style="stop-color:rgb(28.235294%,59.215686%,97.647059%);stop-opacity:1;"/>
<stop offset="0.81" style="stop-color:rgb(5.490196%,32.156863%,71.372549%);stop-opacity:1;"/>
<stop offset="0.84" style="stop-color:rgb(0.392157%,26.27451%,65.490196%);stop-opacity:1;"/>
<stop offset="0.98" style="stop-color:rgb(0%,4.313725%,10.196078%);stop-opacity:1;"/>
<stop offset="1" style="stop-color:rgb(0%,0%,0%);stop-opacity:1;"/>
</linearGradient>
<linearGradient id="linear24" gradientUnits="userSpaceOnUse" x1="526.49" y1="603.93" x2="526.49" y2="91.3" gradientTransform="matrix(0.06,0,0,0.06,0,0)">
<stop offset="0" style="stop-color:rgb(88.627451%,96.470588%,99.607843%);stop-opacity:1;"/>
<stop offset="0.12" style="stop-color:rgb(78.039216%,89.411765%,99.607843%);stop-opacity:1;"/>
<stop offset="0.3" style="stop-color:rgb(58.823529%,76.862745%,100%);stop-opacity:1;"/>
<stop offset="0.48" style="stop-color:rgb(44.313725%,68.627451%,98.823529%);stop-opacity:1;"/>
<stop offset="0.66" style="stop-color:rgb(28.235294%,59.215686%,97.647059%);stop-opacity:1;"/>
<stop offset="0.81" style="stop-color:rgb(5.490196%,32.156863%,71.372549%);stop-opacity:1;"/>
<stop offset="0.84" style="stop-color:rgb(0.392157%,26.27451%,65.490196%);stop-opacity:1;"/>
<stop offset="0.98" style="stop-color:rgb(0%,4.313725%,10.196078%);stop-opacity:1;"/>
<stop offset="1" style="stop-color:rgb(0%,0%,0%);stop-opacity:1;"/>
</linearGradient>
<linearGradient id="linear25" gradientUnits="userSpaceOnUse" x1="614.07" y1="603.93" x2="614.07" y2="91.3" gradientTransform="matrix(0.06,0,0,0.06,0,0)">
<stop offset="0" style="stop-color:rgb(88.627451%,96.470588%,99.607843%);stop-opacity:1;"/>
<stop offset="0.12" style="stop-color:rgb(78.039216%,89.411765%,99.607843%);stop-opacity:1;"/>
<stop offset="0.3" style="stop-color:rgb(58.823529%,76.862745%,100%);stop-opacity:1;"/>
<stop offset="0.48" style="stop-color:rgb(44.313725%,68.627451%,98.823529%);stop-opacity:1;"/>
<stop offset="0.66" style="stop-color:rgb(28.235294%,59.215686%,97.647059%);stop-opacity:1;"/>
<stop offset="0.81" style="stop-color:rgb(5.490196%,32.156863%,71.372549%);stop-opacity:1;"/>
<stop offset="0.84" style="stop-color:rgb(0.392157%,26.27451%,65.490196%);stop-opacity:1;"/>
<stop offset="0.98" style="stop-color:rgb(0%,4.313725%,10.196078%);stop-opacity:1;"/>
<stop offset="1" style="stop-color:rgb(0%,0%,0%);stop-opacity:1;"/>
</linearGradient>
<linearGradient id="linear26" gradientUnits="userSpaceOnUse" x1="549.49" y1="603.93" x2="549.49" y2="91.3" gradientTransform="matrix(0.06,0,0,0.06,0,0)">
<stop offset="0" style="stop-color:rgb(88.627451%,96.470588%,99.607843%);stop-opacity:1;"/>
<stop offset="0.12" style="stop-color:rgb(78.039216%,89.411765%,99.607843%);stop-opacity:1;"/>
<stop offset="0.3" style="stop-color:rgb(58.823529%,76.862745%,100%);stop-opacity:1;"/>
<stop offset="0.48" style="stop-color:rgb(44.313725%,68.627451%,98.823529%);stop-opacity:1;"/>
<stop offset="0.66" style="stop-color:rgb(28.235294%,59.215686%,97.647059%);stop-opacity:1;"/>
<stop offset="0.81" style="stop-color:rgb(5.490196%,32.156863%,71.372549%);stop-opacity:1;"/>
<stop offset="0.84" style="stop-color:rgb(0.392157%,26.27451%,65.490196%);stop-opacity:1;"/>
<stop offset="0.98" style="stop-color:rgb(0%,4.313725%,10.196078%);stop-opacity:1;"/>
<stop offset="1" style="stop-color:rgb(0%,0%,0%);stop-opacity:1;"/>
</linearGradient>
<linearGradient id="linear27" gradientUnits="userSpaceOnUse" x1="577.32" y1="603.93" x2="577.32" y2="91.3" gradientTransform="matrix(0.06,0,0,0.06,0,0)">
<stop offset="0" style="stop-color:rgb(88.627451%,96.470588%,99.607843%);stop-opacity:1;"/>
<stop offset="0.12" style="stop-color:rgb(78.039216%,89.411765%,99.607843%);stop-opacity:1;"/>
<stop offset="0.3" style="stop-color:rgb(58.823529%,76.862745%,100%);stop-opacity:1;"/>
<stop offset="0.48" style="stop-color:rgb(44.313725%,68.627451%,98.823529%);stop-opacity:1;"/>
<stop offset="0.66" style="stop-color:rgb(28.235294%,59.215686%,97.647059%);stop-opacity:1;"/>
<stop offset="0.81" style="stop-color:rgb(5.490196%,32.156863%,71.372549%);stop-opacity:1;"/>
<stop offset="0.84" style="stop-color:rgb(0.392157%,26.27451%,65.490196%);stop-opacity:1;"/>
<stop offset="0.98" style="stop-color:rgb(0%,4.313725%,10.196078%);stop-opacity:1;"/>
<stop offset="1" style="stop-color:rgb(0%,0%,0%);stop-opacity:1;"/>
</linearGradient>
<linearGradient id="linear28" gradientUnits="userSpaceOnUse" x1="176.44" y1="603.93" x2="176.44" y2="91.3" gradientTransform="matrix(0.06,0,0,0.06,0,0)">
<stop offset="0" style="stop-color:rgb(88.627451%,96.470588%,99.607843%);stop-opacity:1;"/>
<stop offset="0.12" style="stop-color:rgb(78.039216%,89.411765%,99.607843%);stop-opacity:1;"/>
<stop offset="0.3" style="stop-color:rgb(58.823529%,76.862745%,100%);stop-opacity:1;"/>
<stop offset="0.48" style="stop-color:rgb(44.313725%,68.627451%,98.823529%);stop-opacity:1;"/>
<stop offset="0.66" style="stop-color:rgb(28.235294%,59.215686%,97.647059%);stop-opacity:1;"/>
<stop offset="0.81" style="stop-color:rgb(5.490196%,32.156863%,71.372549%);stop-opacity:1;"/>
<stop offset="0.84" style="stop-color:rgb(0.392157%,26.27451%,65.490196%);stop-opacity:1;"/>
<stop offset="0.98" style="stop-color:rgb(0%,4.313725%,10.196078%);stop-opacity:1;"/>
<stop offset="1" style="stop-color:rgb(0%,0%,0%);stop-opacity:1;"/>
</linearGradient>
</defs>
<g id="surface1">
<path style=" stroke:none;fill-rule:nonzero;fill:rgb(0%,0%,0%);fill-opacity:1;" d="M 41.761719 22.703125 C 41.5625 22.707031 41.371094 22.660156 41.199219 22.566406 C 41.035156 22.480469 40.898438 22.347656 40.808594 22.1875 C 40.710938 22.015625 40.660156 21.820312 40.664062 21.625 C 40.660156 21.425781 40.710938 21.230469 40.808594 21.054688 C 40.898438 20.894531 41.035156 20.765625 41.199219 20.675781 C 41.550781 20.496094 41.972656 20.496094 42.324219 20.675781 C 42.484375 20.765625 42.621094 20.894531 42.710938 21.054688 C 42.808594 21.230469 42.859375 21.425781 42.855469 21.625 C 42.859375 21.820312 42.808594 22.015625 42.710938 22.1875 C 42.621094 22.347656 42.484375 22.480469 42.324219 22.566406 C 42.152344 22.660156 41.957031 22.707031 41.761719 22.703125 Z M 41.761719 22.441406 C 41.90625 22.445312 42.046875 22.40625 42.175781 22.335938 C 42.292969 22.269531 42.394531 22.171875 42.457031 22.050781 C 42.527344 21.917969 42.566406 21.773438 42.5625 21.625 C 42.570312 21.402344 42.492188 21.1875 42.339844 21.03125 C 42.183594 20.878906 41.976562 20.796875 41.761719 20.804688 C 41.617188 20.800781 41.472656 20.835938 41.347656 20.90625 C 41.226562 20.976562 41.128906 21.074219 41.0625 21.195312 C 40.992188 21.328125 40.957031 21.476562 40.957031 21.625 C 40.957031 21.773438 40.992188 21.917969 41.0625 22.050781 C 41.128906 22.171875 41.226562 22.269531 41.347656 22.335938 C 41.472656 22.40625 41.617188 22.441406 41.761719 22.441406 Z M 41.378906 22.109375 L 41.378906 21.058594 L 41.820312 21.058594 C 41.914062 21.054688 42.007812 21.089844 42.078125 21.148438 C 42.148438 21.210938 42.183594 21.296875 42.179688 21.390625 C 42.183594 21.460938 42.164062 21.527344 42.125 21.589844 C 42.089844 21.640625 42.039062 21.683594 41.984375 21.707031 L 42.242188 22.117188 L 41.972656 22.117188 L 41.742188 21.738281 L 41.613281 21.738281 L 41.613281 22.117188 Z M 41.609375 21.550781 L 41.746094 21.550781 C 41.796875 21.554688 41.847656 21.542969 41.890625 21.515625 C 41.929688 21.484375 41.949219 21.4375 41.941406 21.390625 C 41.945312 21.347656 41.929688 21.308594 41.898438 21.277344 C 41.867188 21.253906 41.828125 21.242188 41.789062 21.246094 L 41.609375 21.246094 Z M 41.609375 21.550781 "/>
<path style=" stroke:none;fill-rule:nonzero;fill:rgb(0%,0%,0%);fill-opacity:1;" d="M 8.375 22.703125 L 7.914062 22.703125 L 7.914062 25.351562 L 8.375 25.351562 Z M 8.375 22.703125 "/>
<path style=" stroke:none;fill-rule:nonzero;fill:rgb(0%,0%,0%);fill-opacity:1;" d="M 8.589844 23.820312 L 9.710938 23.820312 L 9.710938 24.257812 L 8.589844 24.257812 Z M 8.589844 23.820312 "/>
<path style=" stroke:none;fill-rule:nonzero;fill:rgb(0%,0%,0%);fill-opacity:1;" d="M 9.886719 24.039062 L 10.539062 22.703125 L 10.027344 22.703125 L 9.375 24.039062 L 10.03125 25.351562 L 10.542969 25.351562 Z M 9.886719 24.039062 "/>
<path style=" stroke:none;fill-rule:nonzero;fill:rgb(0%,0%,0%);fill-opacity:1;" d="M 12 23.878906 L 12.519531 23.878906 C 12.5625 23.882812 12.605469 23.871094 12.640625 23.847656 C 12.675781 23.824219 12.703125 23.792969 12.726562 23.757812 C 12.75 23.722656 12.765625 23.683594 12.773438 23.640625 C 12.785156 23.601562 12.789062 23.558594 12.789062 23.519531 C 12.789062 23.476562 12.785156 23.433594 12.769531 23.390625 C 12.757812 23.347656 12.738281 23.304688 12.714844 23.265625 C 12.691406 23.230469 12.664062 23.199219 12.628906 23.171875 C 12.59375 23.148438 12.550781 23.136719 12.511719 23.136719 L 11.382812 23.136719 L 11.382812 25.351562 L 10.929688 25.351562 L 10.929688 22.703125 L 12.558594 22.703125 C 12.652344 22.703125 12.742188 22.722656 12.828125 22.765625 C 12.910156 22.804688 12.988281 22.863281 13.050781 22.9375 C 13.113281 23.011719 13.167969 23.101562 13.203125 23.195312 C 13.242188 23.300781 13.261719 23.410156 13.261719 23.519531 C 13.261719 23.609375 13.246094 23.699219 13.21875 23.785156 C 13.191406 23.871094 13.152344 23.949219 13.101562 24.019531 C 13.054688 24.089844 12.996094 24.148438 12.925781 24.199219 C 12.863281 24.246094 12.789062 24.28125 12.710938 24.300781 L 13.246094 25.351562 L 12.75 25.351562 Z M 12 23.878906 "/>
<path style=" stroke:none;fill-rule:nonzero;fill:rgb(0%,0%,0%);fill-opacity:1;" d="M 14.535156 24.429688 L 13.386719 22.703125 L 13.953125 22.703125 L 14.757812 23.902344 L 15.589844 22.703125 L 16.15625 22.703125 L 15 24.410156 L 15 25.351562 L 14.53125 25.351562 Z M 14.535156 24.429688 "/>
<path style=" stroke:none;fill-rule:nonzero;fill:rgb(0%,0%,0%);fill-opacity:1;" d="M 16.460938 22.703125 L 18.09375 22.703125 C 18.183594 22.703125 18.277344 22.722656 18.359375 22.765625 C 18.445312 22.804688 18.519531 22.863281 18.582031 22.9375 C 18.648438 23.011719 18.699219 23.101562 18.734375 23.195312 C 18.773438 23.300781 18.796875 23.410156 18.796875 23.519531 C 18.796875 23.625 18.777344 23.726562 18.738281 23.820312 C 18.703125 23.914062 18.65625 23.996094 18.589844 24.070312 C 18.53125 24.144531 18.453125 24.203125 18.371094 24.246094 C 18.289062 24.289062 18.195312 24.3125 18.101562 24.3125 L 17.601562 24.3125 L 17.601562 23.878906 L 18.054688 23.878906 C 18.097656 23.882812 18.140625 23.871094 18.175781 23.847656 C 18.210938 23.824219 18.238281 23.792969 18.257812 23.761719 C 18.28125 23.722656 18.296875 23.683594 18.304688 23.640625 C 18.316406 23.601562 18.320312 23.558594 18.320312 23.519531 C 18.320312 23.476562 18.316406 23.433594 18.300781 23.390625 C 18.289062 23.347656 18.269531 23.304688 18.246094 23.265625 C 18.222656 23.230469 18.195312 23.199219 18.15625 23.175781 C 18.125 23.152344 18.082031 23.136719 18.042969 23.136719 L 16.921875 23.136719 L 16.921875 25.351562 L 16.464844 25.351562 Z M 16.460938 22.703125 "/>
<path style=" stroke:none;fill-rule:nonzero;fill:rgb(0%,0%,0%);fill-opacity:1;" d="M 21.433594 22.703125 L 21.433594 23.136719 L 20.5 23.136719 L 20.5 25.351562 L 20.042969 25.351562 L 20.042969 23.136719 L 19.121094 23.136719 L 19.121094 22.703125 Z M 21.433594 22.703125 "/>
<path style=" stroke:none;fill-rule:nonzero;fill:rgb(0%,0%,0%);fill-opacity:1;" d="M 21.710938 23.507812 C 21.777344 23.347656 21.875 23.207031 21.996094 23.082031 C 22.117188 22.960938 22.261719 22.863281 22.421875 22.796875 C 22.761719 22.65625 23.140625 22.65625 23.480469 22.796875 C 23.800781 22.933594 24.054688 23.1875 24.191406 23.507812 C 24.332031 23.839844 24.332031 24.214844 24.191406 24.546875 C 24.054688 24.867188 23.800781 25.125 23.480469 25.261719 C 23.140625 25.402344 22.761719 25.402344 22.421875 25.261719 C 22.261719 25.191406 22.117188 25.09375 21.996094 24.972656 C 21.613281 24.585938 21.503906 24.011719 21.710938 23.507812 Z M 22.132812 24.371094 C 22.222656 24.585938 22.394531 24.753906 22.605469 24.84375 C 22.714844 24.890625 22.835938 24.914062 22.953125 24.914062 C 23.070312 24.914062 23.1875 24.890625 23.292969 24.84375 C 23.402344 24.800781 23.5 24.734375 23.582031 24.652344 C 23.667969 24.574219 23.734375 24.476562 23.78125 24.371094 C 23.875 24.15625 23.875 23.910156 23.78125 23.691406 C 23.734375 23.585938 23.667969 23.492188 23.585938 23.410156 C 23.503906 23.328125 23.40625 23.261719 23.296875 23.214844 C 23.078125 23.117188 22.828125 23.117188 22.609375 23.214844 C 22.503906 23.261719 22.40625 23.328125 22.324219 23.410156 C 22.242188 23.488281 22.175781 23.585938 22.132812 23.691406 C 22.039062 23.910156 22.039062 24.15625 22.132812 24.371094 Z M 22.132812 24.371094 "/>
<path style=" stroke:none;fill-rule:nonzero;fill:rgb(0%,0%,0%);fill-opacity:1;" d="M 25.441406 23.109375 C 25.347656 23.101562 25.253906 23.136719 25.191406 23.207031 C 25.136719 23.273438 25.105469 23.359375 25.109375 23.445312 C 25.105469 23.527344 25.132812 23.601562 25.183594 23.664062 C 25.25 23.730469 25.332031 23.773438 25.421875 23.785156 L 25.421875 24.21875 C 25.320312 24.21875 25.21875 24.199219 25.125 24.15625 C 25.03125 24.117188 24.949219 24.0625 24.878906 23.992188 C 24.808594 23.917969 24.75 23.835938 24.710938 23.746094 C 24.667969 23.652344 24.648438 23.550781 24.648438 23.449219 C 24.648438 23.339844 24.667969 23.230469 24.703125 23.132812 C 24.738281 23.042969 24.789062 22.957031 24.851562 22.886719 C 24.914062 22.820312 24.988281 22.765625 25.070312 22.730469 C 25.15625 22.691406 25.25 22.675781 25.339844 22.675781 L 26.933594 22.675781 L 26.933594 23.109375 Z M 26.175781 24.890625 C 26.269531 24.898438 26.363281 24.863281 26.429688 24.796875 C 26.484375 24.726562 26.511719 24.640625 26.511719 24.550781 C 26.511719 24.472656 26.484375 24.398438 26.433594 24.335938 C 26.371094 24.273438 26.285156 24.230469 26.195312 24.21875 L 26.195312 23.78125 C 26.296875 23.777344 26.402344 23.800781 26.496094 23.839844 C 26.589844 23.878906 26.671875 23.9375 26.742188 24.007812 C 26.816406 24.078125 26.871094 24.160156 26.914062 24.253906 C 26.957031 24.347656 26.976562 24.449219 26.976562 24.550781 C 26.980469 24.65625 26.960938 24.765625 26.921875 24.867188 C 26.886719 24.957031 26.835938 25.039062 26.769531 25.109375 C 26.644531 25.246094 26.46875 25.324219 26.28125 25.324219 L 24.6875 25.324219 L 24.6875 24.890625 Z M 26.175781 24.890625 "/>
<path style=" stroke:none;fill-rule:nonzero;fill:rgb(0%,0%,0%);fill-opacity:1;" d="M 27.464844 22.703125 L 29.09375 22.703125 C 29.1875 22.703125 29.277344 22.722656 29.359375 22.765625 C 29.445312 22.804688 29.523438 22.863281 29.582031 22.9375 C 29.648438 23.011719 29.699219 23.101562 29.734375 23.195312 C 29.777344 23.300781 29.796875 23.410156 29.796875 23.519531 C 29.796875 23.625 29.777344 23.726562 29.742188 23.820312 C 29.707031 23.914062 29.65625 23.996094 29.59375 24.070312 C 29.53125 24.144531 29.457031 24.203125 29.371094 24.246094 C 29.289062 24.289062 29.199219 24.3125 29.105469 24.3125 L 28.605469 24.3125 L 28.605469 23.878906 L 29.058594 23.878906 C 29.101562 23.882812 29.140625 23.871094 29.175781 23.847656 C 29.210938 23.824219 29.242188 23.792969 29.261719 23.757812 C 29.285156 23.722656 29.300781 23.683594 29.3125 23.640625 C 29.320312 23.601562 29.324219 23.558594 29.328125 23.519531 C 29.324219 23.476562 29.320312 23.433594 29.308594 23.390625 C 29.292969 23.347656 29.277344 23.304688 29.25 23.265625 C 29.230469 23.230469 29.199219 23.199219 29.164062 23.171875 C 29.128906 23.148438 29.085938 23.136719 29.046875 23.136719 L 27.917969 23.136719 L 27.917969 25.351562 L 27.464844 25.351562 Z M 27.464844 22.703125 "/>
<path style=" stroke:none;fill-rule:nonzero;fill:rgb(0%,0%,0%);fill-opacity:1;" d="M 30.949219 24.3125 L 30.949219 23.878906 L 32.304688 23.878906 L 32.304688 22.703125 L 32.761719 22.703125 L 32.761719 25.351562 L 32.304688 25.351562 L 32.304688 24.3125 Z M 30.308594 22.703125 L 30.773438 22.703125 L 30.773438 25.351562 L 30.308594 25.351562 Z M 30.308594 22.703125 "/>
<path style=" stroke:none;fill-rule:nonzero;fill:rgb(0%,0%,0%);fill-opacity:1;" d="M 33.179688 25.351562 L 33.179688 22.703125 L 35.195312 22.703125 L 35.195312 23.136719 L 33.636719 23.136719 L 33.636719 24.917969 L 35.195312 24.917969 L 35.195312 25.351562 Z M 35.171875 23.878906 L 35.171875 24.3125 L 33.832031 24.3125 L 33.832031 23.878906 Z M 35.171875 23.878906 "/>
<path style=" stroke:none;fill-rule:nonzero;fill:rgb(0%,0%,0%);fill-opacity:1;" d="M 36.796875 23.878906 L 37.320312 23.878906 C 37.363281 23.882812 37.40625 23.871094 37.441406 23.847656 C 37.472656 23.824219 37.503906 23.792969 37.523438 23.757812 C 37.546875 23.722656 37.5625 23.683594 37.574219 23.640625 C 37.582031 23.601562 37.589844 23.558594 37.589844 23.519531 C 37.589844 23.476562 37.582031 23.433594 37.570312 23.390625 C 37.558594 23.347656 37.539062 23.304688 37.515625 23.265625 C 37.492188 23.230469 37.460938 23.199219 37.425781 23.171875 C 37.390625 23.148438 37.351562 23.136719 37.308594 23.136719 L 36.179688 23.136719 L 36.179688 25.351562 L 35.726562 25.351562 L 35.726562 22.703125 L 37.355469 22.703125 C 37.449219 22.703125 37.539062 22.722656 37.621094 22.765625 C 37.707031 22.804688 37.785156 22.863281 37.84375 22.9375 C 37.910156 23.011719 37.960938 23.101562 37.996094 23.195312 C 38.039062 23.300781 38.058594 23.410156 38.058594 23.519531 C 38.058594 23.699219 38 23.875 37.898438 24.019531 C 37.851562 24.089844 37.789062 24.148438 37.722656 24.199219 C 37.65625 24.246094 37.585938 24.28125 37.507812 24.300781 L 38.039062 25.351562 L 37.542969 25.351562 Z M 36.796875 23.878906 "/>
<path style=" stroke:none;fill-rule:nonzero;fill:rgb(0%,0%,0%);fill-opacity:1;" d="M 38.542969 25.351562 L 38.542969 22.703125 L 40.558594 22.703125 L 40.558594 23.136719 L 39 23.136719 L 39 24.917969 L 40.558594 24.917969 L 40.558594 25.351562 Z M 40.535156 23.878906 L 40.535156 24.3125 L 39.195312 24.3125 L 39.195312 23.878906 Z M 40.535156 23.878906 "/>
<path style=" stroke:none;fill-rule:nonzero;fill:url(#linear0);" d="M 29.855469 23.851562 L 30.1875 24.019531 L 30.1875 23.902344 L 29.890625 23.746094 C 29.878906 23.78125 29.867188 23.816406 29.855469 23.851562 Z M 29.855469 23.851562 "/>
<path style=" stroke:none;fill-rule:nonzero;fill:url(#linear1);" d="M 17.480469 23.949219 L 17.035156 24.066406 L 17.035156 24.175781 L 17.332031 24.101562 L 17.035156 24.265625 L 17.035156 24.390625 L 17.480469 24.140625 Z M 17.480469 23.949219 "/>
<path style=" stroke:none;fill-rule:nonzero;fill:url(#linear2);" d="M 17.480469 23.757812 L 17.5 23.757812 L 17.035156 23.496094 L 17.035156 23.621094 L 17.480469 23.871094 Z M 17.480469 23.757812 "/>
<path style=" stroke:none;fill-rule:nonzero;fill:url(#linear3);" d="M 29.1875 23.421875 C 29.183594 23.410156 29.179688 23.394531 29.171875 23.382812 L 28.929688 23.257812 L 28.6875 23.257812 L 29.199219 23.519531 C 29.199219 23.484375 29.195312 23.453125 29.1875 23.421875 Z M 29.1875 23.421875 "/>
<path style=" stroke:none;fill-rule:nonzero;fill:url(#linear4);" d="M 27.078125 24.378906 L 27.34375 24.152344 L 27.34375 24.011719 L 27.042969 24.265625 C 27.058594 24.300781 27.070312 24.339844 27.078125 24.378906 Z M 27.078125 24.378906 "/>
<path style=" stroke:none;fill-rule:nonzero;fill:url(#linear5);" d="M 28.464844 23.320312 L 28.496094 23.757812 L 28.605469 23.757812 L 28.574219 23.3125 C 28.605469 23.300781 28.636719 23.28125 28.660156 23.257812 L 28.234375 23.257812 L 28.039062 23.425781 L 28.039062 23.566406 L 28.375 23.28125 C 28.402344 23.300781 28.433594 23.3125 28.464844 23.320312 Z M 28.464844 23.320312 "/>
<path style=" stroke:none;fill-rule:nonzero;fill:url(#linear6);" d="M 29.765625 22.984375 L 30.1875 22.925781 L 30.1875 22.816406 L 29.695312 22.886719 C 29.71875 22.917969 29.742188 22.949219 29.765625 22.984375 Z M 29.765625 22.984375 "/>
<path style=" stroke:none;fill-rule:nonzero;fill:url(#linear7);" d="M 10.664062 21.914062 C 10.75 21.898438 10.816406 21.832031 10.835938 21.746094 L 13.414062 21.699219 L 11.664062 22.585938 L 11.902344 22.585938 L 13.480469 21.789062 C 13.488281 21.792969 13.492188 21.800781 13.5 21.804688 L 13.003906 22.734375 C 13.035156 22.753906 13.0625 22.777344 13.089844 22.804688 L 13.1875 22.617188 L 13.164062 22.585938 L 13.207031 22.585938 L 13.59375 21.855469 C 13.613281 21.863281 13.628906 21.863281 13.648438 21.863281 C 13.707031 21.863281 13.765625 21.839844 13.808594 21.796875 L 15.4375 22.714844 L 15.496094 22.625 L 13.859375 21.699219 C 13.867188 21.679688 13.867188 21.660156 13.867188 21.640625 C 13.871094 21.636719 13.871094 21.628906 13.867188 21.625 L 18.554688 20.058594 C 18.574219 20.089844 18.601562 20.117188 18.636719 20.132812 L 18.011719 22.582031 L 18.09375 22.582031 C 18.105469 22.582031 18.113281 22.582031 18.121094 22.582031 L 18.738281 20.160156 C 18.863281 20.160156 18.960938 20.0625 18.960938 19.9375 C 18.960938 19.917969 18.957031 19.898438 18.953125 19.878906 L 20.085938 19.210938 L 20.097656 19.222656 L 18.339844 22.625 C 18.363281 22.632812 18.390625 22.644531 18.414062 22.65625 C 18.421875 22.660156 18.429688 22.664062 18.4375 22.667969 L 20.195312 19.269531 C 20.207031 19.273438 20.21875 19.277344 20.234375 19.277344 L 20.894531 22.582031 L 21 22.582031 L 20.339844 19.261719 C 20.375 19.242188 20.40625 19.214844 20.429688 19.179688 L 24.566406 20.597656 C 24.566406 20.605469 24.566406 20.613281 24.566406 20.617188 C 24.566406 20.664062 24.582031 20.710938 24.609375 20.746094 L 23.070312 22.578125 C 23.113281 22.582031 23.15625 22.585938 23.199219 22.59375 L 24.691406 20.816406 C 24.722656 20.832031 24.753906 20.839844 24.789062 20.839844 C 24.84375 20.839844 24.898438 20.816406 24.9375 20.777344 L 27.636719 22.585938 L 27.832031 22.585938 L 25.0625 20.734375 L 28.53125 21.539062 C 28.535156 21.628906 28.585938 21.703125 28.667969 21.738281 L 28.53125 22.585938 L 28.640625 22.585938 L 28.773438 21.753906 C 28.839844 21.75 28.898438 21.714844 28.9375 21.660156 L 31.679688 22.621094 L 30.890625 22.726562 L 30.890625 22.835938 L 31.707031 22.726562 C 31.730469 22.792969 31.789062 22.84375 31.863281 22.859375 C 31.933594 22.875 32.007812 22.855469 32.058594 22.804688 L 32.179688 22.886719 L 32.179688 22.757812 L 32.117188 22.714844 C 32.125 22.691406 32.128906 22.671875 32.128906 22.648438 L 32.179688 22.636719 L 32.179688 22.585938 L 32.386719 22.585938 L 34.402344 22.121094 C 34.433594 22.179688 34.488281 22.222656 34.550781 22.238281 L 34.558594 22.585938 L 34.667969 22.585938 L 34.660156 22.234375 C 34.710938 22.21875 34.753906 22.1875 34.785156 22.140625 L 36.085938 22.585938 L 36.421875 22.585938 L 34.820312 22.039062 C 34.820312 22.035156 34.820312 22.027344 34.820312 22.019531 C 34.820312 22.011719 34.820312 22.007812 34.820312 22 L 36.820312 21.261719 C 36.863281 21.324219 36.929688 21.359375 37.003906 21.359375 C 37.011719 21.359375 37.019531 21.359375 37.027344 21.359375 L 37.488281 22.605469 C 37.535156 22.613281 37.578125 22.625 37.617188 22.640625 L 37.128906 21.324219 C 37.179688 21.285156 37.214844 21.226562 37.222656 21.160156 C 37.230469 21.097656 37.207031 21.03125 37.160156 20.984375 L 37.445312 20.511719 L 37.449219 20.511719 L 37.636719 22.648438 C 37.648438 22.652344 37.660156 22.65625 37.671875 22.664062 C 37.699219 22.675781 37.726562 22.691406 37.75 22.707031 L 37.558594 20.496094 C 37.636719 20.464844 37.679688 20.378906 37.664062 20.296875 C 37.648438 20.214844 37.574219 20.152344 37.492188 20.152344 C 37.46875 20.152344 37.441406 20.15625 37.421875 20.167969 L 36.71875 19.347656 C 36.730469 19.328125 36.738281 19.304688 36.738281 19.28125 C 36.738281 19.210938 36.6875 19.152344 36.621094 19.136719 L 36.511719 18.488281 C 36.570312 18.449219 36.59375 18.375 36.570312 18.3125 C 36.546875 18.246094 36.476562 18.207031 36.410156 18.21875 C 36.339844 18.230469 36.289062 18.292969 36.289062 18.359375 C 36.289062 18.429688 36.335938 18.492188 36.40625 18.503906 L 36.515625 19.15625 C 36.503906 19.164062 36.496094 19.167969 36.488281 19.179688 L 36.007812 18.972656 C 36.007812 18.902344 35.960938 18.839844 35.890625 18.828125 C 35.824219 18.8125 35.753906 18.851562 35.726562 18.914062 C 35.699219 18.980469 35.722656 19.054688 35.78125 19.09375 C 35.839844 19.132812 35.917969 19.125 35.964844 19.074219 L 36.441406 19.277344 C 36.441406 19.277344 36.441406 19.277344 36.441406 19.28125 C 36.441406 19.328125 36.464844 19.371094 36.503906 19.398438 C 36.542969 19.425781 36.589844 19.433594 36.636719 19.417969 L 37.335938 20.238281 C 37.320312 20.265625 37.308594 20.296875 37.308594 20.332031 C 37.308594 20.375 37.324219 20.417969 37.355469 20.453125 L 37.066406 20.925781 C 37.046875 20.921875 37.023438 20.917969 37.003906 20.914062 C 36.949219 20.917969 36.894531 20.9375 36.855469 20.976562 L 34.71875 19.558594 C 34.722656 19.542969 34.726562 19.527344 34.726562 19.511719 C 34.726562 19.410156 34.644531 19.332031 34.546875 19.332031 C 34.515625 19.332031 34.480469 19.339844 34.453125 19.355469 L 31.402344 16.683594 C 31.417969 16.65625 31.429688 16.621094 31.429688 16.585938 C 31.429688 16.550781 31.417969 16.515625 31.402344 16.484375 L 32.433594 15.566406 C 32.449219 15.574219 32.464844 15.582031 32.480469 15.585938 C 32.496094 15.589844 32.511719 15.589844 32.527344 15.589844 C 32.589844 15.589844 32.648438 15.554688 32.679688 15.5 C 32.714844 15.445312 32.710938 15.375 32.679688 15.320312 C 32.628906 15.246094 32.53125 15.21875 32.449219 15.261719 C 32.367188 15.304688 32.332031 15.398438 32.363281 15.484375 L 31.332031 16.402344 C 31.296875 16.375 31.25 16.363281 31.207031 16.363281 C 31.195312 16.363281 31.1875 16.363281 31.175781 16.363281 L 29.761719 12.929688 C 29.789062 12.90625 29.808594 12.875 29.820312 12.839844 C 29.84375 12.742188 29.785156 12.644531 29.691406 12.621094 C 29.59375 12.59375 29.496094 12.652344 29.472656 12.75 C 29.464844 12.777344 29.464844 12.808594 29.472656 12.835938 L 26.417969 14.730469 C 26.355469 14.667969 26.261719 14.652344 26.179688 14.683594 C 26.097656 14.714844 26.046875 14.792969 26.042969 14.878906 C 26.039062 14.96875 26.085938 15.046875 26.164062 15.085938 L 25.347656 18.988281 C 25.324219 18.988281 25.296875 18.992188 25.269531 19.003906 L 21.855469 14.523438 C 21.902344 14.46875 21.917969 14.390625 21.898438 14.320312 C 21.875 14.25 21.820312 14.195312 21.75 14.175781 L 21.78125 13.484375 C 21.890625 13.460938 21.96875 13.359375 21.960938 13.246094 C 21.953125 13.136719 21.863281 13.046875 21.75 13.039062 C 21.636719 13.03125 21.539062 13.113281 21.519531 13.222656 C 21.5 13.335938 21.566406 13.441406 21.671875 13.476562 L 21.640625 14.171875 C 21.597656 14.179688 21.558594 14.199219 21.527344 14.230469 L 19.046875 12.773438 C 19.050781 12.753906 19.054688 12.734375 19.054688 12.710938 C 19.054688 12.589844 18.957031 12.492188 18.835938 12.492188 C 18.804688 12.492188 18.769531 12.496094 18.742188 12.511719 L 17.492188 10.972656 C 17.554688 10.890625 17.554688 10.777344 17.488281 10.699219 L 18.375 9.519531 C 18.394531 9.523438 18.414062 9.527344 18.433594 9.527344 C 18.496094 9.527344 18.554688 9.496094 18.585938 9.441406 C 18.617188 9.390625 18.621094 9.324219 18.59375 9.269531 L 19.894531 7.996094 C 19.953125 8.023438 20.023438 8.003906 20.066406 7.957031 C 20.105469 7.90625 20.109375 7.835938 20.074219 7.78125 C 20.039062 7.726562 19.972656 7.703125 19.910156 7.722656 C 19.851562 7.742188 19.808594 7.796875 19.808594 7.863281 C 19.808594 7.882812 19.8125 7.902344 19.820312 7.917969 L 18.519531 9.191406 C 18.507812 9.1875 18.5 9.183594 18.488281 9.179688 L 18.480469 7.363281 C 18.523438 7.34375 18.554688 7.304688 18.566406 7.257812 C 18.578125 7.210938 18.5625 7.164062 18.53125 7.128906 L 18.796875 6.582031 L 18.808594 6.582031 C 18.875 6.582031 18.9375 6.535156 18.953125 6.46875 C 18.964844 6.398438 18.933594 6.332031 18.867188 6.300781 C 18.804688 6.273438 18.730469 6.292969 18.6875 6.351562 C 18.648438 6.40625 18.652344 6.484375 18.699219 6.535156 L 18.433594 7.078125 L 18.421875 7.078125 C 18.351562 7.078125 18.292969 7.128906 18.277344 7.199219 C 18.265625 7.265625 18.304688 7.335938 18.367188 7.359375 L 18.378906 9.175781 C 18.304688 9.203125 18.253906 9.269531 18.253906 9.347656 C 18.253906 9.367188 18.257812 9.386719 18.265625 9.402344 L 14.449219 12.136719 C 14.410156 12.101562 14.359375 12.082031 14.308594 12.082031 C 14.1875 12.082031 14.085938 12.179688 14.085938 12.304688 C 14.085938 12.355469 14.105469 12.410156 14.144531 12.449219 L 11.554688 16.152344 C 11.53125 16.140625 11.503906 16.136719 11.480469 16.136719 C 11.375 16.136719 11.28125 16.210938 11.261719 16.3125 C 11.242188 16.417969 11.292969 16.519531 11.390625 16.5625 L 10.601562 21.480469 C 10.496094 21.488281 10.410156 21.570312 10.402344 21.675781 C 10.390625 21.78125 10.457031 21.878906 10.558594 21.910156 L 10.519531 22.585938 L 10.628906 22.585938 Z M 34.660156 19.648438 L 36.796875 21.058594 C 36.789062 21.082031 36.78125 21.109375 36.78125 21.132812 C 36.78125 21.140625 36.78125 21.148438 36.78125 21.15625 L 34.78125 21.890625 C 34.75 21.84375 34.703125 21.8125 34.648438 21.800781 L 34.605469 19.679688 C 34.625 19.671875 34.644531 19.664062 34.660156 19.648438 Z M 13.71875 21.433594 C 13.660156 21.414062 13.597656 21.417969 13.542969 21.449219 L 11.5625 19.324219 C 11.585938 19.289062 11.597656 19.246094 11.597656 19.203125 C 11.597656 19.203125 11.597656 19.199219 11.597656 19.195312 L 15.925781 17.917969 C 15.933594 17.933594 15.941406 17.945312 15.953125 17.957031 Z M 13.972656 15.304688 L 14.949219 14.792969 C 15.011719 14.859375 15.105469 14.882812 15.191406 14.851562 L 17.039062 17.59375 L 13.960938 15.433594 C 13.96875 15.40625 13.972656 15.382812 13.972656 15.355469 C 13.972656 15.339844 13.972656 15.320312 13.96875 15.304688 Z M 16.324219 17.859375 L 17.039062 17.859375 C 17.054688 17.921875 17.09375 17.972656 17.152344 18.003906 C 17.207031 18.03125 17.273438 18.035156 17.332031 18.011719 L 18.476562 19.660156 L 16.3125 17.898438 C 16.316406 17.886719 16.320312 17.871094 16.324219 17.859375 Z M 16.113281 17.585938 C 16.074219 17.585938 16.035156 17.59375 16.003906 17.613281 L 14.179688 15.71875 L 17.042969 17.726562 C 17.042969 17.734375 17.039062 17.742188 17.039062 17.75 L 16.324219 17.75 C 16.300781 17.652344 16.210938 17.585938 16.109375 17.585938 Z M 17.203125 17.589844 C 17.195312 17.589844 17.1875 17.59375 17.179688 17.597656 L 15.28125 14.792969 C 15.359375 14.703125 15.355469 14.570312 15.269531 14.488281 L 17.257812 11.050781 L 17.261719 11.050781 Z M 15.925781 17.6875 C 15.902344 17.722656 15.890625 17.765625 15.890625 17.804688 C 15.890625 17.808594 15.890625 17.8125 15.890625 17.816406 L 11.566406 19.09375 C 11.558594 19.078125 11.546875 19.0625 11.535156 19.050781 L 13.691406 15.570312 C 13.75 15.589844 13.8125 15.585938 13.867188 15.550781 Z M 18.519531 19.960938 L 13.835938 21.523438 C 13.828125 21.511719 13.820312 21.5 13.8125 21.492188 L 16.042969 18.015625 C 16.066406 18.023438 16.089844 18.027344 16.113281 18.027344 C 16.160156 18.027344 16.207031 18.011719 16.246094 17.984375 L 18.539062 19.847656 C 18.527344 19.878906 18.519531 19.910156 18.519531 19.941406 C 18.519531 19.949219 18.519531 19.953125 18.519531 19.960938 Z M 18.898438 19.789062 C 18.855469 19.746094 18.800781 19.722656 18.742188 19.722656 C 18.714844 19.722656 18.6875 19.726562 18.664062 19.734375 L 17.417969 17.949219 L 17.425781 17.9375 L 20.023438 19.027344 C 20.023438 19.035156 20.023438 19.046875 20.019531 19.058594 C 20.023438 19.078125 20.023438 19.097656 20.03125 19.117188 Z M 28.738281 21.316406 C 28.695312 21.316406 28.65625 21.332031 28.621094 21.359375 L 26.910156 20.003906 C 26.921875 19.976562 26.929688 19.945312 26.929688 19.914062 C 26.929688 19.894531 26.925781 19.878906 26.921875 19.863281 L 29.1875 18.675781 C 29.207031 18.699219 29.230469 18.71875 29.257812 18.730469 Z M 31.722656 22.519531 L 28.972656 21.554688 C 28.972656 21.546875 28.972656 21.542969 28.972656 21.535156 C 28.972656 21.449219 28.921875 21.371094 28.84375 21.335938 L 29.359375 18.75 C 29.378906 18.75 29.398438 18.746094 29.414062 18.742188 L 31.746094 22.484375 C 31.738281 22.496094 31.730469 22.507812 31.726562 22.519531 Z M 34.476562 19.675781 L 34.496094 19.679688 L 34.542969 21.804688 C 34.449219 21.832031 34.382812 21.914062 34.378906 22.011719 L 32.105469 22.539062 C 32.097656 22.527344 32.09375 22.519531 32.085938 22.511719 Z M 31.332031 16.765625 L 34.382812 19.441406 C 34.375 19.460938 34.367188 19.488281 34.367188 19.511719 C 34.367188 19.546875 34.378906 19.578125 34.394531 19.609375 L 32.007812 22.441406 C 31.984375 22.429688 31.960938 22.421875 31.9375 22.421875 L 31.285156 16.789062 C 31.300781 16.785156 31.320312 16.777344 31.332031 16.765625 Z M 31.175781 16.804688 L 31.828125 22.40625 L 29.511719 18.683594 C 29.582031 18.609375 29.59375 18.5 29.539062 18.414062 L 31.097656 16.777344 C 31.125 16.789062 31.152344 16.800781 31.179688 16.804688 Z M 29.527344 12.929688 C 29.546875 12.949219 29.570312 12.960938 29.597656 12.96875 C 29.613281 12.972656 29.628906 12.972656 29.640625 12.972656 L 29.65625 12.972656 L 31.074219 16.410156 C 31.050781 16.425781 31.035156 16.445312 31.019531 16.46875 L 26.480469 14.910156 C 26.480469 14.902344 26.480469 14.898438 26.480469 14.890625 C 26.480469 14.867188 26.476562 14.84375 26.46875 14.824219 Z M 26.445312 15.007812 L 30.984375 16.570312 C 30.984375 16.578125 30.984375 16.582031 30.984375 16.589844 C 30.984375 16.628906 30.996094 16.671875 31.019531 16.707031 L 29.460938 18.34375 C 29.425781 18.324219 29.390625 18.316406 29.351562 18.3125 C 29.316406 18.316406 29.285156 18.324219 29.253906 18.335938 L 26.441406 15.015625 Z M 26.355469 15.085938 L 29.171875 18.402344 C 29.144531 18.441406 29.128906 18.484375 29.128906 18.53125 C 29.128906 18.546875 29.132812 18.566406 29.136719 18.582031 L 26.871094 19.765625 C 26.835938 19.730469 26.789062 19.703125 26.738281 19.695312 L 26.332031 15.097656 Z M 26.238281 15.257812 L 26.632812 19.707031 C 26.597656 19.71875 26.566406 19.738281 26.539062 19.765625 L 25.574219 19.261719 C 25.578125 19.242188 25.578125 19.226562 25.578125 19.207031 C 25.578125 19.125 25.53125 19.046875 25.457031 19.011719 Z M 25.324219 19.425781 C 25.335938 19.425781 25.34375 19.429688 25.355469 19.429688 C 25.417969 19.429688 25.476562 19.402344 25.519531 19.355469 L 26.492188 19.859375 C 26.488281 19.875 26.484375 19.894531 26.484375 19.910156 C 26.484375 20.035156 26.585938 20.132812 26.707031 20.132812 C 26.757812 20.132812 26.804688 20.117188 26.839844 20.085938 L 28.53125 21.425781 L 25.003906 20.609375 C 25.003906 20.539062 24.96875 20.476562 24.914062 20.433594 Z M 21.671875 14.609375 L 21.683594 14.609375 C 21.710938 14.609375 21.742188 14.601562 21.769531 14.589844 L 25.183594 19.070312 C 25.144531 19.117188 25.128906 19.175781 25.136719 19.234375 C 25.144531 19.296875 25.175781 19.347656 25.222656 19.382812 L 24.816406 20.398438 C 24.804688 20.398438 24.792969 20.398438 24.785156 20.398438 C 24.710938 20.398438 24.640625 20.433594 24.597656 20.496094 L 20.460938 19.078125 C 20.460938 19.070312 20.460938 19.0625 20.460938 19.058594 C 20.460938 18.980469 20.417969 18.910156 20.351562 18.871094 Z M 21.546875 14.5625 C 21.550781 14.566406 21.558594 14.570312 21.566406 14.574219 L 20.25 18.835938 L 20.238281 18.835938 C 20.171875 18.835938 20.105469 18.867188 20.0625 18.925781 L 17.464844 17.835938 C 17.46875 17.828125 17.46875 17.816406 17.464844 17.804688 C 17.464844 17.773438 17.460938 17.742188 17.449219 17.714844 Z M 18.820312 12.933594 L 18.832031 12.933594 C 18.890625 12.933594 18.949219 12.90625 18.988281 12.867188 L 21.46875 14.324219 C 21.464844 14.34375 21.460938 14.363281 21.460938 14.382812 C 21.460938 14.414062 21.464844 14.445312 21.480469 14.472656 L 17.382812 17.628906 C 17.378906 17.625 17.371094 17.617188 17.363281 17.613281 Z M 18.660156 12.578125 C 18.632812 12.617188 18.617188 12.664062 18.617188 12.710938 C 18.617188 12.789062 18.65625 12.859375 18.71875 12.898438 L 17.308594 17.4375 L 17.367188 11.050781 C 17.382812 11.050781 17.398438 11.046875 17.410156 11.039062 Z M 18.179688 9.601562 L 17.398438 10.636719 C 17.371094 10.625 17.34375 10.621094 17.3125 10.621094 C 17.246094 10.621094 17.183594 10.648438 17.140625 10.703125 C 17.101562 10.753906 17.082031 10.820312 17.097656 10.886719 L 14.859375 11.976562 Z M 14.53125 12.308594 C 14.53125 12.292969 14.527344 12.277344 14.523438 12.261719 L 17.148438 10.980469 C 17.152344 10.984375 17.15625 10.992188 17.164062 10.996094 L 15.171875 14.433594 C 15.152344 14.425781 15.132812 14.421875 15.113281 14.421875 C 15.105469 14.421875 15.101562 14.421875 15.09375 14.421875 L 14.429688 12.488281 C 14.492188 12.449219 14.53125 12.378906 14.53125 12.304688 Z M 14.324219 12.527344 L 14.328125 12.527344 L 14.992188 14.460938 C 14.929688 14.5 14.890625 14.570312 14.890625 14.644531 C 14.890625 14.664062 14.894531 14.679688 14.898438 14.695312 L 13.921875 15.210938 C 13.898438 15.1875 13.875 15.167969 13.847656 15.15625 Z M 14.210938 12.542969 L 13.738281 15.136719 C 13.625 15.144531 13.535156 15.242188 13.535156 15.359375 C 13.535156 15.371094 13.535156 15.382812 13.539062 15.394531 L 11.652344 16.222656 C 11.648438 16.222656 11.648438 16.21875 11.644531 16.214844 Z M 11.523438 16.578125 C 11.625 16.558594 11.699219 16.46875 11.699219 16.363281 C 11.699219 16.351562 11.699219 16.339844 11.695312 16.324219 L 13.582031 15.496094 C 13.585938 15.503906 13.589844 15.507812 13.597656 15.515625 L 11.441406 18.996094 L 11.433594 18.996094 Z M 11.390625 17.238281 L 11.328125 18.988281 C 11.238281 19.007812 11.171875 19.082031 11.15625 19.167969 C 11.140625 19.257812 11.183594 19.347656 11.261719 19.394531 L 10.800781 20.914062 Z M 11.363281 19.425781 L 11.375 19.425781 C 11.410156 19.425781 11.449219 19.417969 11.480469 19.398438 L 13.460938 21.523438 C 13.445312 21.542969 13.4375 21.566406 13.429688 21.59375 L 10.832031 21.640625 C 10.816406 21.585938 10.78125 21.539062 10.734375 21.507812 Z M 11.363281 19.425781 "/>
<path style=" stroke:none;fill-rule:nonzero;fill:url(#linear8);" d="M 17.71875 23.722656 C 17.675781 23.722656 17.632812 23.734375 17.597656 23.757812 L 17.875 23.757812 L 18.113281 23.292969 C 18.109375 23.285156 18.097656 23.277344 18.089844 23.273438 C 18.074219 23.261719 18.058594 23.257812 18.042969 23.257812 L 18.011719 23.257812 L 17.886719 23.496094 L 17.949219 23.257812 L 17.839844 23.257812 Z M 17.71875 23.722656 "/>
<path style=" stroke:none;fill-rule:nonzero;fill:url(#linear9);" d="M 35.289062 24.210938 L 35.605469 24.074219 L 35.605469 23.957031 L 35.289062 24.09375 Z M 35.289062 24.210938 "/>
<path style=" stroke:none;fill-rule:nonzero;fill:url(#linear10);" d="M 29.910156 23.460938 L 30.1875 23.519531 L 30.1875 23.410156 L 29.898438 23.347656 C 29.90625 23.386719 29.910156 23.421875 29.910156 23.460938 Z M 29.910156 23.460938 "/>
<path style=" stroke:none;fill-rule:nonzero;fill:url(#linear11);" d="M 29.089844 23.273438 C 29.078125 23.261719 29.058594 23.257812 29.042969 23.257812 L 28.972656 23.257812 L 29.109375 23.285156 C 29.101562 23.28125 29.097656 23.277344 29.089844 23.273438 Z M 29.089844 23.273438 "/>
<path style=" stroke:none;fill-rule:nonzero;fill:url(#linear12);" d="M 37.386719 25.304688 C 37.3125 25.34375 37.269531 25.417969 37.269531 25.5 L 34.867188 26.140625 C 34.839844 26.085938 34.789062 26.046875 34.730469 26.03125 L 34.722656 25.46875 L 34.621094 25.46875 L 34.621094 26.039062 C 34.578125 26.050781 34.539062 26.074219 34.507812 26.109375 L 33.269531 25.476562 L 33.058594 25.476562 L 33.058594 25.367188 L 32.878906 25.269531 L 32.878906 25.390625 L 34.464844 26.199219 C 34.460938 26.210938 34.460938 26.21875 34.460938 26.230469 L 29.035156 27.121094 C 29 27.042969 28.921875 26.992188 28.835938 26.992188 L 28.828125 26.992188 L 28.648438 24.433594 L 28.539062 24.433594 L 28.722656 27.023438 C 28.6875 27.042969 28.660156 27.070312 28.640625 27.105469 L 25.386719 25.945312 C 25.386719 25.9375 25.386719 25.933594 25.386719 25.925781 C 25.382812 25.890625 25.375 25.859375 25.363281 25.828125 L 25.8125 25.445312 L 25.648438 25.445312 L 25.292969 25.746094 C 25.242188 25.710938 25.179688 25.695312 25.121094 25.707031 C 25.0625 25.71875 25.007812 25.753906 24.976562 25.804688 L 23.566406 25.347656 C 23.550781 25.355469 23.539062 25.363281 23.523438 25.367188 C 23.488281 25.382812 23.449219 25.398438 23.410156 25.410156 L 24.945312 25.90625 C 24.945312 25.914062 24.945312 25.917969 24.945312 25.921875 C 24.945312 25.964844 24.957031 26.003906 24.976562 26.039062 L 21.617188 29.46875 C 21.597656 29.457031 21.574219 29.449219 21.554688 29.441406 L 21.421875 24.898438 C 21.472656 24.886719 21.515625 24.851562 21.546875 24.804688 L 21.753906 24.871094 C 21.71875 24.828125 21.691406 24.777344 21.664062 24.730469 L 21.578125 24.703125 C 21.578125 24.699219 21.578125 24.691406 21.578125 24.6875 C 21.578125 24.640625 21.5625 24.597656 21.535156 24.558594 L 21.566406 24.523438 C 21.554688 24.480469 21.539062 24.441406 21.53125 24.398438 L 21.453125 24.488281 C 21.425781 24.476562 21.398438 24.46875 21.367188 24.46875 L 21.128906 23.257812 L 21.019531 23.257812 L 21.261719 24.488281 C 21.21875 24.511719 21.179688 24.546875 21.160156 24.59375 L 20.617188 24.480469 L 20.617188 24.59375 L 21.140625 24.699219 C 21.140625 24.707031 21.140625 24.71875 21.140625 24.730469 L 20.617188 24.972656 L 20.617188 25.09375 L 21.1875 24.828125 L 21.195312 24.835938 L 18.609375 28.769531 C 18.511719 28.734375 18.40625 28.769531 18.351562 28.855469 L 15.09375 27.714844 C 15.09375 27.710938 15.09375 27.703125 15.09375 27.695312 C 15.09375 27.683594 15.09375 27.667969 15.089844 27.65625 L 19.921875 25.414062 L 19.921875 25.292969 L 15.046875 27.554688 L 16.625 25.472656 L 16.492188 25.472656 L 14.960938 27.492188 C 14.902344 27.464844 14.835938 27.46875 14.777344 27.496094 C 14.71875 27.523438 14.675781 27.574219 14.660156 27.636719 L 11.4375 27.554688 C 11.4375 27.550781 11.4375 27.550781 11.4375 27.546875 L 15.121094 25.472656 L 14.902344 25.472656 L 11.386719 27.453125 C 11.367188 27.429688 11.34375 27.414062 11.316406 27.402344 L 11.585938 25.757812 C 11.703125 25.746094 11.789062 25.652344 11.789062 25.535156 L 12.601562 25.324219 L 12.550781 25.226562 L 11.761719 25.429688 C 11.75 25.410156 11.734375 25.390625 11.714844 25.375 L 12.179688 24.5 L 12.121094 24.382812 L 11.617188 25.320312 C 11.601562 25.316406 11.582031 25.3125 11.566406 25.3125 C 11.546875 25.3125 11.523438 25.316406 11.503906 25.324219 L 11.503906 25.46875 L 11.355469 25.46875 C 11.351562 25.492188 11.347656 25.511719 11.347656 25.535156 C 11.347656 25.621094 11.398438 25.703125 11.480469 25.738281 L 11.226562 27.261719 L 10.949219 25.46875 L 10.839844 25.46875 L 11.140625 27.398438 C 11.042969 27.4375 10.988281 27.542969 11.007812 27.644531 C 11.03125 27.75 11.121094 27.824219 11.226562 27.824219 C 11.246094 27.824219 11.265625 27.820312 11.285156 27.8125 L 13.074219 30.972656 C 12.984375 31.046875 12.96875 31.175781 13.03125 31.269531 C 13.097656 31.363281 13.226562 31.394531 13.324219 31.335938 L 15.976562 34.40625 C 15.910156 34.503906 15.933594 34.636719 16.027344 34.707031 C 16.121094 34.777344 16.257812 34.761719 16.332031 34.667969 L 21.070312 36.792969 C 21.070312 36.804688 21.066406 36.816406 21.066406 36.828125 C 21.066406 36.941406 21.152344 37.035156 21.265625 37.046875 C 21.375 37.0625 21.480469 36.988281 21.503906 36.878906 L 26.101562 36.742188 C 26.128906 36.847656 26.234375 36.917969 26.34375 36.902344 C 26.453125 36.886719 26.535156 36.792969 26.535156 36.679688 L 28.875 36.101562 C 28.925781 36.199219 29.039062 36.242188 29.144531 36.207031 C 29.246094 36.167969 29.304688 36.0625 29.285156 35.953125 L 31.625 34.835938 C 31.667969 34.886719 31.726562 34.914062 31.792969 34.914062 C 31.917969 34.914062 32.015625 34.816406 32.015625 34.691406 C 32.015625 34.652344 32.003906 34.613281 31.984375 34.582031 L 33.875 32.707031 C 33.910156 32.726562 33.949219 32.738281 33.992188 32.738281 C 34.113281 32.738281 34.210938 32.640625 34.210938 32.519531 C 34.210938 32.46875 34.191406 32.417969 34.160156 32.378906 L 35.933594 29.90625 C 35.960938 29.917969 35.988281 29.921875 36.015625 29.921875 C 36.113281 29.921875 36.199219 29.859375 36.226562 29.765625 C 36.253906 29.671875 36.21875 29.570312 36.136719 29.515625 L 37.46875 25.71875 L 37.488281 25.71875 C 37.609375 25.71875 37.710938 25.621094 37.710938 25.496094 C 37.710938 25.488281 37.710938 25.480469 37.710938 25.472656 L 37.46875 25.472656 Z M 29.054688 27.222656 L 34.472656 26.339844 C 34.484375 26.359375 34.496094 26.378906 34.511719 26.394531 L 32.515625 29.253906 C 32.488281 29.242188 32.460938 29.238281 32.4375 29.238281 C 32.378906 29.238281 32.324219 29.261719 32.28125 29.300781 L 29.039062 27.300781 C 29.050781 27.277344 29.054688 27.25 29.054688 27.222656 Z M 28.96875 27.386719 L 32.226562 29.394531 C 32.21875 29.414062 32.214844 29.4375 32.214844 29.460938 C 32.214844 29.492188 32.222656 29.523438 32.234375 29.554688 L 30.300781 31.140625 C 30.261719 31.113281 30.214844 31.097656 30.167969 31.097656 C 30.164062 31.097656 30.15625 31.097656 30.152344 31.097656 L 28.914062 27.421875 C 28.933594 27.410156 28.953125 27.402344 28.96875 27.386719 Z M 29.382812 33.679688 L 27.4375 34.671875 C 27.394531 34.621094 27.335938 34.59375 27.269531 34.59375 C 27.234375 34.59375 27.199219 34.601562 27.167969 34.621094 L 25.871094 33.179688 C 25.894531 33.144531 25.90625 33.101562 25.90625 33.058594 C 25.90625 32.964844 25.847656 32.882812 25.761719 32.851562 L 25.910156 31.460938 C 25.953125 31.453125 25.996094 31.433594 26.027344 31.402344 L 29.386719 33.558594 C 29.378906 33.582031 29.375 33.605469 29.375 33.628906 C 29.375 33.644531 29.378906 33.664062 29.382812 33.679688 Z M 25.800781 31.453125 L 25.652344 32.84375 C 25.617188 32.847656 25.582031 32.859375 25.554688 32.882812 L 21.789062 29.820312 L 25.660156 31.222656 C 25.660156 31.230469 25.660156 31.238281 25.660156 31.246094 C 25.65625 31.335938 25.714844 31.421875 25.800781 31.453125 Z M 25.546875 33.230469 L 24.707031 35.078125 C 24.695312 35.078125 24.679688 35.074219 24.667969 35.074219 C 24.613281 35.078125 24.5625 35.097656 24.519531 35.136719 L 21.492188 33.105469 C 21.492188 33.101562 21.496094 33.09375 21.5 33.089844 L 25.472656 33.113281 C 25.484375 33.160156 25.511719 33.203125 25.546875 33.230469 Z M 25.644531 33.277344 C 25.660156 33.28125 25.671875 33.28125 25.683594 33.28125 C 25.722656 33.28125 25.757812 33.273438 25.789062 33.253906 L 27.085938 34.695312 C 27.0625 34.726562 27.050781 34.765625 27.050781 34.804688 L 24.867188 35.207031 C 24.851562 35.175781 24.832031 35.148438 24.804688 35.128906 Z M 26.085938 31.316406 L 26.089844 31.304688 L 29.953125 31.363281 C 29.96875 31.425781 30.007812 31.476562 30.0625 31.507812 L 29.59375 33.40625 C 29.539062 33.410156 29.484375 33.429688 29.445312 33.46875 Z M 28.71875 27.402344 C 28.746094 27.417969 28.773438 27.425781 28.804688 27.429688 L 30.046875 31.128906 C 30.003906 31.160156 29.96875 31.203125 29.953125 31.257812 L 26.089844 31.199219 C 26.082031 31.164062 26.066406 31.132812 26.046875 31.105469 Z M 25.054688 26.113281 C 25.089844 26.132812 25.128906 26.144531 25.167969 26.144531 C 25.242188 26.144531 25.308594 26.109375 25.351562 26.046875 L 28.613281 27.207031 C 28.613281 27.207031 28.613281 27.210938 28.613281 27.214844 C 28.613281 27.25 28.625 27.289062 28.644531 27.324219 L 25.960938 31.042969 C 25.933594 31.03125 25.90625 31.027344 25.878906 31.027344 C 25.804688 31.027344 25.734375 31.0625 25.695312 31.125 L 21.726562 29.683594 C 21.726562 29.675781 21.726562 29.671875 21.726562 29.664062 C 21.726562 29.621094 21.714844 29.582031 21.695312 29.546875 Z M 21.640625 29.835938 L 25.484375 32.964844 C 25.480469 32.976562 25.476562 32.988281 25.472656 33.003906 L 21.5 32.976562 C 21.480469 32.902344 21.425781 32.839844 21.351562 32.816406 L 21.546875 29.878906 C 21.582031 29.875 21.613281 29.859375 21.640625 29.835938 Z M 21.289062 24.890625 C 21.296875 24.894531 21.304688 24.898438 21.3125 24.898438 L 21.449219 29.445312 C 21.390625 29.460938 21.339844 29.503906 21.3125 29.558594 L 18.757812 28.972656 C 18.753906 28.917969 18.734375 28.867188 18.695312 28.828125 Z M 19.082031 34.324219 C 19.03125 34.34375 18.988281 34.386719 18.964844 34.4375 L 17.96875 34.25 C 17.964844 34.167969 17.910156 34.09375 17.835938 34.058594 L 18.53125 29.394531 Z M 18.585938 34.476562 L 17.804688 34.476562 C 17.867188 34.460938 17.921875 34.417969 17.949219 34.355469 Z M 18.371094 29.125 C 18.394531 29.152344 18.421875 29.171875 18.449219 29.183594 L 17.722656 34.042969 C 17.71875 34.042969 17.710938 34.042969 17.703125 34.042969 L 16.027344 30.558594 C 16.078125 30.515625 16.109375 30.453125 16.109375 30.386719 C 16.109375 30.371094 16.105469 30.351562 16.101562 30.335938 Z M 15.058594 27.816406 L 18.316406 28.957031 C 18.316406 28.964844 18.316406 28.972656 18.316406 28.976562 C 18.316406 28.996094 18.316406 29.011719 18.324219 29.03125 L 16.050781 30.242188 C 16.011719 30.195312 15.953125 30.171875 15.890625 30.171875 C 15.882812 30.167969 15.871094 30.167969 15.863281 30.171875 L 15 27.878906 C 15.023438 27.863281 15.042969 27.839844 15.058594 27.816406 Z M 11.433594 27.664062 L 14.660156 27.742188 C 14.683594 27.84375 14.773438 27.917969 14.875 27.917969 C 14.882812 27.917969 14.890625 27.917969 14.898438 27.917969 L 15.761719 30.214844 C 15.75 30.21875 15.738281 30.230469 15.730469 30.238281 L 11.433594 27.671875 C 11.433594 27.667969 11.433594 27.664062 11.4375 27.664062 Z M 13.222656 30.914062 C 13.203125 30.914062 13.179688 30.917969 13.160156 30.925781 L 11.375 27.765625 L 11.378906 27.761719 L 15.671875 30.328125 C 15.667969 30.347656 15.664062 30.367188 15.664062 30.390625 L 13.410156 31.019531 C 13.371094 30.953125 13.300781 30.914062 13.222656 30.914062 Z M 16.054688 34.335938 L 13.402344 31.265625 C 13.429688 31.226562 13.441406 31.183594 13.441406 31.136719 L 15.699219 30.507812 C 15.730469 30.5625 15.785156 30.597656 15.847656 30.609375 L 16.085938 34.324219 C 16.074219 34.324219 16.066406 34.328125 16.054688 34.335938 Z M 16.191406 34.316406 L 15.960938 30.667969 L 17.605469 34.09375 C 17.5625 34.132812 17.53125 34.1875 17.527344 34.246094 L 16.355469 34.441406 C 16.324219 34.375 16.265625 34.328125 16.195312 34.3125 Z M 17.691406 34.476562 L 16.800781 34.476562 L 17.542969 34.355469 C 17.570312 34.414062 17.625 34.460938 17.691406 34.476562 Z M 16.40625 34.585938 L 18.949219 34.585938 C 18.964844 34.652344 19.011719 34.707031 19.074219 34.734375 C 19.136719 34.761719 19.207031 34.757812 19.269531 34.726562 L 21.070312 36.671875 Z M 21.234375 36.617188 C 21.214844 36.621094 21.199219 36.628906 21.179688 36.636719 L 19.347656 34.652344 C 19.390625 34.589844 19.394531 34.507812 19.363281 34.441406 C 19.332031 34.371094 19.269531 34.324219 19.191406 34.3125 L 18.617188 29.191406 L 21.121094 32.882812 C 21.082031 32.921875 21.0625 32.976562 21.0625 33.03125 C 21.0625 33.132812 21.132812 33.21875 21.230469 33.246094 Z M 21.246094 32.8125 C 21.234375 32.816406 21.222656 32.820312 21.210938 32.824219 L 18.703125 29.125 C 18.714844 29.113281 18.722656 29.097656 18.734375 29.082031 L 21.289062 29.664062 C 21.292969 29.757812 21.351562 29.839844 21.441406 29.871094 Z M 21.460938 36.691406 C 21.429688 36.65625 21.386719 36.628906 21.339844 36.617188 L 21.339844 33.246094 C 21.375 33.234375 21.40625 33.21875 21.433594 33.195312 L 24.460938 35.21875 C 24.453125 35.242188 24.445312 35.269531 24.445312 35.292969 C 24.445312 35.308594 24.449219 35.320312 24.449219 35.332031 Z M 26.097656 36.632812 L 21.554688 36.765625 L 24.496094 35.433594 C 24.570312 35.527344 24.703125 35.542969 24.796875 35.476562 L 26.113281 36.585938 C 26.109375 36.601562 26.101562 36.617188 26.101562 36.632812 Z M 26.316406 36.460938 C 26.269531 36.460938 26.222656 36.472656 26.1875 36.5 L 24.867188 35.394531 C 24.878906 35.367188 24.886719 35.339844 24.886719 35.3125 L 27.070312 34.90625 C 27.082031 34.933594 27.101562 34.960938 27.125 34.980469 L 26.363281 36.464844 C 26.347656 36.460938 26.328125 36.460938 26.3125 36.460938 Z M 26.484375 36.539062 C 26.476562 36.53125 26.46875 36.523438 26.460938 36.515625 L 27.222656 35.03125 C 27.238281 35.035156 27.253906 35.035156 27.273438 35.035156 C 27.351562 35.035156 27.421875 34.996094 27.460938 34.929688 L 28.851562 35.339844 C 28.851562 35.339844 28.851562 35.34375 28.851562 35.347656 C 28.851562 35.363281 28.851562 35.378906 28.855469 35.394531 Z M 29.019531 35.785156 C 28.921875 35.808594 28.851562 35.898438 28.851562 35.996094 L 26.800781 36.503906 L 28.902344 35.488281 C 28.929688 35.523438 28.972656 35.550781 29.015625 35.5625 Z M 29.074219 35.125 C 28.996094 35.125 28.921875 35.167969 28.882812 35.234375 L 27.492188 34.824219 C 27.492188 34.824219 27.492188 34.816406 27.492188 34.816406 C 27.492188 34.796875 27.492188 34.78125 27.488281 34.765625 L 29.429688 33.78125 C 29.445312 33.796875 29.464844 33.8125 29.484375 33.824219 L 29.082031 35.128906 Z M 29.242188 35.855469 C 29.210938 35.820312 29.171875 35.796875 29.128906 35.785156 L 29.128906 35.558594 C 29.222656 35.535156 29.292969 35.449219 29.292969 35.347656 L 31.3125 34.863281 Z M 31.574219 34.691406 L 29.269531 35.242188 C 29.25 35.207031 29.222656 35.179688 29.1875 35.15625 L 29.589844 33.851562 L 29.597656 33.851562 C 29.664062 33.851562 29.726562 33.820312 29.769531 33.773438 L 31.578125 34.648438 C 31.574219 34.660156 31.574219 34.675781 31.574219 34.691406 Z M 31.628906 34.550781 L 29.816406 33.675781 C 29.835938 33.578125 29.789062 33.484375 29.703125 33.4375 L 30.171875 31.535156 C 30.1875 31.535156 30.203125 31.535156 30.214844 31.53125 L 31.65625 34.523438 C 31.644531 34.53125 31.632812 34.542969 31.625 34.550781 Z M 31.769531 34.476562 C 31.761719 34.472656 31.757812 34.472656 31.75 34.476562 L 30.3125 31.480469 C 30.363281 31.441406 30.390625 31.378906 30.390625 31.3125 C 30.390625 31.28125 30.382812 31.246094 30.371094 31.21875 L 32.304688 29.640625 C 32.320312 29.652344 32.335938 29.660156 32.355469 29.667969 Z M 33.800781 32.628906 L 31.90625 34.503906 C 31.898438 34.5 31.886719 34.492188 31.875 34.488281 L 32.464844 29.679688 L 32.484375 29.675781 L 33.84375 32.351562 C 33.765625 32.421875 33.746094 32.539062 33.800781 32.628906 Z M 34.074219 32.3125 C 34.046875 32.300781 34.019531 32.296875 33.992188 32.296875 C 33.976562 32.296875 33.960938 32.296875 33.941406 32.300781 L 32.578125 29.625 C 32.609375 29.597656 32.632812 29.566406 32.644531 29.527344 L 35.796875 29.738281 C 35.804688 29.777344 35.820312 29.8125 35.847656 29.84375 Z M 35.808594 29.632812 L 32.65625 29.417969 C 32.648438 29.378906 32.628906 29.34375 32.605469 29.316406 L 34.601562 26.457031 C 34.625 26.464844 34.652344 26.472656 34.679688 26.472656 C 34.6875 26.472656 34.699219 26.472656 34.707031 26.472656 L 35.886719 29.519531 C 35.851562 29.546875 35.820312 29.585938 35.808594 29.632812 Z M 36.039062 29.480469 C 36.03125 29.480469 36.023438 29.480469 36.019531 29.480469 C 36.007812 29.480469 36 29.480469 35.992188 29.484375 L 34.808594 26.433594 C 34.867188 26.390625 34.902344 26.324219 34.902344 26.253906 C 34.902344 26.25 34.902344 26.25 34.902344 26.25 L 37.300781 25.609375 C 37.316406 25.640625 37.339844 25.664062 37.371094 25.683594 Z M 36.039062 29.480469 "/>
<path style=" stroke:none;fill-rule:nonzero;fill:url(#linear13);" d="M 17.035156 24.753906 L 17.035156 24.933594 L 17.480469 24.347656 L 17.480469 24.167969 Z M 17.035156 24.753906 "/>
<path style=" stroke:none;fill-rule:nonzero;fill:url(#linear14);" d="M 15.121094 24.671875 L 16.34375 24.355469 L 16.34375 24.246094 L 15.121094 24.5625 Z M 15.121094 24.671875 "/>
<path style=" stroke:none;fill-rule:nonzero;fill:url(#linear15);" d="M 18.679688 24.152344 C 18.667969 24.164062 18.65625 24.175781 18.644531 24.1875 L 19.921875 24.449219 L 19.921875 24.335938 L 18.722656 24.09375 C 18.710938 24.113281 18.695312 24.132812 18.679688 24.152344 Z M 18.679688 24.152344 "/>
<path style=" stroke:none;fill-rule:nonzero;fill:url(#linear16);" d="M 15.121094 25.46875 L 16.34375 24.78125 L 16.34375 24.65625 L 15.121094 25.347656 Z M 15.121094 25.46875 "/>
<path style=" stroke:none;fill-rule:nonzero;fill:url(#linear17);" d="M 32.878906 24.097656 L 33.0625 24.136719 L 33.0625 24.023438 L 32.878906 23.984375 Z M 32.878906 24.097656 "/>
<path style=" stroke:none;fill-rule:nonzero;fill:url(#linear18);" d="M 22.410156 23.492188 C 22.347656 23.554688 22.296875 23.625 22.261719 23.699219 L 22.5 23.417969 C 22.46875 23.441406 22.4375 23.464844 22.410156 23.492188 Z M 22.410156 23.492188 "/>
<path style=" stroke:none;fill-rule:nonzero;fill:url(#linear19);" d="M 14.414062 24.742188 L 13.222656 25.050781 L 13.273438 25.148438 L 14.414062 24.855469 Z M 14.414062 24.742188 "/>
<path style=" stroke:none;fill-rule:nonzero;fill:url(#linear20);" d="M 16.054688 23.066406 L 16.34375 23.226562 L 16.34375 23.105469 L 16.117188 22.976562 Z M 16.054688 23.066406 "/>
<path style=" stroke:none;fill-rule:nonzero;fill:url(#linear21);" d="M 34.441406 24.433594 C 34.445312 24.53125 34.511719 24.617188 34.609375 24.640625 L 34.609375 24.800781 L 34.714844 24.800781 L 34.714844 24.636719 C 34.808594 24.613281 34.878906 24.53125 34.882812 24.433594 Z M 34.441406 24.433594 "/>
<path style=" stroke:none;fill-rule:nonzero;fill:url(#linear22);" d="M 30.890625 23.667969 L 31.308594 23.757812 L 31.824219 23.757812 L 30.890625 23.558594 Z M 30.890625 23.667969 "/>
<path style=" stroke:none;fill-rule:nonzero;fill:url(#linear23);" d="M 12.519531 23.761719 C 12.539062 23.761719 12.558594 23.757812 12.574219 23.746094 C 12.582031 23.742188 12.585938 23.734375 12.59375 23.730469 L 12.65625 23.609375 C 12.664062 23.582031 12.667969 23.550781 12.667969 23.519531 C 12.667969 23.488281 12.664062 23.457031 12.652344 23.425781 L 12.644531 23.402344 L 12.453125 23.761719 Z M 12.519531 23.761719 "/>
<path style=" stroke:none;fill-rule:nonzero;fill:url(#linear24);" d="M 32.183594 24.917969 L 31.234375 24.433594 L 30.996094 24.433594 L 32.183594 25.039062 Z M 32.183594 24.917969 "/>
<path style=" stroke:none;fill-rule:nonzero;fill:url(#linear25);" d="M 37.355469 23.273438 C 37.339844 23.261719 37.324219 23.257812 37.304688 23.257812 L 37.21875 23.257812 L 36.300781 23.65625 L 36.300781 23.773438 L 37.386719 23.304688 C 37.375 23.292969 37.367188 23.28125 37.355469 23.273438 Z M 37.355469 23.273438 "/>
<path style=" stroke:none;fill-rule:nonzero;fill:url(#linear26);" d="M 32.878906 23.332031 L 33.0625 23.449219 L 33.0625 23.320312 L 32.878906 23.203125 Z M 32.878906 23.332031 "/>
<path style=" stroke:none;fill-rule:nonzero;fill:url(#linear27);" d="M 34.59375 23.757812 L 34.699219 23.757812 L 34.6875 23.257812 L 34.578125 23.257812 Z M 34.59375 23.757812 "/>
<path style=" stroke:none;fill-rule:nonzero;fill:url(#linear28);" d="M 10.628906 23.414062 C 10.710938 23.378906 10.761719 23.300781 10.761719 23.210938 C 10.761719 23.195312 10.761719 23.179688 10.757812 23.164062 L 10.808594 23.136719 L 10.808594 23.015625 L 10.707031 23.066406 C 10.679688 23.035156 10.644531 23.015625 10.605469 23.003906 L 10.617188 22.816406 L 10.363281 23.339844 C 10.398438 23.390625 10.457031 23.425781 10.519531 23.429688 L 10.808594 25.292969 L 10.808594 24.585938 Z M 10.628906 23.414062 "/>
</g>
</svg>
