<?xml version="1.0" encoding="UTF-8"?>
<svg xmlns="http://www.w3.org/2000/svg" xmlns:xlink="http://www.w3.org/1999/xlink" width="150px" height="150px" viewBox="0 0 400 400" version="1.1">
<defs>
<linearGradient id="linear0" gradientUnits="userSpaceOnUse" x1="500.37" y1="603.93" x2="500.37" y2="91.3" gradientTransform="matrix(0.5,0,0,0.5,0,0)">
<stop offset="0" style="stop-color:rgb(88.627451%,96.470588%,99.607843%);stop-opacity:1;"/>
<stop offset="0.12" style="stop-color:rgb(78.039216%,89.411765%,99.607843%);stop-opacity:1;"/>
<stop offset="0.3" style="stop-color:rgb(58.823529%,76.862745%,100%);stop-opacity:1;"/>
<stop offset="0.48" style="stop-color:rgb(44.313725%,68.627451%,98.823529%);stop-opacity:1;"/>
<stop offset="0.66" style="stop-color:rgb(28.235294%,59.215686%,97.647059%);stop-opacity:1;"/>
<stop offset="0.81" style="stop-color:rgb(5.490196%,32.156863%,71.372549%);stop-opacity:1;"/>
<stop offset="0.84" style="stop-color:rgb(0.392157%,26.27451%,65.490196%);stop-opacity:1;"/>
<stop offset="0.98" style="stop-color:rgb(0%,4.313725%,10.196078%);stop-opacity:1;"/>
<stop offset="1" style="stop-color:rgb(0%,0%,0%);stop-opacity:1;"/>
</linearGradient>
<linearGradient id="linear1" gradientUnits="userSpaceOnUse" x1="287.64" y1="603.93" x2="287.64" y2="91.3" gradientTransform="matrix(0.5,0,0,0.5,0,0)">
<stop offset="0" style="stop-color:rgb(88.627451%,96.470588%,99.607843%);stop-opacity:1;"/>
<stop offset="0.12" style="stop-color:rgb(78.039216%,89.411765%,99.607843%);stop-opacity:1;"/>
<stop offset="0.3" style="stop-color:rgb(58.823529%,76.862745%,100%);stop-opacity:1;"/>
<stop offset="0.48" style="stop-color:rgb(44.313725%,68.627451%,98.823529%);stop-opacity:1;"/>
<stop offset="0.66" style="stop-color:rgb(28.235294%,59.215686%,97.647059%);stop-opacity:1;"/>
<stop offset="0.81" style="stop-color:rgb(5.490196%,32.156863%,71.372549%);stop-opacity:1;"/>
<stop offset="0.84" style="stop-color:rgb(0.392157%,26.27451%,65.490196%);stop-opacity:1;"/>
<stop offset="0.98" style="stop-color:rgb(0%,4.313725%,10.196078%);stop-opacity:1;"/>
<stop offset="1" style="stop-color:rgb(0%,0%,0%);stop-opacity:1;"/>
</linearGradient>
<linearGradient id="linear2" gradientUnits="userSpaceOnUse" x1="287.82" y1="603.93" x2="287.82" y2="91.3" gradientTransform="matrix(0.5,0,0,0.5,0,0)">
<stop offset="0" style="stop-color:rgb(88.627451%,96.470588%,99.607843%);stop-opacity:1;"/>
<stop offset="0.12" style="stop-color:rgb(78.039216%,89.411765%,99.607843%);stop-opacity:1;"/>
<stop offset="0.3" style="stop-color:rgb(58.823529%,76.862745%,100%);stop-opacity:1;"/>
<stop offset="0.48" style="stop-color:rgb(44.313725%,68.627451%,98.823529%);stop-opacity:1;"/>
<stop offset="0.66" style="stop-color:rgb(28.235294%,59.215686%,97.647059%);stop-opacity:1;"/>
<stop offset="0.81" style="stop-color:rgb(5.490196%,32.156863%,71.372549%);stop-opacity:1;"/>
<stop offset="0.84" style="stop-color:rgb(0.392157%,26.27451%,65.490196%);stop-opacity:1;"/>
<stop offset="0.98" style="stop-color:rgb(0%,4.313725%,10.196078%);stop-opacity:1;"/>
<stop offset="1" style="stop-color:rgb(0%,0%,0%);stop-opacity:1;"/>
</linearGradient>
<linearGradient id="linear3" gradientUnits="userSpaceOnUse" x1="482.45" y1="603.93" x2="482.45" y2="91.3" gradientTransform="matrix(0.5,0,0,0.5,0,0)">
<stop offset="0" style="stop-color:rgb(88.627451%,96.470588%,99.607843%);stop-opacity:1;"/>
<stop offset="0.12" style="stop-color:rgb(78.039216%,89.411765%,99.607843%);stop-opacity:1;"/>
<stop offset="0.3" style="stop-color:rgb(58.823529%,76.862745%,100%);stop-opacity:1;"/>
<stop offset="0.48" style="stop-color:rgb(44.313725%,68.627451%,98.823529%);stop-opacity:1;"/>
<stop offset="0.66" style="stop-color:rgb(28.235294%,59.215686%,97.647059%);stop-opacity:1;"/>
<stop offset="0.81" style="stop-color:rgb(5.490196%,32.156863%,71.372549%);stop-opacity:1;"/>
<stop offset="0.84" style="stop-color:rgb(0.392157%,26.27451%,65.490196%);stop-opacity:1;"/>
<stop offset="0.98" style="stop-color:rgb(0%,4.313725%,10.196078%);stop-opacity:1;"/>
<stop offset="1" style="stop-color:rgb(0%,0%,0%);stop-opacity:1;"/>
</linearGradient>
<linearGradient id="linear4" gradientUnits="userSpaceOnUse" x1="453.24" y1="603.93" x2="453.24" y2="91.3" gradientTransform="matrix(0.5,0,0,0.5,0,0)">
<stop offset="0" style="stop-color:rgb(88.627451%,96.470588%,99.607843%);stop-opacity:1;"/>
<stop offset="0.12" style="stop-color:rgb(78.039216%,89.411765%,99.607843%);stop-opacity:1;"/>
<stop offset="0.3" style="stop-color:rgb(58.823529%,76.862745%,100%);stop-opacity:1;"/>
<stop offset="0.48" style="stop-color:rgb(44.313725%,68.627451%,98.823529%);stop-opacity:1;"/>
<stop offset="0.66" style="stop-color:rgb(28.235294%,59.215686%,97.647059%);stop-opacity:1;"/>
<stop offset="0.81" style="stop-color:rgb(5.490196%,32.156863%,71.372549%);stop-opacity:1;"/>
<stop offset="0.84" style="stop-color:rgb(0.392157%,26.27451%,65.490196%);stop-opacity:1;"/>
<stop offset="0.98" style="stop-color:rgb(0%,4.313725%,10.196078%);stop-opacity:1;"/>
<stop offset="1" style="stop-color:rgb(0%,0%,0%);stop-opacity:1;"/>
</linearGradient>
<linearGradient id="linear5" gradientUnits="userSpaceOnUse" x1="472.48" y1="603.93" x2="472.48" y2="91.3" gradientTransform="matrix(0.5,0,0,0.5,0,0)">
<stop offset="0" style="stop-color:rgb(88.627451%,96.470588%,99.607843%);stop-opacity:1;"/>
<stop offset="0.12" style="stop-color:rgb(78.039216%,89.411765%,99.607843%);stop-opacity:1;"/>
<stop offset="0.3" style="stop-color:rgb(58.823529%,76.862745%,100%);stop-opacity:1;"/>
<stop offset="0.48" style="stop-color:rgb(44.313725%,68.627451%,98.823529%);stop-opacity:1;"/>
<stop offset="0.66" style="stop-color:rgb(28.235294%,59.215686%,97.647059%);stop-opacity:1;"/>
<stop offset="0.81" style="stop-color:rgb(5.490196%,32.156863%,71.372549%);stop-opacity:1;"/>
<stop offset="0.84" style="stop-color:rgb(0.392157%,26.27451%,65.490196%);stop-opacity:1;"/>
<stop offset="0.98" style="stop-color:rgb(0%,4.313725%,10.196078%);stop-opacity:1;"/>
<stop offset="1" style="stop-color:rgb(0%,0%,0%);stop-opacity:1;"/>
</linearGradient>
<linearGradient id="linear6" gradientUnits="userSpaceOnUse" x1="499.03" y1="603.93" x2="499.03" y2="91.3" gradientTransform="matrix(0.5,0,0,0.5,0,0)">
<stop offset="0" style="stop-color:rgb(88.627451%,96.470588%,99.607843%);stop-opacity:1;"/>
<stop offset="0.12" style="stop-color:rgb(78.039216%,89.411765%,99.607843%);stop-opacity:1;"/>
<stop offset="0.3" style="stop-color:rgb(58.823529%,76.862745%,100%);stop-opacity:1;"/>
<stop offset="0.48" style="stop-color:rgb(44.313725%,68.627451%,98.823529%);stop-opacity:1;"/>
<stop offset="0.66" style="stop-color:rgb(28.235294%,59.215686%,97.647059%);stop-opacity:1;"/>
<stop offset="0.81" style="stop-color:rgb(5.490196%,32.156863%,71.372549%);stop-opacity:1;"/>
<stop offset="0.84" style="stop-color:rgb(0.392157%,26.27451%,65.490196%);stop-opacity:1;"/>
<stop offset="0.98" style="stop-color:rgb(0%,4.313725%,10.196078%);stop-opacity:1;"/>
<stop offset="1" style="stop-color:rgb(0%,0%,0%);stop-opacity:1;"/>
</linearGradient>
<linearGradient id="linear7" gradientUnits="userSpaceOnUse" x1="401.28" y1="603.93" x2="401.28" y2="91.3" gradientTransform="matrix(0.5,0,0,0.5,0,0)">
<stop offset="0" style="stop-color:rgb(88.627451%,96.470588%,99.607843%);stop-opacity:1;"/>
<stop offset="0.12" style="stop-color:rgb(78.039216%,89.411765%,99.607843%);stop-opacity:1;"/>
<stop offset="0.3" style="stop-color:rgb(58.823529%,76.862745%,100%);stop-opacity:1;"/>
<stop offset="0.48" style="stop-color:rgb(44.313725%,68.627451%,98.823529%);stop-opacity:1;"/>
<stop offset="0.66" style="stop-color:rgb(28.235294%,59.215686%,97.647059%);stop-opacity:1;"/>
<stop offset="0.81" style="stop-color:rgb(5.490196%,32.156863%,71.372549%);stop-opacity:1;"/>
<stop offset="0.84" style="stop-color:rgb(0.392157%,26.27451%,65.490196%);stop-opacity:1;"/>
<stop offset="0.98" style="stop-color:rgb(0%,4.313725%,10.196078%);stop-opacity:1;"/>
<stop offset="1" style="stop-color:rgb(0%,0%,0%);stop-opacity:1;"/>
</linearGradient>
<linearGradient id="linear8" gradientUnits="userSpaceOnUse" x1="297.61" y1="603.93" x2="297.61" y2="91.3" gradientTransform="matrix(0.5,0,0,0.5,0,0)">
<stop offset="0" style="stop-color:rgb(88.627451%,96.470588%,99.607843%);stop-opacity:1;"/>
<stop offset="0.12" style="stop-color:rgb(78.039216%,89.411765%,99.607843%);stop-opacity:1;"/>
<stop offset="0.3" style="stop-color:rgb(58.823529%,76.862745%,100%);stop-opacity:1;"/>
<stop offset="0.48" style="stop-color:rgb(44.313725%,68.627451%,98.823529%);stop-opacity:1;"/>
<stop offset="0.66" style="stop-color:rgb(28.235294%,59.215686%,97.647059%);stop-opacity:1;"/>
<stop offset="0.81" style="stop-color:rgb(5.490196%,32.156863%,71.372549%);stop-opacity:1;"/>
<stop offset="0.84" style="stop-color:rgb(0.392157%,26.27451%,65.490196%);stop-opacity:1;"/>
<stop offset="0.98" style="stop-color:rgb(0%,4.313725%,10.196078%);stop-opacity:1;"/>
<stop offset="1" style="stop-color:rgb(0%,0%,0%);stop-opacity:1;"/>
</linearGradient>
<linearGradient id="linear9" gradientUnits="userSpaceOnUse" x1="590.82" y1="603.93" x2="590.82" y2="91.3" gradientTransform="matrix(0.5,0,0,0.5,0,0)">
<stop offset="0" style="stop-color:rgb(88.627451%,96.470588%,99.607843%);stop-opacity:1;"/>
<stop offset="0.12" style="stop-color:rgb(78.039216%,89.411765%,99.607843%);stop-opacity:1;"/>
<stop offset="0.3" style="stop-color:rgb(58.823529%,76.862745%,100%);stop-opacity:1;"/>
<stop offset="0.48" style="stop-color:rgb(44.313725%,68.627451%,98.823529%);stop-opacity:1;"/>
<stop offset="0.66" style="stop-color:rgb(28.235294%,59.215686%,97.647059%);stop-opacity:1;"/>
<stop offset="0.81" style="stop-color:rgb(5.490196%,32.156863%,71.372549%);stop-opacity:1;"/>
<stop offset="0.84" style="stop-color:rgb(0.392157%,26.27451%,65.490196%);stop-opacity:1;"/>
<stop offset="0.98" style="stop-color:rgb(0%,4.313725%,10.196078%);stop-opacity:1;"/>
<stop offset="1" style="stop-color:rgb(0%,0%,0%);stop-opacity:1;"/>
</linearGradient>
<linearGradient id="linear10" gradientUnits="userSpaceOnUse" x1="500.73" y1="603.93" x2="500.73" y2="91.3" gradientTransform="matrix(0.5,0,0,0.5,0,0)">
<stop offset="0" style="stop-color:rgb(88.627451%,96.470588%,99.607843%);stop-opacity:1;"/>
<stop offset="0.12" style="stop-color:rgb(78.039216%,89.411765%,99.607843%);stop-opacity:1;"/>
<stop offset="0.3" style="stop-color:rgb(58.823529%,76.862745%,100%);stop-opacity:1;"/>
<stop offset="0.48" style="stop-color:rgb(44.313725%,68.627451%,98.823529%);stop-opacity:1;"/>
<stop offset="0.66" style="stop-color:rgb(28.235294%,59.215686%,97.647059%);stop-opacity:1;"/>
<stop offset="0.81" style="stop-color:rgb(5.490196%,32.156863%,71.372549%);stop-opacity:1;"/>
<stop offset="0.84" style="stop-color:rgb(0.392157%,26.27451%,65.490196%);stop-opacity:1;"/>
<stop offset="0.98" style="stop-color:rgb(0%,4.313725%,10.196078%);stop-opacity:1;"/>
<stop offset="1" style="stop-color:rgb(0%,0%,0%);stop-opacity:1;"/>
</linearGradient>
<linearGradient id="linear11" gradientUnits="userSpaceOnUse" x1="484.01" y1="603.93" x2="484.01" y2="91.3" gradientTransform="matrix(0.5,0,0,0.5,0,0)">
<stop offset="0" style="stop-color:rgb(88.627451%,96.470588%,99.607843%);stop-opacity:1;"/>
<stop offset="0.12" style="stop-color:rgb(78.039216%,89.411765%,99.607843%);stop-opacity:1;"/>
<stop offset="0.3" style="stop-color:rgb(58.823529%,76.862745%,100%);stop-opacity:1;"/>
<stop offset="0.48" style="stop-color:rgb(44.313725%,68.627451%,98.823529%);stop-opacity:1;"/>
<stop offset="0.66" style="stop-color:rgb(28.235294%,59.215686%,97.647059%);stop-opacity:1;"/>
<stop offset="0.81" style="stop-color:rgb(5.490196%,32.156863%,71.372549%);stop-opacity:1;"/>
<stop offset="0.84" style="stop-color:rgb(0.392157%,26.27451%,65.490196%);stop-opacity:1;"/>
<stop offset="0.98" style="stop-color:rgb(0%,4.313725%,10.196078%);stop-opacity:1;"/>
<stop offset="1" style="stop-color:rgb(0%,0%,0%);stop-opacity:1;"/>
</linearGradient>
<linearGradient id="linear12" gradientUnits="userSpaceOnUse" x1="404.58" y1="603.93" x2="404.58" y2="91.3" gradientTransform="matrix(0.5,0,0,0.5,0,0)">
<stop offset="0" style="stop-color:rgb(88.627451%,96.470588%,99.607843%);stop-opacity:1;"/>
<stop offset="0.12" style="stop-color:rgb(78.039216%,89.411765%,99.607843%);stop-opacity:1;"/>
<stop offset="0.3" style="stop-color:rgb(58.823529%,76.862745%,100%);stop-opacity:1;"/>
<stop offset="0.48" style="stop-color:rgb(44.313725%,68.627451%,98.823529%);stop-opacity:1;"/>
<stop offset="0.66" style="stop-color:rgb(28.235294%,59.215686%,97.647059%);stop-opacity:1;"/>
<stop offset="0.81" style="stop-color:rgb(5.490196%,32.156863%,71.372549%);stop-opacity:1;"/>
<stop offset="0.84" style="stop-color:rgb(0.392157%,26.27451%,65.490196%);stop-opacity:1;"/>
<stop offset="0.98" style="stop-color:rgb(0%,4.313725%,10.196078%);stop-opacity:1;"/>
<stop offset="1" style="stop-color:rgb(0%,0%,0%);stop-opacity:1;"/>
</linearGradient>
<linearGradient id="linear13" gradientUnits="userSpaceOnUse" x1="287.64" y1="603.93" x2="287.64" y2="91.3" gradientTransform="matrix(0.5,0,0,0.5,0,0)">
<stop offset="0" style="stop-color:rgb(88.627451%,96.470588%,99.607843%);stop-opacity:1;"/>
<stop offset="0.12" style="stop-color:rgb(78.039216%,89.411765%,99.607843%);stop-opacity:1;"/>
<stop offset="0.3" style="stop-color:rgb(58.823529%,76.862745%,100%);stop-opacity:1;"/>
<stop offset="0.48" style="stop-color:rgb(44.313725%,68.627451%,98.823529%);stop-opacity:1;"/>
<stop offset="0.66" style="stop-color:rgb(28.235294%,59.215686%,97.647059%);stop-opacity:1;"/>
<stop offset="0.81" style="stop-color:rgb(5.490196%,32.156863%,71.372549%);stop-opacity:1;"/>
<stop offset="0.84" style="stop-color:rgb(0.392157%,26.27451%,65.490196%);stop-opacity:1;"/>
<stop offset="0.98" style="stop-color:rgb(0%,4.313725%,10.196078%);stop-opacity:1;"/>
<stop offset="1" style="stop-color:rgb(0%,0%,0%);stop-opacity:1;"/>
</linearGradient>
<linearGradient id="linear14" gradientUnits="userSpaceOnUse" x1="262.2" y1="603.93" x2="262.2" y2="91.3" gradientTransform="matrix(0.5,0,0,0.5,0,0)">
<stop offset="0" style="stop-color:rgb(88.627451%,96.470588%,99.607843%);stop-opacity:1;"/>
<stop offset="0.12" style="stop-color:rgb(78.039216%,89.411765%,99.607843%);stop-opacity:1;"/>
<stop offset="0.3" style="stop-color:rgb(58.823529%,76.862745%,100%);stop-opacity:1;"/>
<stop offset="0.48" style="stop-color:rgb(44.313725%,68.627451%,98.823529%);stop-opacity:1;"/>
<stop offset="0.66" style="stop-color:rgb(28.235294%,59.215686%,97.647059%);stop-opacity:1;"/>
<stop offset="0.81" style="stop-color:rgb(5.490196%,32.156863%,71.372549%);stop-opacity:1;"/>
<stop offset="0.84" style="stop-color:rgb(0.392157%,26.27451%,65.490196%);stop-opacity:1;"/>
<stop offset="0.98" style="stop-color:rgb(0%,4.313725%,10.196078%);stop-opacity:1;"/>
<stop offset="1" style="stop-color:rgb(0%,0%,0%);stop-opacity:1;"/>
</linearGradient>
<linearGradient id="linear15" gradientUnits="userSpaceOnUse" x1="321.4" y1="603.93" x2="321.4" y2="91.3" gradientTransform="matrix(0.5,0,0,0.5,0,0)">
<stop offset="0" style="stop-color:rgb(88.627451%,96.470588%,99.607843%);stop-opacity:1;"/>
<stop offset="0.12" style="stop-color:rgb(78.039216%,89.411765%,99.607843%);stop-opacity:1;"/>
<stop offset="0.3" style="stop-color:rgb(58.823529%,76.862745%,100%);stop-opacity:1;"/>
<stop offset="0.48" style="stop-color:rgb(44.313725%,68.627451%,98.823529%);stop-opacity:1;"/>
<stop offset="0.66" style="stop-color:rgb(28.235294%,59.215686%,97.647059%);stop-opacity:1;"/>
<stop offset="0.81" style="stop-color:rgb(5.490196%,32.156863%,71.372549%);stop-opacity:1;"/>
<stop offset="0.84" style="stop-color:rgb(0.392157%,26.27451%,65.490196%);stop-opacity:1;"/>
<stop offset="0.98" style="stop-color:rgb(0%,4.313725%,10.196078%);stop-opacity:1;"/>
<stop offset="1" style="stop-color:rgb(0%,0%,0%);stop-opacity:1;"/>
</linearGradient>
<linearGradient id="linear16" gradientUnits="userSpaceOnUse" x1="262.2" y1="603.93" x2="262.2" y2="91.3" gradientTransform="matrix(0.5,0,0,0.5,0,0)">
<stop offset="0" style="stop-color:rgb(88.627451%,96.470588%,99.607843%);stop-opacity:1;"/>
<stop offset="0.12" style="stop-color:rgb(78.039216%,89.411765%,99.607843%);stop-opacity:1;"/>
<stop offset="0.3" style="stop-color:rgb(58.823529%,76.862745%,100%);stop-opacity:1;"/>
<stop offset="0.48" style="stop-color:rgb(44.313725%,68.627451%,98.823529%);stop-opacity:1;"/>
<stop offset="0.66" style="stop-color:rgb(28.235294%,59.215686%,97.647059%);stop-opacity:1;"/>
<stop offset="0.81" style="stop-color:rgb(5.490196%,32.156863%,71.372549%);stop-opacity:1;"/>
<stop offset="0.84" style="stop-color:rgb(0.392157%,26.27451%,65.490196%);stop-opacity:1;"/>
<stop offset="0.98" style="stop-color:rgb(0%,4.313725%,10.196078%);stop-opacity:1;"/>
<stop offset="1" style="stop-color:rgb(0%,0%,0%);stop-opacity:1;"/>
</linearGradient>
<linearGradient id="linear17" gradientUnits="userSpaceOnUse" x1="549.49" y1="603.93" x2="549.49" y2="91.3" gradientTransform="matrix(0.5,0,0,0.5,0,0)">
<stop offset="0" style="stop-color:rgb(88.627451%,96.470588%,99.607843%);stop-opacity:1;"/>
<stop offset="0.12" style="stop-color:rgb(78.039216%,89.411765%,99.607843%);stop-opacity:1;"/>
<stop offset="0.3" style="stop-color:rgb(58.823529%,76.862745%,100%);stop-opacity:1;"/>
<stop offset="0.48" style="stop-color:rgb(44.313725%,68.627451%,98.823529%);stop-opacity:1;"/>
<stop offset="0.66" style="stop-color:rgb(28.235294%,59.215686%,97.647059%);stop-opacity:1;"/>
<stop offset="0.81" style="stop-color:rgb(5.490196%,32.156863%,71.372549%);stop-opacity:1;"/>
<stop offset="0.84" style="stop-color:rgb(0.392157%,26.27451%,65.490196%);stop-opacity:1;"/>
<stop offset="0.98" style="stop-color:rgb(0%,4.313725%,10.196078%);stop-opacity:1;"/>
<stop offset="1" style="stop-color:rgb(0%,0%,0%);stop-opacity:1;"/>
</linearGradient>
<linearGradient id="linear18" gradientUnits="userSpaceOnUse" x1="373.01" y1="603.93" x2="373.01" y2="91.3" gradientTransform="matrix(0.5,0,0,0.5,0,0)">
<stop offset="0" style="stop-color:rgb(88.627451%,96.470588%,99.607843%);stop-opacity:1;"/>
<stop offset="0.12" style="stop-color:rgb(78.039216%,89.411765%,99.607843%);stop-opacity:1;"/>
<stop offset="0.3" style="stop-color:rgb(58.823529%,76.862745%,100%);stop-opacity:1;"/>
<stop offset="0.48" style="stop-color:rgb(44.313725%,68.627451%,98.823529%);stop-opacity:1;"/>
<stop offset="0.66" style="stop-color:rgb(28.235294%,59.215686%,97.647059%);stop-opacity:1;"/>
<stop offset="0.81" style="stop-color:rgb(5.490196%,32.156863%,71.372549%);stop-opacity:1;"/>
<stop offset="0.84" style="stop-color:rgb(0.392157%,26.27451%,65.490196%);stop-opacity:1;"/>
<stop offset="0.98" style="stop-color:rgb(0%,4.313725%,10.196078%);stop-opacity:1;"/>
<stop offset="1" style="stop-color:rgb(0%,0%,0%);stop-opacity:1;"/>
</linearGradient>
<linearGradient id="linear19" gradientUnits="userSpaceOnUse" x1="230.32" y1="603.93" x2="230.32" y2="91.3" gradientTransform="matrix(0.5,0,0,0.5,0,0)">
<stop offset="0" style="stop-color:rgb(88.627451%,96.470588%,99.607843%);stop-opacity:1;"/>
<stop offset="0.12" style="stop-color:rgb(78.039216%,89.411765%,99.607843%);stop-opacity:1;"/>
<stop offset="0.3" style="stop-color:rgb(58.823529%,76.862745%,100%);stop-opacity:1;"/>
<stop offset="0.48" style="stop-color:rgb(44.313725%,68.627451%,98.823529%);stop-opacity:1;"/>
<stop offset="0.66" style="stop-color:rgb(28.235294%,59.215686%,97.647059%);stop-opacity:1;"/>
<stop offset="0.81" style="stop-color:rgb(5.490196%,32.156863%,71.372549%);stop-opacity:1;"/>
<stop offset="0.84" style="stop-color:rgb(0.392157%,26.27451%,65.490196%);stop-opacity:1;"/>
<stop offset="0.98" style="stop-color:rgb(0%,4.313725%,10.196078%);stop-opacity:1;"/>
<stop offset="1" style="stop-color:rgb(0%,0%,0%);stop-opacity:1;"/>
</linearGradient>
<linearGradient id="linear20" gradientUnits="userSpaceOnUse" x1="269.98" y1="603.93" x2="269.98" y2="91.3" gradientTransform="matrix(0.5,0,0,0.5,0,0)">
<stop offset="0" style="stop-color:rgb(88.627451%,96.470588%,99.607843%);stop-opacity:1;"/>
<stop offset="0.12" style="stop-color:rgb(78.039216%,89.411765%,99.607843%);stop-opacity:1;"/>
<stop offset="0.3" style="stop-color:rgb(58.823529%,76.862745%,100%);stop-opacity:1;"/>
<stop offset="0.48" style="stop-color:rgb(44.313725%,68.627451%,98.823529%);stop-opacity:1;"/>
<stop offset="0.66" style="stop-color:rgb(28.235294%,59.215686%,97.647059%);stop-opacity:1;"/>
<stop offset="0.81" style="stop-color:rgb(5.490196%,32.156863%,71.372549%);stop-opacity:1;"/>
<stop offset="0.84" style="stop-color:rgb(0.392157%,26.27451%,65.490196%);stop-opacity:1;"/>
<stop offset="0.98" style="stop-color:rgb(0%,4.313725%,10.196078%);stop-opacity:1;"/>
<stop offset="1" style="stop-color:rgb(0%,0%,0%);stop-opacity:1;"/>
</linearGradient>
<linearGradient id="linear21" gradientUnits="userSpaceOnUse" x1="577.7" y1="603.93" x2="577.7" y2="91.3" gradientTransform="matrix(0.5,0,0,0.5,0,0)">
<stop offset="0" style="stop-color:rgb(88.627451%,96.470588%,99.607843%);stop-opacity:1;"/>
<stop offset="0.12" style="stop-color:rgb(78.039216%,89.411765%,99.607843%);stop-opacity:1;"/>
<stop offset="0.3" style="stop-color:rgb(58.823529%,76.862745%,100%);stop-opacity:1;"/>
<stop offset="0.48" style="stop-color:rgb(44.313725%,68.627451%,98.823529%);stop-opacity:1;"/>
<stop offset="0.66" style="stop-color:rgb(28.235294%,59.215686%,97.647059%);stop-opacity:1;"/>
<stop offset="0.81" style="stop-color:rgb(5.490196%,32.156863%,71.372549%);stop-opacity:1;"/>
<stop offset="0.84" style="stop-color:rgb(0.392157%,26.27451%,65.490196%);stop-opacity:1;"/>
<stop offset="0.98" style="stop-color:rgb(0%,4.313725%,10.196078%);stop-opacity:1;"/>
<stop offset="1" style="stop-color:rgb(0%,0%,0%);stop-opacity:1;"/>
</linearGradient>
<linearGradient id="linear22" gradientUnits="userSpaceOnUse" x1="522.63" y1="603.93" x2="522.63" y2="91.3" gradientTransform="matrix(0.5,0,0,0.5,0,0)">
<stop offset="0" style="stop-color:rgb(88.627451%,96.470588%,99.607843%);stop-opacity:1;"/>
<stop offset="0.12" style="stop-color:rgb(78.039216%,89.411765%,99.607843%);stop-opacity:1;"/>
<stop offset="0.3" style="stop-color:rgb(58.823529%,76.862745%,100%);stop-opacity:1;"/>
<stop offset="0.48" style="stop-color:rgb(44.313725%,68.627451%,98.823529%);stop-opacity:1;"/>
<stop offset="0.66" style="stop-color:rgb(28.235294%,59.215686%,97.647059%);stop-opacity:1;"/>
<stop offset="0.81" style="stop-color:rgb(5.490196%,32.156863%,71.372549%);stop-opacity:1;"/>
<stop offset="0.84" style="stop-color:rgb(0.392157%,26.27451%,65.490196%);stop-opacity:1;"/>
<stop offset="0.98" style="stop-color:rgb(0%,4.313725%,10.196078%);stop-opacity:1;"/>
<stop offset="1" style="stop-color:rgb(0%,0%,0%);stop-opacity:1;"/>
</linearGradient>
<linearGradient id="linear23" gradientUnits="userSpaceOnUse" x1="209.36" y1="603.93" x2="209.36" y2="91.3" gradientTransform="matrix(0.5,0,0,0.5,0,0)">
<stop offset="0" style="stop-color:rgb(88.627451%,96.470588%,99.607843%);stop-opacity:1;"/>
<stop offset="0.12" style="stop-color:rgb(78.039216%,89.411765%,99.607843%);stop-opacity:1;"/>
<stop offset="0.3" style="stop-color:rgb(58.823529%,76.862745%,100%);stop-opacity:1;"/>
<stop offset="0.48" style="stop-color:rgb(44.313725%,68.627451%,98.823529%);stop-opacity:1;"/>
<stop offset="0.66" style="stop-color:rgb(28.235294%,59.215686%,97.647059%);stop-opacity:1;"/>
<stop offset="0.81" style="stop-color:rgb(5.490196%,32.156863%,71.372549%);stop-opacity:1;"/>
<stop offset="0.84" style="stop-color:rgb(0.392157%,26.27451%,65.490196%);stop-opacity:1;"/>
<stop offset="0.98" style="stop-color:rgb(0%,4.313725%,10.196078%);stop-opacity:1;"/>
<stop offset="1" style="stop-color:rgb(0%,0%,0%);stop-opacity:1;"/>
</linearGradient>
<linearGradient id="linear24" gradientUnits="userSpaceOnUse" x1="526.49" y1="603.93" x2="526.49" y2="91.3" gradientTransform="matrix(0.5,0,0,0.5,0,0)">
<stop offset="0" style="stop-color:rgb(88.627451%,96.470588%,99.607843%);stop-opacity:1;"/>
<stop offset="0.12" style="stop-color:rgb(78.039216%,89.411765%,99.607843%);stop-opacity:1;"/>
<stop offset="0.3" style="stop-color:rgb(58.823529%,76.862745%,100%);stop-opacity:1;"/>
<stop offset="0.48" style="stop-color:rgb(44.313725%,68.627451%,98.823529%);stop-opacity:1;"/>
<stop offset="0.66" style="stop-color:rgb(28.235294%,59.215686%,97.647059%);stop-opacity:1;"/>
<stop offset="0.81" style="stop-color:rgb(5.490196%,32.156863%,71.372549%);stop-opacity:1;"/>
<stop offset="0.84" style="stop-color:rgb(0.392157%,26.27451%,65.490196%);stop-opacity:1;"/>
<stop offset="0.98" style="stop-color:rgb(0%,4.313725%,10.196078%);stop-opacity:1;"/>
<stop offset="1" style="stop-color:rgb(0%,0%,0%);stop-opacity:1;"/>
</linearGradient>
<linearGradient id="linear25" gradientUnits="userSpaceOnUse" x1="614.07" y1="603.93" x2="614.07" y2="91.3" gradientTransform="matrix(0.5,0,0,0.5,0,0)">
<stop offset="0" style="stop-color:rgb(88.627451%,96.470588%,99.607843%);stop-opacity:1;"/>
<stop offset="0.12" style="stop-color:rgb(78.039216%,89.411765%,99.607843%);stop-opacity:1;"/>
<stop offset="0.3" style="stop-color:rgb(58.823529%,76.862745%,100%);stop-opacity:1;"/>
<stop offset="0.48" style="stop-color:rgb(44.313725%,68.627451%,98.823529%);stop-opacity:1;"/>
<stop offset="0.66" style="stop-color:rgb(28.235294%,59.215686%,97.647059%);stop-opacity:1;"/>
<stop offset="0.81" style="stop-color:rgb(5.490196%,32.156863%,71.372549%);stop-opacity:1;"/>
<stop offset="0.84" style="stop-color:rgb(0.392157%,26.27451%,65.490196%);stop-opacity:1;"/>
<stop offset="0.98" style="stop-color:rgb(0%,4.313725%,10.196078%);stop-opacity:1;"/>
<stop offset="1" style="stop-color:rgb(0%,0%,0%);stop-opacity:1;"/>
</linearGradient>
<linearGradient id="linear26" gradientUnits="userSpaceOnUse" x1="549.49" y1="603.93" x2="549.49" y2="91.3" gradientTransform="matrix(0.5,0,0,0.5,0,0)">
<stop offset="0" style="stop-color:rgb(88.627451%,96.470588%,99.607843%);stop-opacity:1;"/>
<stop offset="0.12" style="stop-color:rgb(78.039216%,89.411765%,99.607843%);stop-opacity:1;"/>
<stop offset="0.3" style="stop-color:rgb(58.823529%,76.862745%,100%);stop-opacity:1;"/>
<stop offset="0.48" style="stop-color:rgb(44.313725%,68.627451%,98.823529%);stop-opacity:1;"/>
<stop offset="0.66" style="stop-color:rgb(28.235294%,59.215686%,97.647059%);stop-opacity:1;"/>
<stop offset="0.81" style="stop-color:rgb(5.490196%,32.156863%,71.372549%);stop-opacity:1;"/>
<stop offset="0.84" style="stop-color:rgb(0.392157%,26.27451%,65.490196%);stop-opacity:1;"/>
<stop offset="0.98" style="stop-color:rgb(0%,4.313725%,10.196078%);stop-opacity:1;"/>
<stop offset="1" style="stop-color:rgb(0%,0%,0%);stop-opacity:1;"/>
</linearGradient>
<linearGradient id="linear27" gradientUnits="userSpaceOnUse" x1="577.32" y1="603.93" x2="577.32" y2="91.3" gradientTransform="matrix(0.5,0,0,0.5,0,0)">
<stop offset="0" style="stop-color:rgb(88.627451%,96.470588%,99.607843%);stop-opacity:1;"/>
<stop offset="0.12" style="stop-color:rgb(78.039216%,89.411765%,99.607843%);stop-opacity:1;"/>
<stop offset="0.3" style="stop-color:rgb(58.823529%,76.862745%,100%);stop-opacity:1;"/>
<stop offset="0.48" style="stop-color:rgb(44.313725%,68.627451%,98.823529%);stop-opacity:1;"/>
<stop offset="0.66" style="stop-color:rgb(28.235294%,59.215686%,97.647059%);stop-opacity:1;"/>
<stop offset="0.81" style="stop-color:rgb(5.490196%,32.156863%,71.372549%);stop-opacity:1;"/>
<stop offset="0.84" style="stop-color:rgb(0.392157%,26.27451%,65.490196%);stop-opacity:1;"/>
<stop offset="0.98" style="stop-color:rgb(0%,4.313725%,10.196078%);stop-opacity:1;"/>
<stop offset="1" style="stop-color:rgb(0%,0%,0%);stop-opacity:1;"/>
</linearGradient>
<linearGradient id="linear28" gradientUnits="userSpaceOnUse" x1="176.44" y1="603.93" x2="176.44" y2="91.3" gradientTransform="matrix(0.5,0,0,0.5,0,0)">
<stop offset="0" style="stop-color:rgb(88.627451%,96.470588%,99.607843%);stop-opacity:1;"/>
<stop offset="0.12" style="stop-color:rgb(78.039216%,89.411765%,99.607843%);stop-opacity:1;"/>
<stop offset="0.3" style="stop-color:rgb(58.823529%,76.862745%,100%);stop-opacity:1;"/>
<stop offset="0.48" style="stop-color:rgb(44.313725%,68.627451%,98.823529%);stop-opacity:1;"/>
<stop offset="0.66" style="stop-color:rgb(28.235294%,59.215686%,97.647059%);stop-opacity:1;"/>
<stop offset="0.81" style="stop-color:rgb(5.490196%,32.156863%,71.372549%);stop-opacity:1;"/>
<stop offset="0.84" style="stop-color:rgb(0.392157%,26.27451%,65.490196%);stop-opacity:1;"/>
<stop offset="0.98" style="stop-color:rgb(0%,4.313725%,10.196078%);stop-opacity:1;"/>
<stop offset="1" style="stop-color:rgb(0%,0%,0%);stop-opacity:1;"/>
</linearGradient>
</defs>
<g id="surface1">
<path style=" stroke:none;fill-rule:nonzero;fill:rgb(0%,0%,0%);fill-opacity:1;" d="M 348 189.203125 C 346.367188 189.230469 344.757812 188.835938 343.320312 188.066406 C 341.960938 187.332031 340.835938 186.238281 340.058594 184.90625 C 339.25 183.472656 338.84375 181.847656 338.878906 180.203125 C 338.84375 178.546875 339.25 176.910156 340.058594 175.464844 C 340.835938 174.132812 341.964844 173.039062 343.320312 172.304688 C 346.261719 170.785156 349.757812 170.785156 352.699219 172.304688 C 354.050781 173.042969 355.171875 174.132812 355.941406 175.464844 C 356.753906 176.910156 357.160156 178.546875 357.121094 180.203125 C 357.160156 181.847656 356.75 183.472656 355.941406 184.90625 C 355.171875 186.238281 354.050781 187.332031 352.699219 188.066406 C 351.257812 188.84375 349.636719 189.234375 348 189.203125 Z M 348 187.003906 C 349.210938 187.03125 350.402344 186.734375 351.460938 186.144531 C 352.457031 185.582031 353.273438 184.75 353.820312 183.746094 C 354.410156 182.660156 354.707031 181.441406 354.679688 180.203125 C 354.761719 178.367188 354.089844 176.574219 352.820312 175.246094 C 351.542969 173.976562 349.796875 173.296875 348 173.363281 C 346.796875 173.347656 345.613281 173.644531 344.558594 174.226562 C 343.558594 174.789062 342.734375 175.621094 342.179688 176.625 C 341.589844 177.726562 341.292969 178.957031 341.320312 180.203125 C 341.296875 181.4375 341.59375 182.660156 342.179688 183.746094 C 342.734375 184.753906 343.558594 185.582031 344.558594 186.144531 C 345.613281 186.726562 346.796875 187.023438 348 187 Z M 344.839844 184.246094 L 344.839844 175.5 L 348.5 175.5 C 349.285156 175.46875 350.058594 175.734375 350.660156 176.238281 C 351.230469 176.742188 351.539062 177.480469 351.5 178.238281 C 351.523438 178.828125 351.363281 179.410156 351.039062 179.898438 C 350.75 180.339844 350.339844 180.683594 349.859375 180.898438 L 352.019531 184.300781 L 349.78125 184.300781 L 347.859375 181.140625 L 346.78125 181.140625 L 346.78125 184.300781 Z M 346.761719 179.605469 L 347.878906 179.605469 C 348.300781 179.628906 348.71875 179.523438 349.078125 179.304688 C 349.398438 179.050781 349.566406 178.652344 349.519531 178.246094 C 349.550781 177.898438 349.417969 177.558594 349.160156 177.324219 C 348.894531 177.128906 348.570312 177.03125 348.238281 177.046875 L 346.738281 177.046875 Z M 346.761719 179.605469 "/>
<path style=" stroke:none;fill-rule:nonzero;fill:rgb(0%,0%,0%);fill-opacity:1;" d="M 69.78125 189.199219 L 65.960938 189.199219 L 65.960938 211.265625 L 69.78125 211.265625 Z M 69.78125 189.199219 "/>
<path style=" stroke:none;fill-rule:nonzero;fill:rgb(0%,0%,0%);fill-opacity:1;" d="M 71.578125 198.5 L 80.914062 198.5 L 80.914062 202.144531 L 71.578125 202.144531 Z M 71.578125 198.5 "/>
<path style=" stroke:none;fill-rule:nonzero;fill:rgb(0%,0%,0%);fill-opacity:1;" d="M 82.398438 200.339844 L 87.816406 189.199219 L 83.570312 189.199219 L 78.125 200.339844 L 83.605469 211.265625 L 87.84375 211.265625 Z M 82.398438 200.339844 "/>
<path style=" stroke:none;fill-rule:nonzero;fill:rgb(0%,0%,0%);fill-opacity:1;" d="M 100 199 L 104.34375 199 C 104.699219 199.011719 105.046875 198.914062 105.34375 198.71875 C 105.628906 198.53125 105.871094 198.285156 106.054688 197.996094 C 106.25 197.6875 106.386719 197.351562 106.460938 196.996094 C 106.539062 196.667969 106.582031 196.332031 106.585938 195.996094 C 106.582031 195.628906 106.527344 195.265625 106.425781 194.914062 C 106.320312 194.554688 106.164062 194.207031 105.964844 193.890625 C 105.773438 193.582031 105.523438 193.320312 105.226562 193.113281 C 104.9375 192.917969 104.597656 192.8125 104.25 192.816406 L 94.863281 192.816406 L 94.863281 211.269531 L 91.078125 211.269531 L 91.078125 189.199219 L 104.660156 189.199219 C 105.429688 189.195312 106.195312 189.367188 106.890625 189.699219 C 107.601562 190.042969 108.230469 190.53125 108.746094 191.128906 C 109.292969 191.777344 109.722656 192.511719 110.019531 193.304688 C 110.347656 194.167969 110.519531 195.085938 110.519531 196.011719 C 110.519531 196.761719 110.398438 197.507812 110.164062 198.21875 C 109.941406 198.914062 109.617188 199.570312 109.195312 200.164062 C 108.789062 200.742188 108.292969 201.246094 107.726562 201.664062 C 107.1875 202.066406 106.578125 202.347656 105.925781 202.5 L 110.378906 211.265625 L 106.238281 211.265625 Z M 100 199 "/>
<path style=" stroke:none;fill-rule:nonzero;fill:rgb(0%,0%,0%);fill-opacity:1;" d="M 121.113281 203.59375 L 111.570312 189.199219 L 116.269531 189.199219 L 122.988281 199.199219 L 129.921875 189.199219 L 134.625 189.199219 L 125 203.414062 L 125 211.265625 L 121.109375 211.265625 Z M 121.113281 203.59375 "/>
<path style=" stroke:none;fill-rule:nonzero;fill:rgb(0%,0%,0%);fill-opacity:1;" d="M 137.191406 189.199219 L 150.769531 189.199219 C 151.539062 189.195312 152.300781 189.367188 152.996094 189.699219 C 153.707031 190.042969 154.339844 190.53125 154.855469 191.128906 C 155.402344 191.777344 155.832031 192.511719 156.125 193.304688 C 156.457031 194.167969 156.625 195.085938 156.625 196.011719 C 156.628906 196.863281 156.472656 197.710938 156.164062 198.511719 C 155.875 199.269531 155.453125 199.976562 154.925781 200.59375 C 154.410156 201.191406 153.785156 201.683594 153.085938 202.046875 C 152.398438 202.40625 151.636719 202.59375 150.859375 202.59375 L 146.683594 202.59375 L 146.683594 199 L 150.46875 199 C 150.824219 199.011719 151.171875 198.914062 151.46875 198.71875 C 151.742188 198.527344 151.972656 198.285156 152.148438 198 C 152.339844 197.691406 152.476562 197.355469 152.554688 197 C 152.632812 196.671875 152.675781 196.335938 152.679688 196 C 152.675781 195.632812 152.625 195.269531 152.519531 194.921875 C 152.414062 194.558594 152.261719 194.214844 152.058594 193.894531 C 151.867188 193.589844 151.613281 193.324219 151.316406 193.121094 C 151.03125 192.921875 150.691406 192.816406 150.34375 192.820312 L 141 192.820312 L 141 211.273438 L 137.214844 211.273438 Z M 137.191406 189.199219 "/>
<path style=" stroke:none;fill-rule:nonzero;fill:rgb(0%,0%,0%);fill-opacity:1;" d="M 178.625 189.199219 L 178.625 192.808594 L 170.84375 192.808594 L 170.84375 211.265625 L 167.023438 211.265625 L 167.023438 192.808594 L 159.355469 192.808594 L 159.355469 189.199219 Z M 178.625 189.199219 "/>
<path style=" stroke:none;fill-rule:nonzero;fill:rgb(0%,0%,0%);fill-opacity:1;" d="M 180.929688 195.898438 C 181.484375 194.578125 182.289062 193.378906 183.300781 192.363281 C 184.320312 191.351562 185.527344 190.539062 186.855469 189.980469 C 189.671875 188.800781 192.84375 188.800781 195.660156 189.980469 C 198.332031 191.105469 200.464844 193.230469 201.601562 195.898438 C 202.773438 198.667969 202.773438 201.796875 201.601562 204.566406 C 200.464844 207.238281 198.335938 209.367188 195.660156 210.5 C 192.84375 211.679688 189.671875 211.679688 186.855469 210.5 C 185.527344 209.9375 184.320312 209.128906 183.300781 208.109375 C 180.121094 204.894531 179.1875 200.082031 180.929688 195.910156 Z M 184.429688 203.101562 C 185.1875 204.878906 186.609375 206.292969 188.390625 207.039062 C 189.300781 207.429688 190.285156 207.628906 191.273438 207.625 C 192.253906 207.628906 193.222656 207.429688 194.121094 207.039062 C 195.011719 206.660156 195.828125 206.121094 196.523438 205.449219 C 197.21875 204.777344 197.777344 203.980469 198.171875 203.101562 C 198.96875 201.296875 198.96875 199.242188 198.171875 197.441406 C 197.773438 196.558594 197.222656 195.753906 196.539062 195.070312 C 195.851562 194.386719 195.042969 193.835938 194.15625 193.445312 C 192.324219 192.644531 190.242188 192.644531 188.410156 193.445312 C 187.527344 193.835938 186.722656 194.386719 186.039062 195.070312 C 185.359375 195.75 184.8125 196.554688 184.429688 197.441406 C 183.648438 199.246094 183.648438 201.292969 184.429688 203.101562 Z M 184.429688 203.101562 "/>
<path style=" stroke:none;fill-rule:nonzero;fill:rgb(0%,0%,0%);fill-opacity:1;" d="M 212 192.574219 C 211.21875 192.511719 210.449219 192.808594 209.914062 193.386719 C 209.464844 193.953125 209.226562 194.660156 209.246094 195.386719 C 209.222656 196.046875 209.441406 196.695312 209.863281 197.203125 C 210.402344 197.753906 211.105469 198.105469 211.863281 198.203125 L 211.863281 201.816406 C 211.003906 201.824219 210.152344 201.65625 209.363281 201.316406 C 208.601562 200.984375 207.902344 200.511719 207.316406 199.921875 C 206.726562 199.328125 206.25 198.632812 205.914062 197.871094 C 205.578125 197.089844 205.40625 196.246094 205.414062 195.394531 C 205.402344 194.496094 205.558594 193.601562 205.875 192.761719 C 206.15625 192.011719 206.574219 191.320312 207.109375 190.726562 C 207.621094 190.167969 208.242188 189.71875 208.933594 189.414062 C 209.644531 189.105469 210.40625 188.949219 211.179688 188.953125 L 224.449219 188.953125 L 224.449219 192.566406 Z M 218.121094 207.425781 C 218.910156 207.496094 219.691406 207.203125 220.238281 206.628906 C 220.703125 206.054688 220.945312 205.332031 220.914062 204.59375 C 220.933594 203.945312 220.710938 203.308594 220.296875 202.808594 C 219.757812 202.265625 219.054688 201.914062 218.296875 201.808594 L 218.296875 198.164062 C 219.152344 198.15625 220.003906 198.324219 220.796875 198.664062 C 221.566406 198.992188 222.269531 199.46875 222.863281 200.058594 C 223.453125 200.652344 223.933594 201.347656 224.273438 202.109375 C 224.628906 202.886719 224.8125 203.730469 224.808594 204.585938 C 224.820312 205.484375 224.664062 206.378906 224.351562 207.21875 C 224.066406 207.972656 223.640625 208.664062 223.09375 209.253906 C 222.039062 210.386719 220.558594 211.027344 219.011719 211.023438 L 205.746094 211.023438 L 205.746094 207.414062 Z M 218.121094 207.425781 "/>
<path style=" stroke:none;fill-rule:nonzero;fill:rgb(0%,0%,0%);fill-opacity:1;" d="M 228.863281 189.199219 L 242.445312 189.199219 C 243.214844 189.195312 243.980469 189.367188 244.675781 189.699219 C 245.382812 190.042969 246.015625 190.53125 246.53125 191.128906 C 247.078125 191.773438 247.507812 192.511719 247.800781 193.304688 C 248.132812 194.167969 248.300781 195.085938 248.300781 196.011719 C 248.304688 196.863281 248.148438 197.710938 247.839844 198.511719 C 247.550781 199.273438 247.132812 199.976562 246.601562 200.59375 C 246.085938 201.191406 245.464844 201.683594 244.765625 202.046875 C 244.078125 202.40625 243.3125 202.59375 242.535156 202.59375 L 238.363281 202.59375 L 238.363281 199 L 242.144531 199 C 242.5 199.011719 242.847656 198.914062 243.144531 198.71875 C 243.429688 198.53125 243.671875 198.285156 243.855469 197.996094 C 244.046875 197.6875 244.183594 197.347656 244.261719 196.996094 C 244.339844 196.667969 244.382812 196.332031 244.386719 195.996094 C 244.382812 195.628906 244.328125 195.265625 244.226562 194.914062 C 244.121094 194.554688 243.964844 194.207031 243.765625 193.890625 C 243.574219 193.585938 243.320312 193.320312 243.023438 193.113281 C 242.738281 192.917969 242.398438 192.8125 242.050781 192.816406 L 232.648438 192.816406 L 232.648438 211.269531 L 228.863281 211.269531 Z M 228.863281 189.199219 "/>
<path style=" stroke:none;fill-rule:nonzero;fill:rgb(0%,0%,0%);fill-opacity:1;" d="M 257.914062 202.605469 L 257.914062 199 L 269.195312 199 L 269.195312 189.199219 L 273 189.199219 L 273 211.265625 L 269.214844 211.265625 L 269.214844 202.605469 Z M 252.574219 189.199219 L 256.429688 189.199219 L 256.429688 211.265625 L 252.574219 211.265625 Z M 252.574219 189.199219 "/>
<path style=" stroke:none;fill-rule:nonzero;fill:rgb(0%,0%,0%);fill-opacity:1;" d="M 276.5 211.265625 L 276.5 189.199219 L 293.296875 189.199219 L 293.296875 192.808594 L 280.296875 192.808594 L 280.296875 207.660156 L 293.296875 207.660156 L 293.296875 211.265625 Z M 293.089844 199 L 293.089844 202.609375 L 281.921875 202.609375 L 281.921875 199 Z M 293.089844 199 "/>
<path style=" stroke:none;fill-rule:nonzero;fill:rgb(0%,0%,0%);fill-opacity:1;" d="M 306.636719 199 L 311 199 C 311.355469 199.011719 311.703125 198.914062 312 198.71875 C 312.285156 198.53125 312.527344 198.285156 312.710938 197.996094 C 312.898438 197.6875 313.035156 197.347656 313.113281 196.996094 C 313.191406 196.667969 313.234375 196.332031 313.238281 195.996094 C 313.238281 195.628906 313.183594 195.265625 313.078125 194.914062 C 312.976562 194.554688 312.820312 194.207031 312.621094 193.890625 C 312.429688 193.582031 312.175781 193.320312 311.875 193.113281 C 311.589844 192.917969 311.25 192.8125 310.90625 192.816406 L 301.5 192.816406 L 301.5 211.269531 L 297.714844 211.269531 L 297.714844 189.199219 L 311.296875 189.199219 C 312.066406 189.195312 312.824219 189.367188 313.519531 189.699219 C 314.230469 190.042969 314.863281 190.53125 315.378906 191.128906 C 315.925781 191.777344 316.355469 192.511719 316.648438 193.304688 C 316.980469 194.167969 317.152344 195.085938 317.148438 196.011719 C 317.144531 197.5 316.679688 198.949219 315.820312 200.164062 C 315.417969 200.742188 314.921875 201.25 314.355469 201.664062 C 313.816406 202.066406 313.203125 202.351562 312.550781 202.5 L 317 211.265625 L 312.863281 211.265625 Z M 306.636719 199 "/>
<path style=" stroke:none;fill-rule:nonzero;fill:rgb(0%,0%,0%);fill-opacity:1;" d="M 321.203125 211.265625 L 321.203125 189.199219 L 338 189.199219 L 338 192.808594 L 325 192.808594 L 325 207.660156 L 338 207.660156 L 338 211.265625 Z M 337.789062 199 L 337.789062 202.609375 L 326.613281 202.609375 L 326.613281 199 Z M 337.789062 199 "/>
<path style=" stroke:none;fill-rule:nonzero;fill:url(#linear0);" d="M 248.796875 198.753906 L 251.574219 200.175781 L 251.574219 199.175781 L 249.074219 197.890625 C 249 198.183594 248.90625 198.472656 248.796875 198.753906 Z M 248.796875 198.753906 "/>
<path style=" stroke:none;fill-rule:nonzero;fill:url(#linear1);" d="M 145.664062 199.585938 L 141.976562 200.539062 L 141.976562 201.46875 L 144.433594 200.835938 L 141.976562 202.21875 L 141.976562 203.253906 L 145.664062 201.171875 Z M 145.664062 199.585938 "/>
<path style=" stroke:none;fill-rule:nonzero;fill:url(#linear2);" d="M 145.664062 197.996094 L 145.84375 197.996094 L 141.976562 195.804688 L 141.976562 196.839844 L 145.664062 198.929688 Z M 145.664062 197.996094 "/>
<path style=" stroke:none;fill-rule:nonzero;fill:url(#linear3);" d="M 243.234375 195.191406 C 243.199219 195.074219 243.15625 194.960938 243.109375 194.84375 L 241.074219 193.808594 L 239.074219 193.808594 L 243.335938 195.980469 C 243.335938 195.714844 243.304688 195.449219 243.234375 195.191406 Z M 243.234375 195.191406 "/>
<path style=" stroke:none;fill-rule:nonzero;fill:url(#linear4);" d="M 225.65625 203.148438 L 227.863281 201.273438 L 227.863281 200.101562 L 225.363281 202.203125 C 225.484375 202.511719 225.582031 202.828125 225.65625 203.148438 Z M 225.65625 203.148438 "/>
<path style=" stroke:none;fill-rule:nonzero;fill:url(#linear5);" d="M 237.210938 194.320312 L 237.464844 197.996094 L 238.371094 197.996094 L 238.109375 194.253906 C 238.382812 194.164062 238.628906 194.011719 238.828125 193.808594 L 235.300781 193.808594 L 233.648438 195.203125 L 233.648438 196.386719 L 236.464844 194.003906 C 236.6875 194.164062 236.941406 194.273438 237.210938 194.320312 Z M 237.210938 194.320312 "/>
<path style=" stroke:none;fill-rule:nonzero;fill:url(#linear6);" d="M 248.039062 191.539062 L 251.574219 191.039062 L 251.574219 190.148438 L 247.453125 190.710938 C 247.667969 190.972656 247.863281 191.25 248.039062 191.539062 Z M 248.039062 191.539062 "/>
<path style=" stroke:none;fill-rule:nonzero;fill:url(#linear7);" d="M 88.871094 182.613281 C 89.582031 182.476562 90.148438 181.933594 90.308594 181.226562 L 111.769531 180.839844 L 97.195312 188.199219 L 99.195312 188.199219 L 112.351562 181.558594 C 112.394531 181.613281 112.445312 181.664062 112.496094 181.714844 L 108.363281 189.445312 C 108.613281 189.625 108.847656 189.824219 109.070312 190.035156 L 109.898438 188.484375 L 109.710938 188.199219 L 110.050781 188.199219 L 113.289062 182.140625 C 113.433594 182.179688 113.585938 182.199219 113.734375 182.199219 C 114.238281 182.199219 114.71875 181.992188 115.066406 181.625 L 128.640625 189.300781 L 129.140625 188.554688 L 115.5 180.839844 C 115.550781 180.679688 115.574219 180.507812 115.574219 180.339844 C 115.578125 180.292969 115.578125 180.246094 115.574219 180.199219 L 154.621094 167.164062 C 154.789062 167.425781 155.023438 167.636719 155.296875 167.785156 L 150.09375 188.183594 L 150.785156 188.183594 C 150.863281 188.183594 150.941406 188.183594 151.019531 188.183594 L 156.164062 168 C 157.183594 168 158.011719 167.175781 158.011719 166.15625 C 158.007812 165.984375 157.980469 165.816406 157.929688 165.65625 L 167.386719 160.09375 L 167.480469 160.179688 L 152.828125 188.546875 C 153.039062 188.617188 153.242188 188.703125 153.441406 188.800781 C 153.515625 188.835938 153.578125 188.875 153.648438 188.914062 L 168.28125 160.59375 C 168.386719 160.621094 168.496094 160.636719 168.605469 160.640625 L 174.105469 188.183594 L 175 188.183594 L 169.5 160.5 C 169.804688 160.351562 170.066406 160.125 170.253906 159.84375 L 204.726562 171.660156 C 204.722656 171.710938 204.722656 171.761719 204.726562 171.816406 C 204.726562 172.203125 204.851562 172.578125 205.078125 172.890625 L 192.246094 188.15625 C 192.605469 188.179688 192.964844 188.21875 193.316406 188.28125 L 205.769531 173.464844 C 206.019531 173.589844 206.292969 173.660156 206.570312 173.660156 C 207.03125 173.65625 207.472656 173.476562 207.804688 173.160156 L 230.304688 188.203125 L 231.925781 188.203125 L 208.859375 172.796875 L 237.769531 179.5 C 237.78125 180.226562 238.21875 180.875 238.886719 181.160156 L 237.765625 188.203125 L 238.675781 188.203125 L 239.773438 181.296875 C 240.328125 181.25 240.832031 180.957031 241.148438 180.5 L 264 188.5 L 257.429688 189.390625 L 257.429688 190.300781 L 264.210938 189.378906 C 264.433594 189.945312 264.921875 190.363281 265.515625 190.496094 C 266.109375 190.628906 266.726562 190.457031 267.171875 190.039062 L 268.171875 190.710938 L 268.171875 189.636719 L 267.628906 189.285156 C 267.691406 189.105469 267.730469 188.917969 267.734375 188.730469 L 268.171875 188.628906 L 268.171875 188.230469 L 269.894531 188.230469 L 286.691406 184.351562 C 286.9375 184.835938 287.390625 185.1875 287.921875 185.308594 L 287.996094 188.230469 L 288.894531 188.230469 L 288.820312 185.28125 C 289.25 185.160156 289.625 184.890625 289.871094 184.515625 L 300.699219 188.230469 L 303.5 188.230469 L 290.179688 183.664062 C 290.183594 183.613281 290.183594 183.5625 290.179688 183.511719 C 290.183594 183.445312 290.183594 183.382812 290.179688 183.320312 L 306.851562 177.195312 C 307.191406 177.691406 307.75 177.992188 308.351562 178 C 308.417969 178.003906 308.484375 178.003906 308.550781 178 L 312.410156 188.363281 C 312.777344 188.433594 313.136719 188.535156 313.484375 188.671875 L 309.394531 177.695312 C 309.84375 177.386719 310.136719 176.894531 310.1875 176.347656 C 310.238281 175.804688 310.046875 175.265625 309.660156 174.878906 L 312.050781 170.929688 L 312.078125 170.929688 L 313.644531 188.730469 C 313.746094 188.769531 313.84375 188.804688 313.945312 188.855469 C 314.167969 188.960938 314.382812 189.082031 314.589844 189.214844 L 313 170.808594 C 313.648438 170.527344 314.011719 169.832031 313.871094 169.140625 C 313.734375 168.449219 313.132812 167.945312 312.425781 167.933594 C 312.222656 167.933594 312.023438 167.972656 311.839844 168.054688 L 306 161.226562 C 306.09375 161.054688 306.140625 160.863281 306.140625 160.671875 C 306.140625 160.097656 305.742188 159.605469 305.183594 159.484375 L 304.261719 154.054688 C 304.753906 153.75 304.960938 153.136719 304.753906 152.59375 C 304.546875 152.054688 303.984375 151.734375 303.414062 151.832031 C 302.84375 151.933594 302.421875 152.425781 302.414062 153.003906 C 302.402344 153.585938 302.808594 154.089844 303.375 154.210938 L 304.296875 159.636719 C 304.214844 159.6875 304.136719 159.746094 304.070312 159.816406 L 300.070312 158.121094 C 300.070312 158.121094 300.070312 158.121094 300.070312 158.09375 C 300.074219 157.511719 299.664062 157.007812 299.089844 156.894531 C 298.519531 156.777344 297.945312 157.082031 297.722656 157.621094 C 297.5 158.160156 297.6875 158.78125 298.171875 159.105469 C 298.65625 159.429688 299.304688 159.363281 299.714844 158.949219 L 303.691406 160.640625 C 303.691406 160.640625 303.691406 160.640625 303.691406 160.671875 C 303.691406 161.058594 303.878906 161.425781 304.195312 161.652344 C 304.511719 161.878906 304.921875 161.941406 305.289062 161.816406 L 311.144531 168.644531 C 310.996094 168.878906 310.914062 169.152344 310.914062 169.429688 C 310.914062 169.796875 311.046875 170.152344 311.289062 170.429688 L 308.894531 174.390625 C 308.722656 174.335938 308.542969 174.304688 308.359375 174.300781 C 307.898438 174.304688 307.457031 174.484375 307.121094 174.800781 L 289.324219 163 C 289.367188 162.867188 289.390625 162.730469 289.390625 162.589844 C 289.390625 161.761719 288.71875 161.089844 287.890625 161.089844 C 287.617188 161.089844 287.347656 161.167969 287.113281 161.308594 L 261.699219 139.046875 C 261.832031 138.785156 261.902344 138.5 261.90625 138.210938 C 261.90625 137.914062 261.832031 137.621094 261.691406 137.359375 L 270.285156 129.714844 C 270.410156 129.789062 270.542969 129.847656 270.679688 129.886719 C 270.800781 129.914062 270.925781 129.929688 271.050781 129.929688 C 271.585938 129.925781 272.082031 129.636719 272.347656 129.171875 C 272.609375 128.703125 272.605469 128.132812 272.335938 127.671875 C 271.90625 127.042969 271.078125 126.832031 270.40625 127.179688 C 269.730469 127.53125 269.421875 128.328125 269.691406 129.039062 L 261.101562 136.683594 C 260.792969 136.472656 260.429688 136.363281 260.058594 136.363281 C 259.972656 136.359375 259.886719 136.359375 259.800781 136.363281 L 248 107.761719 C 248.242188 107.5625 248.417969 107.289062 248.5 106.984375 C 248.703125 106.183594 248.21875 105.371094 247.421875 105.164062 C 246.621094 104.960938 245.804688 105.445312 245.601562 106.246094 C 245.539062 106.484375 245.539062 106.738281 245.601562 106.980469 L 220.136719 122.75 C 219.613281 122.246094 218.84375 122.097656 218.167969 122.367188 C 217.496094 122.636719 217.046875 123.28125 217.019531 124.003906 C 216.992188 124.730469 217.394531 125.40625 218.046875 125.726562 L 211.246094 158.226562 C 211.023438 158.230469 210.800781 158.28125 210.59375 158.363281 L 182.144531 121.039062 C 182.53125 120.566406 182.65625 119.929688 182.472656 119.34375 C 182.289062 118.761719 181.828125 118.304688 181.238281 118.136719 L 181.5 112.355469 C 182.425781 112.179688 183.078125 111.339844 183.015625 110.398438 C 182.953125 109.460938 182.199219 108.714844 181.257812 108.660156 C 180.316406 108.609375 179.484375 109.265625 179.316406 110.195312 C 179.152344 111.121094 179.703125 112.027344 180.605469 112.304688 L 180.339844 118.089844 C 179.980469 118.160156 179.652344 118.332031 179.394531 118.589844 L 158.71875 106.433594 C 158.773438 106.273438 158.800781 106.105469 158.804688 105.933594 C 158.804688 104.917969 157.980469 104.089844 156.960938 104.089844 C 156.691406 104.089844 156.425781 104.148438 156.183594 104.265625 L 145.78125 91.425781 C 146.296875 90.757812 146.277344 89.816406 145.734375 89.171875 L 153.125 79.316406 C 153.285156 79.375 153.453125 79.402344 153.625 79.40625 C 154.140625 79.398438 154.617188 79.128906 154.886719 78.691406 C 155.160156 78.25 155.183594 77.703125 154.953125 77.238281 L 165.789062 66.628906 C 166.28125 66.847656 166.859375 66.714844 167.207031 66.304688 C 167.554688 65.894531 167.589844 65.304688 167.296875 64.855469 C 167.003906 64.402344 166.449219 64.199219 165.933594 64.355469 C 165.417969 64.507812 165.0625 64.980469 165.066406 65.519531 C 165.066406 65.679688 165.097656 65.839844 165.160156 65.984375 L 154.324219 76.59375 C 154.242188 76.550781 154.15625 76.515625 154.066406 76.488281 L 154 61.34375 C 154.367188 61.195312 154.636719 60.878906 154.726562 60.492188 C 154.8125 60.105469 154.703125 59.699219 154.433594 59.410156 L 156.640625 54.859375 L 156.726562 54.859375 C 157.304688 54.863281 157.808594 54.460938 157.933594 53.894531 C 158.054688 53.328125 157.765625 52.753906 157.234375 52.515625 C 156.707031 52.28125 156.082031 52.445312 155.742188 52.917969 C 155.402344 53.386719 155.4375 54.03125 155.828125 54.460938 L 153.601562 59 L 153.515625 59 C 152.929688 58.996094 152.425781 59.410156 152.320312 59.988281 C 152.210938 60.5625 152.527344 61.132812 153.074219 61.339844 L 153.160156 76.480469 C 152.542969 76.679688 152.125 77.25 152.121094 77.894531 C 152.125 78.050781 152.152344 78.207031 152.199219 78.355469 L 120.425781 101.128906 C 120.097656 100.84375 119.675781 100.6875 119.238281 100.683594 C 118.222656 100.6875 117.398438 101.511719 117.394531 102.53125 C 117.394531 102.972656 117.558594 103.402344 117.855469 103.734375 L 96.304688 134.601562 C 96.097656 134.519531 95.878906 134.476562 95.65625 134.476562 C 94.777344 134.472656 94.023438 135.089844 93.847656 135.949219 C 93.667969 136.804688 94.121094 137.667969 94.925781 138.015625 L 88.355469 179 C 87.472656 179.066406 86.765625 179.753906 86.671875 180.632812 C 86.578125 181.511719 87.128906 182.328125 87.976562 182.578125 L 87.675781 188.21875 L 88.574219 188.21875 Z M 288.828125 163.738281 L 306.636719 175.5 C 306.5625 175.695312 306.527344 175.898438 306.523438 176.105469 C 306.523438 176.175781 306.523438 176.234375 306.523438 176.300781 L 289.859375 182.425781 C 289.597656 182.039062 289.199219 181.769531 288.746094 181.664062 L 288.375 164 C 288.542969 163.941406 288.695312 163.855469 288.828125 163.738281 Z M 114.328125 178.609375 C 113.84375 178.441406 113.308594 178.488281 112.863281 178.746094 L 96.363281 161.039062 C 96.558594 160.742188 96.660156 160.394531 96.660156 160.039062 C 96.660156 160.015625 96.660156 159.988281 96.660156 159.964844 L 132.703125 149.316406 C 132.769531 149.429688 132.851562 149.539062 132.941406 149.640625 Z M 116.433594 127.550781 L 124.589844 123.269531 C 125.085938 123.835938 125.882812 124.035156 126.589844 123.769531 L 142 146.609375 L 116.324219 128.609375 C 116.40625 128.402344 116.449219 128.179688 116.449219 127.953125 C 116.453125 127.820312 116.441406 127.683594 116.414062 127.550781 Z M 136.050781 148.828125 L 142 148.828125 C 142.121094 149.34375 142.460938 149.777344 142.925781 150.019531 C 143.390625 150.261719 143.941406 150.292969 144.429688 150.101562 L 153.984375 163.824219 L 135.933594 149.15625 C 135.976562 149.050781 136.011719 148.941406 136.03125 148.828125 Z M 134.269531 146.535156 C 133.949219 146.535156 133.636719 146.621094 133.359375 146.785156 L 118.15625 131 L 142.039062 147.71875 C 142.015625 147.785156 141.996094 147.855469 141.980469 147.925781 L 136.03125 147.925781 C 135.824219 147.109375 135.089844 146.535156 134.25 146.535156 Z M 143.351562 146.589844 C 143.28125 146.589844 143.21875 146.628906 143.15625 146.648438 L 127.328125 123.265625 C 127.996094 122.535156 127.957031 121.40625 127.246094 120.71875 L 143.824219 92.085938 L 143.859375 92.085938 Z M 132.710938 147.40625 C 132.523438 147.695312 132.425781 148.035156 132.425781 148.378906 C 132.425781 148.40625 132.425781 148.429688 132.425781 148.453125 L 96.386719 159.105469 C 96.3125 158.980469 96.226562 158.863281 96.125 158.761719 L 114.085938 129.761719 C 114.570312 129.929688 115.109375 129.871094 115.550781 129.605469 Z M 154.34375 166.324219 L 115.300781 179.359375 C 115.238281 179.265625 115.167969 179.175781 115.089844 179.09375 L 133.683594 150.121094 C 133.871094 150.1875 134.070312 150.222656 134.269531 150.226562 C 134.667969 150.222656 135.054688 150.09375 135.371094 149.855469 L 154.5 165.410156 C 154.382812 165.652344 154.324219 165.917969 154.320312 166.183594 C 154.320312 166.230469 154.320312 166.277344 154.324219 166.324219 Z M 157.488281 164.894531 C 157.144531 164.542969 156.671875 164.339844 156.175781 164.339844 C 155.953125 164.34375 155.734375 164.386719 155.523438 164.464844 L 145.148438 149.585938 L 145.230469 149.484375 L 166.871094 158.546875 C 166.855469 158.636719 166.847656 158.726562 166.84375 158.820312 C 166.851562 158.988281 166.875 159.15625 166.925781 159.320312 Z M 239.5 177.625 C 239.136719 177.648438 238.789062 177.777344 238.5 178 L 224.246094 166.703125 C 224.351562 166.464844 224.410156 166.207031 224.410156 165.945312 C 224.410156 165.800781 224.390625 165.660156 224.355469 165.519531 L 243.234375 155.644531 C 243.398438 155.828125 243.59375 155.976562 243.816406 156.085938 Z M 264.363281 187.648438 L 241.425781 179.621094 C 241.425781 179.566406 241.425781 179.511719 241.425781 179.460938 C 241.421875 178.75 241.011719 178.101562 240.371094 177.800781 L 244.664062 156.261719 C 244.824219 156.25 244.980469 156.21875 245.128906 156.171875 L 264.558594 187.386719 C 264.492188 187.46875 264.433594 187.554688 264.378906 187.648438 Z M 287.304688 163.960938 L 287.460938 164.011719 L 287.84375 181.710938 C 287.0625 181.929688 286.515625 182.632812 286.496094 183.445312 L 267.535156 187.824219 C 267.496094 187.742188 267.449219 187.664062 267.394531 187.589844 Z M 261.09375 139.726562 L 286.523438 162 C 286.441406 162.1875 286.398438 162.394531 286.398438 162.601562 C 286.398438 162.882812 286.480469 163.160156 286.636719 163.398438 L 266.71875 187 C 266.542969 186.914062 266.355469 186.859375 266.160156 186.835938 L 260.714844 139.921875 C 260.855469 139.871094 260.988281 139.804688 261.109375 139.726562 Z M 259.804688 140.03125 L 265.226562 186.726562 L 245.925781 155.699219 C 246.519531 155.09375 246.617188 154.15625 246.160156 153.441406 L 259.160156 139.808594 C 259.363281 139.925781 259.589844 140 259.820312 140.03125 Z M 246.050781 107.746094 C 246.222656 107.898438 246.429688 108.007812 246.65625 108.066406 C 246.773438 108.09375 246.898438 108.109375 247.019531 108.109375 L 247.144531 108.109375 L 258.949219 136.738281 C 258.773438 136.878906 258.621094 137.046875 258.5 137.238281 L 220.664062 124.238281 C 220.664062 124.191406 220.664062 124.140625 220.664062 124.089844 C 220.664062 123.902344 220.632812 123.714844 220.570312 123.535156 Z M 220.378906 125.078125 L 258.214844 138.078125 C 258.214844 138.136719 258.214844 138.179688 258.214844 138.234375 C 258.210938 138.589844 258.3125 138.9375 258.503906 139.234375 L 245.503906 152.871094 C 245.230469 152.707031 244.917969 152.621094 244.601562 152.621094 C 244.320312 152.621094 244.042969 152.6875 243.789062 152.816406 L 220.351562 125.144531 Z M 219.644531 125.726562 L 243.089844 153.355469 C 242.863281 153.664062 242.742188 154.035156 242.738281 154.421875 C 242.742188 154.566406 242.761719 154.710938 242.796875 154.851562 L 223.914062 164.726562 C 223.632812 164.40625 223.253906 164.199219 222.835938 164.128906 L 219.441406 125.808594 Z M 218.644531 127.136719 L 221.929688 164.210938 C 221.636719 164.3125 221.375 164.484375 221.164062 164.710938 L 213.109375 160.5 C 213.144531 160.359375 213.164062 160.214844 213.164062 160.070312 C 213.164062 159.367188 212.761719 158.726562 212.128906 158.421875 Z M 211.039062 161.878906 C 211.125 161.894531 211.210938 161.902344 211.296875 161.90625 C 211.820312 161.90625 212.320312 161.679688 212.664062 161.285156 L 220.769531 165.5 C 220.738281 165.640625 220.71875 165.78125 220.714844 165.925781 C 220.714844 166.945312 221.542969 167.769531 222.558594 167.769531 C 222.964844 167.769531 223.359375 167.632812 223.679688 167.386719 L 237.761719 178.550781 L 208.378906 171.738281 C 208.367188 171.164062 208.089844 170.628906 207.625 170.289062 Z M 180.585938 121.730469 L 180.683594 121.730469 C 180.933594 121.730469 181.179688 121.679688 181.410156 121.578125 L 209.859375 158.910156 C 209.542969 159.296875 209.402344 159.800781 209.464844 160.296875 C 209.53125 160.792969 209.800781 161.242188 210.203125 161.535156 L 206.796875 170 C 206.710938 169.984375 206.621094 169.976562 206.535156 169.976562 C 205.910156 169.976562 205.328125 170.292969 204.988281 170.816406 L 170.5 158.96875 C 170.5 158.921875 170.5 158.871094 170.5 158.820312 C 170.5 158.175781 170.160156 157.582031 169.609375 157.25 Z M 179.546875 121.339844 C 179.601562 121.386719 179.664062 121.425781 179.726562 121.464844 L 168.761719 156.964844 L 168.664062 156.964844 C 168.085938 156.964844 167.539062 157.238281 167.195312 157.703125 L 145.554688 148.644531 C 145.5625 148.554688 145.5625 148.460938 145.554688 148.371094 C 145.554688 148.117188 145.503906 147.867188 145.398438 147.636719 Z M 156.835938 107.765625 L 156.933594 107.765625 C 157.429688 107.765625 157.898438 107.566406 158.246094 107.214844 L 178.921875 119.371094 C 178.867188 119.53125 178.839844 119.699219 178.835938 119.871094 C 178.835938 120.121094 178.890625 120.371094 178.988281 120.605469 L 144.871094 146.910156 C 144.816406 146.863281 144.753906 146.824219 144.695312 146.785156 Z M 155.5 104.828125 C 155.261719 105.144531 155.128906 105.53125 155.128906 105.929688 C 155.128906 106.570312 155.457031 107.164062 156 107.5 L 144.238281 145.324219 L 144.738281 92.105469 C 144.859375 92.082031 144.972656 92.042969 145.078125 91.988281 Z M 151.5 80 L 145 88.640625 C 144.773438 88.546875 144.53125 88.5 144.285156 88.5 C 143.730469 88.5 143.203125 88.75 142.851562 89.179688 C 142.503906 89.609375 142.367188 90.175781 142.480469 90.71875 L 123.824219 99.820312 Z M 121.078125 102.566406 C 121.078125 102.4375 121.066406 102.308594 121.039062 102.183594 L 142.90625 91.5 C 142.945312 91.546875 142.980469 91.589844 143.023438 91.636719 L 126.441406 120.269531 C 126.277344 120.21875 126.109375 120.195312 125.941406 120.191406 C 125.886719 120.1875 125.835938 120.1875 125.785156 120.191406 L 120.246094 104.066406 C 120.761719 103.730469 121.078125 103.15625 121.085938 102.539062 Z M 119.359375 104.398438 L 119.390625 104.398438 L 124.933594 120.5 C 124.410156 120.835938 124.09375 121.417969 124.09375 122.039062 C 124.09375 122.1875 124.113281 122.332031 124.148438 122.476562 L 116 126.753906 C 115.828125 126.566406 115.621094 126.410156 115.390625 126.304688 Z M 118.425781 104.515625 L 114.5 126.148438 C 113.535156 126.214844 112.785156 127.015625 112.78125 127.980469 C 112.78125 128.082031 112.792969 128.1875 112.808594 128.289062 L 97.101562 135.199219 C 97.085938 135.171875 97.0625 135.148438 97.039062 135.128906 Z M 96.035156 138.160156 C 96.882812 137.976562 97.492188 137.222656 97.496094 136.355469 C 97.492188 136.253906 97.484375 136.152344 97.464844 136.050781 L 113.171875 129.136719 C 113.210938 129.1875 113.253906 129.242188 113.300781 129.289062 L 95.335938 158.316406 L 95.296875 158.316406 Z M 94.929688 143.660156 L 94.394531 158.25 C 93.65625 158.40625 93.085938 159.003906 92.960938 159.75 C 92.839844 160.496094 93.183594 161.242188 93.835938 161.628906 L 90.019531 174.273438 Z M 94.695312 161.890625 L 94.78125 161.890625 C 95.089844 161.890625 95.394531 161.808594 95.664062 161.65625 L 112.164062 179.359375 C 112.050781 179.539062 111.96875 179.734375 111.921875 179.941406 L 90.273438 180.328125 C 90.152344 179.871094 89.851562 179.480469 89.445312 179.234375 Z M 94.695312 161.890625 "/>
<path style=" stroke:none;fill-rule:nonzero;fill:url(#linear8);" d="M 147.65625 197.691406 C 147.300781 197.691406 146.953125 197.796875 146.65625 197.996094 L 148.960938 197.996094 L 150.960938 194.109375 C 150.894531 194.046875 150.828125 193.988281 150.753906 193.933594 C 150.632812 193.851562 150.492188 193.808594 150.34375 193.808594 L 150.105469 193.808594 L 149.066406 195.808594 L 149.566406 193.808594 L 148.648438 193.808594 L 147.648438 197.691406 Z M 147.65625 197.691406 "/>
<path style=" stroke:none;fill-rule:nonzero;fill:url(#linear9);" d="M 294.089844 201.753906 L 296.726562 200.613281 L 296.726562 199.628906 L 294.089844 200.773438 Z M 294.089844 201.753906 "/>
<path style=" stroke:none;fill-rule:nonzero;fill:url(#linear10);" d="M 249.253906 195.5 L 251.574219 196 L 251.574219 195.078125 L 249.15625 194.578125 C 249.207031 194.882812 249.238281 195.191406 249.253906 195.5 Z M 249.253906 195.5 "/>
<path style=" stroke:none;fill-rule:nonzero;fill:url(#linear11);" d="M 242.429688 193.933594 C 242.308594 193.851562 242.167969 193.808594 242.019531 193.808594 L 241.441406 193.808594 L 242.566406 194.050781 C 242.523438 194.007812 242.476562 193.96875 242.429688 193.933594 Z M 242.429688 193.933594 "/>
<path style=" stroke:none;fill-rule:nonzero;fill:url(#linear12);" d="M 311.539062 210.871094 C 310.945312 211.191406 310.574219 211.808594 310.574219 212.484375 L 290.574219 217.835938 C 290.328125 217.386719 289.90625 217.0625 289.410156 216.941406 L 289.371094 212.238281 L 288.5 212.238281 L 288.5 217 C 288.144531 217.09375 287.824219 217.289062 287.578125 217.566406 L 277.238281 212.289062 L 275.5 212.289062 L 275.5 211.398438 L 274 210.59375 L 274 211.59375 L 287.203125 218.328125 C 287.1875 218.414062 287.175781 218.5 287.171875 218.585938 L 241.953125 226 C 241.652344 225.355469 241.003906 224.945312 240.296875 224.945312 L 240.238281 224.945312 L 238.738281 203.613281 L 237.839844 203.613281 L 239.339844 225.203125 C 239.066406 225.367188 238.839844 225.597656 238.683594 225.875 L 211.539062 216.214844 C 211.539062 216.15625 211.539062 216.101562 211.539062 216.039062 C 211.539062 215.761719 211.472656 215.484375 211.351562 215.234375 L 215.121094 212.046875 L 213.726562 212.046875 L 210.769531 214.546875 C 210.359375 214.246094 209.84375 214.128906 209.347656 214.222656 C 208.847656 214.316406 208.410156 214.617188 208.140625 215.046875 L 196.390625 211.226562 C 196.265625 211.28125 196.148438 211.351562 196.023438 211.40625 C 195.71875 211.535156 195.414062 211.644531 195.101562 211.75 L 207.863281 215.898438 C 207.863281 215.941406 207.863281 215.984375 207.863281 216.023438 C 207.867188 216.363281 207.960938 216.699219 208.144531 216.984375 L 180.144531 245.574219 C 179.980469 245.476562 179.800781 245.40625 179.613281 245.359375 L 178.5 207.5 C 178.9375 207.375 179.3125 207.09375 179.554688 206.710938 L 181.273438 207.269531 C 181.003906 206.886719 180.757812 206.492188 180.53125 206.078125 L 179.828125 205.855469 C 179.832031 205.8125 179.832031 205.773438 179.828125 205.730469 C 179.828125 205.34375 179.703125 204.96875 179.476562 204.65625 L 179.730469 204.351562 C 179.609375 204.015625 179.503906 203.675781 179.414062 203.324219 L 178.785156 204.074219 C 178.5625 203.96875 178.320312 203.90625 178.074219 203.894531 L 176.074219 193.824219 L 175.15625 193.824219 L 177.195312 204.070312 C 176.816406 204.25 176.507812 204.554688 176.324219 204.933594 L 171.824219 204.015625 L 171.824219 204.933594 L 176.160156 205.816406 C 176.164062 205.902344 176.171875 205.988281 176.183594 206.074219 L 171.824219 208.101562 L 171.824219 209.101562 L 176.570312 206.898438 L 176.640625 206.980469 L 155.066406 239.75 C 154.269531 239.460938 153.382812 239.757812 152.925781 240.46875 L 125.796875 230.96875 C 125.796875 230.914062 125.796875 230.863281 125.796875 230.804688 C 125.796875 230.691406 125.785156 230.578125 125.761719 230.464844 L 166.011719 211.785156 L 166.011719 210.785156 L 125.398438 229.628906 L 138.554688 212.265625 L 137.425781 212.265625 L 124.675781 229.101562 C 124.1875 228.886719 123.628906 228.898438 123.148438 229.128906 C 122.667969 229.359375 122.3125 229.789062 122.175781 230.304688 L 95.308594 229.628906 C 95.308594 229.605469 95.308594 229.578125 95.308594 229.554688 L 126 212.265625 L 124.171875 212.265625 L 94.890625 228.765625 C 94.71875 228.585938 94.515625 228.445312 94.289062 228.34375 L 96.558594 214.636719 C 97.511719 214.558594 98.246094 213.761719 98.25 212.804688 L 105 211.046875 L 104.585938 210.21875 L 98 211.921875 C 97.902344 211.742188 97.773438 211.582031 97.625 211.445312 L 101.5 204.179688 L 101 203.179688 L 96.824219 211 C 96.679688 210.960938 96.53125 210.941406 96.378906 210.941406 C 96.210938 210.945312 96.042969 210.972656 95.878906 211.019531 L 95.878906 212.246094 L 94.640625 212.246094 C 94.585938 212.417969 94.554688 212.601562 94.550781 212.785156 C 94.550781 213.519531 94.988281 214.179688 95.660156 214.476562 L 93.558594 227.175781 L 91.246094 212.246094 L 90.328125 212.246094 L 92.828125 228.316406 C 92.019531 228.65625 91.5625 229.519531 91.738281 230.382812 C 91.914062 231.242188 92.671875 231.863281 93.550781 231.859375 C 93.71875 231.859375 93.886719 231.835938 94.050781 231.785156 L 108.949219 258.121094 C 108.207031 258.726562 108.058594 259.804688 108.609375 260.589844 C 109.15625 261.375 110.21875 261.605469 111.046875 261.121094 L 133.140625 286.710938 C 132.582031 287.523438 132.769531 288.636719 133.5625 289.222656 C 134.351562 289.8125 135.46875 289.671875 136.089844 288.90625 L 175.589844 306.59375 C 175.570312 306.699219 175.558594 306.808594 175.558594 306.914062 C 175.566406 307.851562 176.273438 308.636719 177.207031 308.738281 C 178.140625 308.839844 179 308.226562 179.203125 307.308594 L 217.5 306.175781 C 217.742188 307.066406 218.609375 307.640625 219.527344 307.511719 C 220.441406 307.386719 221.121094 306.601562 221.113281 305.675781 L 240.613281 300.851562 C 241.046875 301.65625 242.003906 302.019531 242.859375 301.710938 C 243.71875 301.402344 244.222656 300.507812 244.039062 299.613281 L 263.539062 290.285156 C 263.882812 290.710938 264.402344 290.957031 264.949219 290.953125 C 265.96875 290.953125 266.796875 290.128906 266.796875 289.109375 C 266.792969 288.78125 266.703125 288.460938 266.53125 288.179688 L 282.304688 272.554688 C 282.589844 272.734375 282.917969 272.828125 283.253906 272.828125 C 284.265625 272.828125 285.089844 272.011719 285.101562 271 C 285.097656 270.5625 284.941406 270.144531 284.65625 269.816406 L 299.460938 249.226562 C 299.675781 249.3125 299.902344 249.359375 300.136719 249.359375 C 300.945312 249.351562 301.660156 248.816406 301.886719 248.039062 C 302.117188 247.257812 301.8125 246.421875 301.136719 245.976562 L 312.238281 214.324219 L 312.40625 214.324219 C 313.425781 214.324219 314.25 213.5 314.25 212.480469 C 314.253906 212.40625 314.253906 212.332031 314.25 212.261719 L 312.25 212.261719 Z M 242.128906 226.871094 L 287.285156 219.5 C 287.359375 219.671875 287.464844 219.832031 287.589844 219.96875 L 270.949219 243.773438 C 270.742188 243.695312 270.523438 243.652344 270.300781 243.648438 C 269.820312 243.652344 269.359375 243.839844 269.015625 244.175781 L 242 227.5 C 242.082031 227.300781 242.125 227.085938 242.128906 226.871094 Z M 241.414062 228.230469 L 268.546875 244.945312 C 268.488281 245.121094 268.457031 245.308594 268.453125 245.496094 C 268.453125 245.765625 268.515625 246.035156 268.636719 246.28125 L 252.5 259.5 C 252.183594 259.265625 251.800781 259.136719 251.40625 259.136719 C 251.359375 259.132812 251.3125 259.132812 251.265625 259.136719 L 240.964844 228.5 C 241.128906 228.433594 241.277344 228.339844 241.414062 228.230469 Z M 244.851562 280.675781 L 228.640625 288.921875 C 228.292969 288.515625 227.789062 288.28125 227.253906 288.28125 C 226.953125 288.28125 226.660156 288.359375 226.394531 288.503906 L 215.585938 276.503906 C 215.789062 276.199219 215.894531 275.839844 215.894531 275.476562 C 215.890625 274.703125 215.410156 274.015625 214.683594 273.75 L 215.90625 262.175781 C 216.277344 262.121094 216.628906 261.957031 216.90625 261.699219 L 244.90625 279.660156 C 244.835938 279.847656 244.800781 280.042969 244.800781 280.238281 C 244.800781 280.386719 244.816406 280.53125 244.851562 280.675781 Z M 215 262.109375 L 213.78125 273.683594 C 213.476562 273.726562 213.1875 273.84375 212.941406 274.023438 L 181.578125 248.5 L 213.820312 260.199219 C 213.820312 260.265625 213.820312 260.324219 213.820312 260.386719 C 213.816406 261.148438 214.289062 261.835938 215 262.109375 Z M 212.894531 276.933594 L 205.894531 292.324219 C 205.785156 292.308594 205.675781 292.296875 205.566406 292.296875 C 205.109375 292.300781 204.671875 292.480469 204.339844 292.796875 L 179.105469 275.890625 C 179.105469 275.839844 179.140625 275.785156 179.15625 275.734375 L 212.265625 275.960938 C 212.363281 276.347656 212.589844 276.691406 212.90625 276.933594 Z M 213.710938 277.316406 C 213.820312 277.335938 213.929688 277.34375 214.039062 277.34375 C 214.339844 277.34375 214.636719 277.265625 214.898438 277.125 L 225.714844 289.125 C 225.535156 289.394531 225.429688 289.710938 225.414062 290.035156 L 207.230469 293.394531 C 207.109375 293.136719 206.929688 292.90625 206.703125 292.730469 Z M 217.378906 260.964844 L 217.410156 260.859375 L 249.605469 261.359375 C 249.730469 261.875 250.066406 262.3125 250.535156 262.558594 L 246.625 278.398438 C 246.160156 278.402344 245.714844 278.582031 245.378906 278.898438 Z M 239.324219 228.34375 C 239.546875 228.476562 239.789062 228.5625 240.046875 228.59375 L 250.40625 259.410156 C 250.023438 259.65625 249.742188 260.039062 249.625 260.480469 L 217.429688 259.980469 C 217.359375 259.699219 217.230469 259.441406 217.046875 259.21875 Z M 208.800781 217.621094 C 209.082031 217.785156 209.398438 217.871094 209.726562 217.875 C 210.339844 217.875 210.917969 217.566406 211.261719 217.054688 L 238.453125 226.730469 C 238.453125 226.730469 238.453125 226.761719 238.453125 226.773438 C 238.457031 227.097656 238.542969 227.414062 238.703125 227.691406 L 216.328125 258.691406 C 216.113281 258.601562 215.882812 258.554688 215.648438 258.554688 C 215.039062 258.554688 214.464844 258.863281 214.125 259.371094 L 181.066406 247.371094 C 181.066406 247.308594 181.066406 247.25 181.066406 247.183594 C 181.0625 246.847656 180.964844 246.515625 180.785156 246.230469 Z M 180.328125 248.621094 L 212.378906 274.703125 C 212.335938 274.808594 212.296875 274.914062 212.269531 275.019531 L 179.160156 274.796875 C 179.007812 274.175781 178.546875 273.679688 177.941406 273.484375 L 179.566406 249 C 179.84375 248.941406 180.105469 248.820312 180.328125 248.640625 Z M 177.414062 207.429688 C 177.480469 207.457031 177.550781 207.480469 177.621094 207.496094 L 178.730469 245.378906 C 178.238281 245.519531 177.832031 245.855469 177.601562 246.308594 L 156.304688 241.425781 C 156.292969 240.976562 156.113281 240.550781 155.804688 240.226562 Z M 159.03125 286.039062 C 158.585938 286.214844 158.226562 286.550781 158.03125 286.984375 L 149.746094 285.421875 C 149.699219 284.71875 149.265625 284.105469 148.621094 283.828125 L 154.421875 244.949219 Z M 154.875 287.308594 L 148.375 287.308594 C 148.90625 287.171875 149.347656 286.804688 149.578125 286.308594 Z M 153.101562 242.71875 C 153.28125 242.921875 153.5 243.082031 153.75 243.191406 L 147.703125 283.691406 C 147.644531 283.683594 147.582031 283.683594 147.519531 283.691406 L 133.570312 254.644531 C 133.992188 254.296875 134.238281 253.78125 134.238281 253.234375 C 134.238281 253.085938 134.21875 252.933594 134.179688 252.789062 Z M 125.5 231.816406 L 152.628906 241.316406 C 152.628906 241.371094 152.628906 241.425781 152.628906 241.480469 C 152.632812 241.628906 152.652344 241.78125 152.691406 241.925781 L 133.769531 252.03125 C 133.425781 251.640625 132.929688 251.421875 132.410156 251.421875 C 132.339844 251.414062 132.273438 251.414062 132.203125 251.421875 L 125 232.316406 C 125.195312 232.183594 125.367188 232.011719 125.5 231.816406 Z M 95.296875 230.53125 L 122.164062 231.199219 C 122.355469 232.039062 123.097656 232.640625 123.960938 232.644531 C 124.03125 232.644531 124.101562 232.644531 124.164062 232.644531 L 131.339844 251.773438 C 131.25 251.839844 131.164062 251.90625 131.085938 251.984375 L 95.285156 230.585938 C 95.289062 230.566406 95.292969 230.546875 95.300781 230.53125 Z M 110.179688 257.628906 C 110.011719 257.632812 109.84375 257.65625 109.679688 257.699219 L 94.78125 231.363281 L 94.816406 231.339844 L 130.613281 252.738281 C 130.5625 252.902344 130.535156 253.070312 130.53125 253.238281 L 111.753906 258.5 C 111.417969 257.957031 110.824219 257.628906 110.183594 257.628906 Z M 133.785156 286.128906 L 111.691406 260.539062 C 111.90625 260.230469 112.023438 259.863281 112.023438 259.484375 L 130.820312 254.234375 C 131.089844 254.683594 131.539062 254.996094 132.054688 255.089844 L 134.054688 286.019531 C 133.964844 286.042969 133.875 286.078125 133.789062 286.121094 Z M 134.941406 285.960938 L 133 255.554688 L 146.726562 284.121094 C 146.347656 284.433594 146.109375 284.890625 146.070312 285.378906 L 136.300781 287 C 136.050781 286.449219 135.542969 286.054688 134.945312 285.949219 Z M 147.441406 287.320312 L 140 287.320312 L 146.191406 286.28125 C 146.421875 286.792969 146.878906 287.171875 147.425781 287.308594 Z M 136.734375 288.21875 L 157.910156 288.21875 C 158.042969 288.773438 158.429688 289.234375 158.953125 289.460938 C 159.472656 289.691406 160.070312 289.660156 160.570312 289.386719 L 175.570312 305.609375 Z M 176.941406 305.136719 C 176.789062 305.175781 176.644531 305.230469 176.511719 305.304688 L 161.234375 288.773438 C 161.582031 288.246094 161.636719 287.578125 161.371094 287.003906 C 161.109375 286.429688 160.566406 286.03125 159.941406 285.949219 L 155.128906 243.253906 L 176 274.03125 C 175.699219 274.363281 175.53125 274.800781 175.53125 275.25 C 175.535156 276.09375 176.109375 276.828125 176.925781 277.035156 Z M 177.054688 273.449219 C 176.953125 273.472656 176.855469 273.5 176.761719 273.535156 L 155.851562 242.71875 C 155.949219 242.601562 156.039062 242.472656 156.109375 242.335938 L 177.40625 247.214844 C 177.425781 247.996094 177.9375 248.679688 178.679688 248.925781 Z M 178.824219 305.773438 C 178.570312 305.457031 178.21875 305.234375 177.824219 305.136719 L 177.824219 277.035156 C 178.117188 276.960938 178.382812 276.816406 178.605469 276.613281 L 203.835938 293.5 C 203.761719 293.699219 203.722656 293.910156 203.71875 294.121094 C 203.722656 294.230469 203.734375 294.339844 203.753906 294.445312 Z M 217.488281 305.273438 L 179.613281 306.394531 L 204.144531 295.285156 C 204.75 296.054688 205.855469 296.207031 206.644531 295.628906 L 217.621094 304.871094 C 217.566406 305 217.523438 305.136719 217.5 305.273438 Z M 219.289062 303.828125 C 218.902344 303.828125 218.527344 303.953125 218.214844 304.179688 L 207.214844 294.945312 C 207.320312 294.730469 207.382812 294.5 207.394531 294.261719 L 225.578125 290.894531 C 225.6875 291.128906 225.84375 291.335938 226.035156 291.503906 L 219.683594 303.878906 C 219.550781 303.847656 219.414062 303.832031 219.273438 303.828125 Z M 220.695312 304.496094 C 220.636719 304.421875 220.574219 304.355469 220.503906 304.296875 L 226.855469 291.921875 C 226.992188 291.957031 227.128906 291.972656 227.269531 291.976562 C 227.921875 291.972656 228.519531 291.625 228.851562 291.066406 L 240.421875 294.5 C 240.421875 294.5 240.421875 294.546875 240.421875 294.570312 C 240.417969 294.695312 240.429688 294.820312 240.453125 294.945312 Z M 241.824219 298.203125 C 241.007812 298.410156 240.433594 299.140625 240.429688 299.980469 L 223.351562 304.199219 L 240.851562 295.734375 C 241.097656 296.035156 241.433594 296.246094 241.808594 296.339844 Z M 242.273438 292.703125 C 241.625 292.707031 241.023438 293.054688 240.691406 293.613281 L 229.109375 290.195312 C 229.109375 290.195312 229.109375 290.148438 229.109375 290.125 C 229.109375 289.988281 229.09375 289.847656 229.058594 289.714844 L 245.261719 281.5 C 245.382812 281.640625 245.527344 281.761719 245.691406 281.859375 L 242.351562 292.746094 Z M 243.683594 298.808594 C 243.4375 298.511719 243.101562 298.296875 242.726562 298.199219 L 242.726562 296.335938 C 243.535156 296.132812 244.105469 295.410156 244.113281 294.574219 L 260.949219 290.539062 Z M 263.121094 289.089844 L 243.898438 293.699219 C 243.742188 293.402344 243.511719 293.15625 243.226562 292.980469 L 246.570312 282.09375 L 246.660156 282.09375 C 247.207031 282.09375 247.722656 281.851562 248.070312 281.429688 L 263.15625 288.730469 C 263.128906 288.851562 263.109375 288.972656 263.105469 289.09375 Z M 263.558594 287.929688 L 248.46875 280.636719 C 248.628906 279.832031 248.246094 279.019531 247.523438 278.636719 L 251.433594 262.796875 C 251.554688 262.792969 251.675781 262.78125 251.796875 262.753906 L 263.796875 287.699219 C 263.703125 287.769531 263.621094 287.847656 263.546875 287.933594 Z M 264.734375 287.289062 C 264.6875 287.289062 264.640625 287.289062 264.59375 287.289062 L 252.59375 262.351562 C 253.015625 262.003906 253.261719 261.484375 253.265625 260.941406 C 253.265625 260.667969 253.203125 260.398438 253.085938 260.15625 L 269.203125 247 C 269.335938 247.097656 269.480469 247.179688 269.636719 247.238281 Z M 281.683594 271.914062 L 265.898438 287.546875 C 265.808594 287.488281 265.714844 287.441406 265.613281 287.398438 L 270.53125 247.320312 L 270.703125 247.296875 L 282.046875 269.605469 C 281.371094 270.179688 281.210938 271.160156 281.671875 271.921875 Z M 283.945312 269.269531 C 283.730469 269.183594 283.5 269.140625 283.269531 269.140625 C 283.132812 269.140625 282.996094 269.15625 282.859375 269.183594 L 271.5 246.878906 C 271.75 246.664062 271.9375 246.382812 272.039062 246.066406 L 298.320312 247.828125 C 298.378906 248.144531 298.515625 248.441406 298.726562 248.683594 Z M 298.40625 246.929688 L 272.125 245.164062 C 272.066406 244.839844 271.917969 244.539062 271.699219 244.289062 L 288.339844 220.464844 C 288.546875 220.546875 288.769531 220.589844 288.996094 220.589844 C 289.070312 220.59375 289.144531 220.59375 289.21875 220.589844 L 299.070312 246 C 298.75 246.230469 298.511719 246.558594 298.390625 246.933594 Z M 300.316406 245.671875 C 300.261719 245.671875 300.203125 245.671875 300.148438 245.671875 C 300.074219 245.671875 300 245.683594 299.925781 245.695312 L 290.058594 220.269531 C 290.546875 219.925781 290.835938 219.367188 290.839844 218.769531 C 290.839844 218.761719 290.839844 218.753906 290.839844 218.746094 L 310.839844 213.398438 C 310.980469 213.65625 311.179688 213.878906 311.425781 214.039062 Z M 300.316406 245.671875 "/>
<path style=" stroke:none;fill-rule:nonzero;fill:url(#linear13);" d="M 141.976562 206.285156 L 141.976562 207.78125 L 145.664062 202.90625 L 145.664062 201.414062 Z M 141.976562 206.285156 "/>
<path style=" stroke:none;fill-rule:nonzero;fill:url(#linear14);" d="M 126.003906 205.601562 L 136.191406 202.964844 L 136.191406 202.035156 L 126.003906 204.675781 Z M 126.003906 205.601562 "/>
<path style=" stroke:none;fill-rule:nonzero;fill:url(#linear15);" d="M 155.664062 201.261719 C 155.570312 201.363281 155.46875 201.464844 155.371094 201.566406 L 166.023438 203.734375 L 166.023438 202.816406 L 156.023438 200.78125 C 155.914062 200.941406 155.796875 201.101562 155.664062 201.261719 Z M 155.664062 201.261719 "/>
<path style=" stroke:none;fill-rule:nonzero;fill:url(#linear16);" d="M 126.003906 212.25 L 136.191406 206.511719 L 136.191406 205.480469 L 126.003906 211.21875 Z M 126.003906 212.25 "/>
<path style=" stroke:none;fill-rule:nonzero;fill:url(#linear17);" d="M 273.980469 200.804688 L 275.511719 201.128906 L 275.511719 200.210938 L 273.980469 199.886719 Z M 273.980469 200.804688 "/>
<path style=" stroke:none;fill-rule:nonzero;fill:url(#linear18);" d="M 186.746094 195.78125 C 186.242188 196.28125 185.820312 196.863281 185.5 197.5 L 187.5 195.144531 C 187.234375 195.335938 186.980469 195.550781 186.746094 195.78125 Z M 186.746094 195.78125 "/>
<path style=" stroke:none;fill-rule:nonzero;fill:url(#linear19);" d="M 120.113281 206.195312 L 110.203125 208.761719 L 110.621094 209.585938 L 120.113281 207.125 Z M 120.113281 206.195312 "/>
<path style=" stroke:none;fill-rule:nonzero;fill:url(#linear20);" d="M 133.796875 192.214844 L 136.191406 193.570312 L 136.191406 192.535156 L 134.300781 191.46875 Z M 133.796875 192.214844 "/>
<path style=" stroke:none;fill-rule:nonzero;fill:url(#linear21);" d="M 287 203.605469 C 287.03125 204.429688 287.601562 205.132812 288.398438 205.328125 L 288.398438 206.660156 L 289.300781 206.660156 L 289.300781 205.320312 C 290.085938 205.113281 290.648438 204.417969 290.679688 203.605469 Z M 287 203.605469 "/>
<path style=" stroke:none;fill-rule:nonzero;fill:url(#linear22);" d="M 257.429688 197.246094 L 260.921875 197.996094 L 265.203125 197.996094 L 257.429688 196.324219 Z M 257.429688 197.246094 "/>
<path style=" stroke:none;fill-rule:nonzero;fill:url(#linear23);" d="M 104.339844 198 C 104.492188 198.011719 104.644531 197.96875 104.773438 197.886719 C 104.835938 197.84375 104.890625 197.800781 104.945312 197.75 L 105.480469 196.75 C 105.539062 196.507812 105.570312 196.257812 105.570312 196.003906 C 105.566406 195.734375 105.527344 195.464844 105.449219 195.203125 L 105.386719 195.023438 L 103.789062 198.023438 Z M 104.339844 198 "/>
<path style=" stroke:none;fill-rule:nonzero;fill:url(#linear24);" d="M 268.195312 207.644531 L 260.273438 203.605469 L 258.296875 203.605469 L 268.195312 208.65625 Z M 268.195312 207.644531 "/>
<path style=" stroke:none;fill-rule:nonzero;fill:url(#linear25);" d="M 311.289062 193.933594 C 311.167969 193.851562 311.027344 193.808594 310.878906 193.808594 L 310.140625 193.808594 L 302.5 197.121094 L 302.5 198.121094 L 311.550781 194.195312 C 311.472656 194.097656 311.386719 194.011719 311.289062 193.933594 Z M 311.289062 193.933594 "/>
<path style=" stroke:none;fill-rule:nonzero;fill:url(#linear26);" d="M 273.980469 194.429688 L 275.511719 195.421875 L 275.511719 194.351562 L 273.980469 193.355469 Z M 273.980469 194.429688 "/>
<path style=" stroke:none;fill-rule:nonzero;fill:url(#linear27);" d="M 288.265625 197.996094 L 289.164062 197.996094 L 289.058594 193.808594 L 288.160156 193.808594 Z M 288.265625 197.996094 "/>
<path style=" stroke:none;fill-rule:nonzero;fill:url(#linear28);" d="M 88.566406 195.125 C 89.25 194.839844 89.695312 194.171875 89.695312 193.429688 C 89.695312 193.292969 89.675781 193.15625 89.644531 193.023438 L 90.078125 192.804688 L 90.078125 191.804688 L 89.234375 192.234375 C 89.011719 191.976562 88.71875 191.785156 88.390625 191.683594 L 88.476562 190.140625 L 86.355469 194.5 C 86.664062 194.933594 87.144531 195.210938 87.675781 195.261719 L 90.078125 210.761719 L 90.078125 204.886719 Z M 88.566406 195.125 "/>
</g>
</svg>
