<?xml version="1.0" encoding="UTF-8"?>
<svg xmlns="http://www.w3.org/2000/svg" xmlns:xlink="http://www.w3.org/1999/xlink" width="308px" height="63px" viewBox="0 0 307 63" version="1.1">
<g id="surface1">
<path style=" stroke:none;fill-rule:nonzero;fill:rgb(0%,0%,0%);fill-opacity:1;" d="M 14.207031 10.289062 C 11.351562 11.820312 7.527344 15.390625 5.734375 18.226562 C 4.171875 20.695312 2.910156 23.695312 3.308594 24.027344 C 3.441406 24.128906 4.136719 24.664062 4.867188 25.164062 C 6.332031 26.261719 7.0625 27.765625 7.0625 29.765625 C 7.0625 31.367188 6.597656 32.367188 4.269531 35.667969 C 2.507812 38.171875 2.441406 38.9375 3.9375 39.90625 C 4.636719 40.40625 4.835938 40.40625 5.5 39.9375 C 6.265625 39.4375 11.816406 31.566406 19.792969 19.691406 C 24.011719 13.390625 24.3125 12.824219 23.78125 12.421875 C 21.488281 10.6875 18.429688 9.019531 17.53125 9.019531 C 17 9.019531 15.503906 9.585938 14.207031 10.289062 Z M 14.207031 10.289062 "/>
<path style=" stroke:none;fill-rule:nonzero;fill:rgb(0%,0%,0%);fill-opacity:1;" d="M 27.335938 15.625 C 26.636719 16.226562 26.175781 16.859375 18.796875 27.496094 C 10.953125 38.871094 8.226562 42.40625 6.597656 43.441406 C 4.9375 44.472656 4.4375 45.574219 5.003906 46.875 C 5.203125 47.34375 5.765625 47.777344 6.199219 47.910156 C 8.125 48.375 8.625 47.875 15.273438 38.503906 C 22.183594 28.832031 22.917969 28.066406 26.238281 27.195312 C 27.96875 26.765625 28.398438 26.765625 30.128906 27.195312 C 34.679688 28.398438 37.640625 32 37.640625 36.371094 C 37.640625 38.804688 36.976562 40.371094 34.351562 44.042969 C 27.203125 54.011719 27.003906 54.378906 28.300781 55.679688 C 29.164062 56.546875 30.660156 56.582031 31.554688 55.714844 C 32.320312 55.046875 32.453125 54.644531 32.785156 52.644531 C 32.988281 51.476562 34.117188 49.644531 39.402344 42.039062 C 42.957031 36.871094 47.84375 29.601562 48.242188 28.796875 C 48.574219 28.164062 48.507812 27.964844 47.742188 27.496094 C 47.078125 27.03125 46.777344 26.996094 46.3125 27.296875 C 43.121094 29.601562 40.464844 29.53125 38.238281 27.164062 C 37.042969 25.894531 36.375 23.394531 36.910156 22.226562 C 37.40625 21.09375 36.675781 20.292969 33.316406 18.328125 C 31.957031 17.523438 30.761719 16.792969 30.660156 16.691406 C 30.5625 16.589844 29.929688 16.15625 29.265625 15.789062 C 28.101562 15.089844 28 15.089844 27.335938 15.625 Z M 27.335938 15.625 "/>
<path style=" stroke:none;fill-rule:nonzero;fill:rgb(0%,0%,0%);fill-opacity:1;" d="M 199.964844 17.824219 C 197.769531 18.792969 197.070312 21.628906 198.632812 23.195312 C 200.828125 25.394531 204.484375 24.097656 204.484375 21.128906 C 204.484375 19.558594 203.753906 18.425781 202.289062 17.824219 C 200.992188 17.292969 201.226562 17.292969 199.964844 17.824219 Z M 199.964844 17.824219 "/>
<path style=" stroke:none;fill-rule:nonzero;fill:rgb(0%,0%,0%);fill-opacity:1;" d="M 188.863281 22.261719 L 188.863281 26.53125 L 185.472656 26.429688 C 181.085938 26.261719 178.894531 26.996094 176.964844 29.199219 C 175.269531 31.164062 174.804688 32.902344 174.972656 36.800781 C 175.070312 39.4375 175.234375 40.136719 176.035156 41.472656 C 177.164062 43.472656 179.058594 44.839844 181.285156 45.375 C 182.980469 45.808594 189.792969 45.675781 192.886719 45.175781 L 194.179688 44.941406 L 194.179688 18.023438 L 188.863281 18.023438 Z M 187.632812 30.898438 L 188.863281 31.132812 L 188.863281 41.003906 L 187.699219 41.238281 C 187.035156 41.339844 185.605469 41.371094 184.476562 41.304688 C 182.648438 41.171875 182.347656 41.039062 181.351562 39.972656 C 179.457031 37.871094 179.425781 33.902344 181.25 32.066406 C 182.515625 30.800781 184.609375 30.398438 187.632812 30.898438 Z M 187.632812 30.898438 "/>
<path style=" stroke:none;fill-rule:nonzero;fill:rgb(0%,0%,0%);fill-opacity:1;" d="M 236.058594 31.734375 L 236.058594 45.40625 L 237.652344 45.308594 L 239.214844 45.207031 L 239.316406 31.601562 L 239.378906 18.023438 L 236.058594 18.023438 Z M 236.058594 31.734375 "/>
<path style=" stroke:none;fill-rule:nonzero;fill:rgb(0%,0%,0%);fill-opacity:1;" d="M 267.300781 31.5 L 267.300781 44.941406 L 268.5625 45.175781 C 271.488281 45.675781 277.835938 45.808594 279.53125 45.40625 C 281.65625 44.875 283.886719 42.972656 284.945312 40.804688 C 285.578125 39.539062 285.710938 38.703125 285.679688 36.234375 C 285.679688 32.800781 285.25 31.5 283.550781 29.53125 C 281.492188 27.195312 277.867188 26.296875 273.28125 26.964844 C 272.085938 27.132812 271.054688 27.230469 270.992188 27.164062 C 270.921875 27.132812 270.890625 25.296875 270.921875 23.128906 C 270.957031 20.925781 270.890625 18.894531 270.757812 18.59375 C 270.589844 18.160156 270.160156 18.023438 268.929688 18.023438 L 267.300781 18.023438 Z M 279.265625 30.433594 C 283.019531 32.332031 283.351562 39.269531 279.832031 41.839844 C 279.066406 42.40625 278.265625 42.570312 275.675781 42.640625 C 270.589844 42.804688 270.921875 43.238281 270.921875 36.402344 C 270.921875 33.234375 270.992188 30.535156 271.089844 30.464844 C 271.453125 30.097656 273.550781 29.765625 275.609375 29.734375 C 277.269531 29.699219 278.167969 29.898438 279.265625 30.433594 Z M 279.265625 30.433594 "/>
<path style=" stroke:none;fill-rule:nonzero;fill:rgb(0%,0%,0%);fill-opacity:1;" d="M 41.027344 22.429688 C 40.796875 22.664062 40.632812 23.261719 40.632812 23.761719 C 40.632812 24.460938 40.828125 24.796875 41.492188 25.03125 C 42.691406 25.496094 43.621094 24.929688 43.621094 23.761719 C 43.621094 22.664062 43.089844 22.027344 42.125 22.027344 C 41.726562 22.027344 41.261719 22.195312 41.027344 22.429688 Z M 41.027344 22.429688 "/>
<path style=" stroke:none;fill-rule:nonzero;fill:rgb(0%,0%,0%);fill-opacity:1;" d="M 101.453125 26.695312 C 99.15625 27.53125 97.597656 28.796875 96.300781 30.898438 C 95.371094 32.433594 95.304688 32.734375 95.304688 35.867188 C 95.304688 39.636719 95.769531 40.871094 97.929688 43.074219 C 101.753906 46.976562 109.230469 46.941406 112.984375 43.074219 C 115.113281 40.871094 115.578125 39.605469 115.578125 35.867188 C 115.578125 32.734375 115.511719 32.433594 114.546875 30.867188 C 111.988281 26.664062 106.4375 24.898438 101.453125 26.695312 Z M 108.199219 31.601562 C 109.628906 32.300781 110.425781 33.902344 110.425781 36.003906 C 110.425781 39.136719 108.496094 41.105469 105.441406 41.105469 C 102.484375 41.105469 100.457031 39.003906 100.457031 35.867188 C 100.457031 31.835938 104.378906 29.664062 108.199219 31.601562 Z M 108.199219 31.601562 "/>
<path style=" stroke:none;fill-rule:nonzero;fill:rgb(0%,0%,0%);fill-opacity:1;" d="M 214.289062 26.332031 C 209.371094 27.664062 206.777344 30.933594 206.777344 35.804688 C 206.777344 37.136719 206.945312 38.703125 207.109375 39.339844 C 207.941406 42.105469 210.53125 44.574219 213.457031 45.375 C 215.386719 45.910156 219.472656 45.839844 221.601562 45.273438 L 223.261719 44.808594 L 223.230469 43.105469 C 223.160156 40.605469 222.996094 40.304688 221.867188 40.738281 C 221.367188 40.9375 219.738281 41.136719 218.273438 41.171875 C 216.148438 41.207031 215.386719 41.070312 214.453125 40.539062 C 212.828125 39.570312 211.996094 37.9375 211.996094 35.804688 C 211.996094 33.902344 212.558594 32.800781 214.21875 31.566406 C 215.320312 30.765625 218.808594 30.464844 221.101562 31 C 221.933594 31.164062 222.699219 31.234375 222.832031 31.101562 C 222.964844 30.964844 223.160156 30.03125 223.292969 29 L 223.496094 27.132812 L 222.398438 26.730469 C 220.96875 26.230469 215.617188 25.964844 214.289062 26.332031 Z M 214.289062 26.332031 "/>
<path style=" stroke:none;fill-rule:nonzero;fill:rgb(0%,0%,0%);fill-opacity:1;" d="M 76.460938 26.796875 L 73.867188 27.097656 L 73.867188 45.375 L 76.328125 45.375 C 78.253906 45.375 78.820312 45.273438 78.984375 44.839844 C 79.085938 44.539062 79.183594 41.40625 79.183594 37.871094 L 79.183594 31.433594 L 81.476562 31.199219 C 83.273438 31.03125 84.035156 31.101562 84.902344 31.5 C 86.863281 32.433594 86.996094 32.902344 87.097656 39.472656 L 87.226562 45.40625 L 89.753906 45.308594 L 92.3125 45.207031 L 92.414062 38.902344 C 92.511719 31.734375 92.210938 30.199219 90.382812 28.464844 C 88.589844 26.730469 87.226562 26.363281 82.875 26.398438 C 80.746094 26.429688 77.855469 26.597656 76.460938 26.796875 Z M 76.460938 26.796875 "/>
<path style=" stroke:none;fill-rule:nonzero;fill:rgb(0%,0%,0%);fill-opacity:1;" d="M 121.230469 26.828125 L 118.902344 27.195312 L 118.902344 45.207031 L 121.460938 45.308594 L 124.050781 45.40625 L 124.121094 38.46875 L 124.21875 31.53125 L 125.882812 31.234375 C 127.972656 30.898438 130.203125 31.433594 130.769531 32.464844 C 131.066406 32.933594 131.265625 35.269531 131.367188 39.203125 L 131.53125 45.207031 L 134.125 45.308594 L 136.683594 45.40625 L 136.683594 31.46875 L 138.542969 31.234375 C 140.605469 31 142.699219 31.433594 143.363281 32.265625 C 143.695312 32.667969 143.859375 34.433594 143.996094 39.003906 L 144.160156 45.207031 L 146.753906 45.308594 C 148.679688 45.375 149.3125 45.308594 149.3125 44.976562 C 149.34375 44.742188 149.3125 41.472656 149.3125 37.738281 C 149.28125 31.699219 149.210938 30.832031 148.648438 29.699219 C 147.949219 28.300781 146.753906 27.332031 145.027344 26.765625 C 143.496094 26.230469 138.277344 26.296875 135.917969 26.863281 C 134.257812 27.265625 133.789062 27.265625 132.628906 26.828125 C 131 26.261719 124.71875 26.261719 121.230469 26.828125 Z M 121.230469 26.828125 "/>
<path style=" stroke:none;fill-rule:nonzero;fill:rgb(0%,0%,0%);fill-opacity:1;" d="M 157.1875 27.164062 C 154.960938 28.265625 154.164062 29.097656 153.132812 31.433594 C 152.300781 33.300781 152.238281 33.703125 152.371094 36.667969 C 152.503906 39.238281 152.667969 40.171875 153.332031 41.339844 C 154.929688 44.242188 157.621094 45.773438 161.011719 45.773438 C 162.671875 45.742188 164.832031 45.207031 165.433594 44.671875 C 165.929688 44.207031 166.59375 44.339844 166.59375 44.875 C 166.59375 45.308594 167.027344 45.375 169.1875 45.308594 L 171.746094 45.207031 L 171.746094 27.195312 L 168.921875 26.796875 C 167.359375 26.597656 164.46875 26.398438 162.441406 26.398438 C 159.25 26.398438 158.582031 26.496094 157.1875 27.164062 Z M 165.5625 30.898438 L 166.59375 31.101562 L 166.59375 35.167969 C 166.59375 37.371094 166.460938 39.371094 166.328125 39.539062 C 165.597656 40.570312 164.003906 41.171875 162.007812 41.207031 C 160.046875 41.207031 159.8125 41.136719 158.949219 40.136719 C 156.921875 37.871094 156.824219 34.335938 158.652344 32.199219 C 159.214844 31.601562 159.980469 31 160.382812 30.933594 C 161.574219 30.699219 164.433594 30.699219 165.5625 30.898438 Z M 165.5625 30.898438 "/>
<path style=" stroke:none;fill-rule:nonzero;fill:rgb(0%,0%,0%);fill-opacity:1;" d="M 249.585938 27.164062 C 247.390625 27.765625 245.695312 29.234375 244.601562 31.433594 C 243.769531 33.066406 243.636719 33.703125 243.636719 36.136719 C 243.636719 41.503906 246.230469 44.976562 250.714844 45.675781 C 252.675781 46.007812 255.300781 45.574219 257.0625 44.671875 C 258.59375 43.875 258.660156 43.875 258.660156 44.707031 C 258.660156 45.273438 258.890625 45.375 260.320312 45.375 L 261.980469 45.375 L 261.914062 36.4375 L 261.816406 27.53125 L 260.152344 27.332031 C 255.933594 26.796875 251.148438 26.695312 249.585938 27.164062 Z M 258.359375 30.265625 C 258.558594 30.464844 258.625 32.699219 258.59375 35.734375 L 258.492188 40.871094 L 256.695312 41.804688 C 253.339844 43.507812 249.785156 42.875 248.089844 40.273438 C 247.292969 39.070312 247.191406 38.570312 247.191406 36.234375 C 247.191406 32.96875 247.921875 31.5 250.117188 30.367188 C 251.347656 29.734375 251.910156 29.664062 254.769531 29.800781 C 256.566406 29.867188 258.160156 30.066406 258.359375 30.265625 Z M 258.359375 30.265625 "/>
<path style=" stroke:none;fill-rule:nonzero;fill:rgb(0%,0%,0%);fill-opacity:1;" d="M 293.957031 27.03125 C 290.761719 27.699219 289.101562 29.566406 289.136719 32.433594 C 289.167969 35.335938 290.730469 36.570312 295.449219 37.570312 C 298.839844 38.269531 300.136719 38.835938 300.566406 39.804688 C 301.035156 40.839844 300.5 41.941406 299.339844 42.371094 C 297.84375 42.941406 293.691406 42.773438 291.496094 42.003906 C 290.398438 41.636719 289.367188 41.4375 289.203125 41.605469 C 289.070312 41.738281 288.871094 42.4375 288.734375 43.105469 L 288.503906 44.339844 L 290.265625 44.839844 C 294.355469 46.042969 298.941406 46.042969 301.167969 44.875 C 303.992188 43.441406 304.957031 40.003906 303.328125 37.4375 C 302.730469 36.535156 300.46875 35.46875 298.042969 35.003906 C 292.824219 33.933594 291.363281 32.535156 293.390625 30.535156 C 294.089844 29.800781 294.488281 29.699219 296.480469 29.699219 C 297.746094 29.699219 299.507812 29.933594 300.402344 30.199219 C 301.300781 30.464844 302.195312 30.699219 302.398438 30.699219 C 302.796875 30.699219 303.59375 28.398438 303.328125 27.996094 C 302.894531 27.265625 296.179688 26.5625 293.957031 27.03125 Z M 293.957031 27.03125 "/>
<path style=" stroke:none;fill-rule:nonzero;fill:rgb(0%,0%,0%);fill-opacity:1;" d="M 198.566406 36.101562 L 198.667969 45.207031 L 201.257812 45.308594 L 203.820312 45.40625 L 203.820312 27.03125 L 198.503906 27.03125 Z M 198.566406 36.101562 "/>
<path style=" stroke:none;fill-rule:nonzero;fill:rgb(0%,0%,0%);fill-opacity:1;" d="M 1.910156 30 C 1.578125 32.800781 2.109375 33.535156 3.175781 31.734375 C 3.90625 30.464844 3.90625 29.265625 3.140625 28.597656 C 2.808594 28.265625 2.441406 28.03125 2.34375 28.03125 C 2.246094 28.03125 2.042969 28.929688 1.910156 30 Z M 1.910156 30 "/>
<path style=" stroke:none;fill-rule:nonzero;fill:rgb(0%,0%,0%);fill-opacity:1;" d="M 25.507812 31.800781 C 24.609375 32.300781 23.414062 33.632812 21.6875 36.070312 C 20.324219 38.003906 17.363281 42.171875 15.105469 45.308594 C 10.320312 52.011719 9.988281 52.613281 10.417969 53.414062 C 11.351562 55.179688 12.878906 54.8125 14.539062 52.480469 C 15.007812 51.777344 16.898438 49.109375 18.695312 46.542969 C 20.492188 43.972656 22.75 40.738281 23.714844 39.371094 C 26.96875 34.667969 26.96875 34.699219 28.035156 34.699219 C 29.0625 34.699219 30.328125 35.703125 30.328125 36.570312 C 30.328125 36.871094 27.703125 40.773438 24.511719 45.273438 C 20.957031 50.277344 18.695312 53.746094 18.695312 54.210938 C 18.695312 55.714844 20.257812 56.546875 21.421875 55.648438 C 21.71875 55.414062 24.546875 51.546875 27.734375 47.042969 L 33.484375 38.871094 L 33.484375 36.703125 C 33.484375 34.132812 32.6875 32.769531 30.496094 31.699219 C 28.699219 30.832031 27.167969 30.867188 25.507812 31.800781 Z M 25.507812 31.800781 "/>
<path style=" stroke:none;fill-rule:nonzero;fill:rgb(0%,0%,0%);fill-opacity:1;" d="M 47.875 36.101562 C 41.859375 44.339844 36.976562 51.609375 37.074219 52.210938 C 37.207031 53.277344 38.238281 53.179688 40.234375 51.878906 C 45.417969 48.375 49.140625 43.039062 50.46875 37.136719 C 51.398438 32.902344 50.46875 32.535156 47.875 36.101562 Z M 47.875 36.101562 "/>
</g>
</svg>
