<?xml version="1.0" encoding="UTF-8"?>
<svg xmlns="http://www.w3.org/2000/svg" xmlns:xlink="http://www.w3.org/1999/xlink" width="1231px" height="252px" viewBox="0 0 923 189" version="1.1">
<g id="surface1">
<path style=" stroke:none;fill-rule:nonzero;fill:rgb(0%,0%,0%);fill-opacity:1;" d="M 42.605469 30.863281 C 34.011719 35.464844 22.515625 46.171875 17.121094 54.679688 C 12.417969 62.082031 8.621094 71.089844 9.820312 72.085938 C 10.21875 72.386719 12.320312 73.988281 14.515625 75.492188 C 18.917969 78.789062 21.113281 83.296875 21.113281 89.296875 C 21.113281 94.101562 19.71875 97.101562 12.71875 107.007812 C 7.421875 114.511719 7.21875 116.8125 11.714844 119.714844 C 13.816406 121.214844 14.417969 121.214844 16.417969 119.8125 C 18.714844 118.316406 35.40625 94.703125 59.398438 59.078125 C 72.089844 40.167969 72.988281 38.46875 71.390625 37.269531 C 64.492188 32.0625 55.296875 27.0625 52.597656 27.0625 C 50.996094 27.0625 46.5 28.761719 42.605469 30.863281 Z M 42.605469 30.863281 "/>
<path style=" stroke:none;fill-rule:nonzero;fill:rgb(0%,0%,0%);fill-opacity:1;" d="M 82.082031 46.875 C 79.984375 48.675781 78.589844 50.574219 56.398438 82.492188 C 32.8125 116.613281 24.613281 127.21875 19.71875 130.320312 C 14.71875 133.421875 13.21875 136.722656 14.917969 140.625 C 15.519531 142.027344 17.21875 143.328125 18.515625 143.726562 C 24.3125 145.128906 25.8125 143.628906 45.804688 115.511719 C 66.59375 86.496094 68.792969 84.195312 78.785156 81.589844 C 83.984375 80.292969 85.28125 80.292969 90.484375 81.589844 C 104.171875 85.191406 113.070312 96 113.070312 109.109375 C 113.070312 116.414062 111.070312 121.117188 103.175781 132.125 C 81.683594 162.039062 81.085938 163.136719 84.980469 167.039062 C 87.582031 169.644531 92.082031 169.742188 94.773438 167.144531 C 97.078125 165.136719 97.476562 163.9375 98.472656 157.933594 C 99.078125 154.433594 102.472656 148.929688 118.367188 126.117188 C 129.0625 110.609375 143.753906 88.800781 144.953125 86.394531 C 145.957031 84.496094 145.753906 83.894531 143.453125 82.492188 C 141.457031 81.09375 140.554688 80.992188 139.15625 81.894531 C 129.558594 88.800781 121.566406 88.597656 114.871094 81.492188 C 111.269531 77.6875 109.269531 70.183594 110.871094 66.683594 C 112.367188 63.285156 110.167969 60.882812 100.074219 54.980469 C 95.976562 52.574219 92.382812 50.375 92.082031 50.074219 C 91.78125 49.773438 89.878906 48.472656 87.886719 47.371094 C 84.382812 45.273438 84.082031 45.273438 82.082031 46.875 Z M 82.082031 46.875 "/>
<path style=" stroke:none;fill-rule:nonzero;fill:rgb(0%,0%,0%);fill-opacity:1;" d="M 601.234375 53.476562 C 594.632812 56.378906 592.535156 64.882812 597.234375 69.585938 C 603.832031 76.1875 614.824219 72.289062 614.824219 63.382812 C 614.824219 58.679688 612.625 55.277344 608.230469 53.476562 C 604.328125 51.878906 605.03125 51.878906 601.234375 53.476562 Z M 601.234375 53.476562 "/>
<path style=" stroke:none;fill-rule:nonzero;fill:rgb(0%,0%,0%);fill-opacity:1;" d="M 567.847656 66.785156 L 567.847656 79.589844 L 557.652344 79.289062 C 544.460938 78.789062 537.867188 80.992188 532.066406 87.59375 C 526.964844 93.496094 525.574219 98.703125 526.070312 110.40625 C 526.371094 118.316406 526.867188 120.414062 529.265625 124.417969 C 532.664062 130.417969 538.363281 134.523438 545.058594 136.125 C 550.160156 137.425781 570.644531 137.023438 579.945312 135.523438 L 583.839844 134.820312 L 583.839844 54.074219 L 567.847656 54.074219 Z M 564.152344 92.695312 L 567.847656 93.398438 L 567.847656 123.015625 L 564.347656 123.714844 C 562.351562 124.015625 558.050781 124.117188 554.65625 123.917969 C 549.15625 123.519531 548.257812 123.117188 545.257812 119.917969 C 539.5625 113.613281 539.464844 101.703125 544.957031 96.199219 C 548.757812 92.402344 555.058594 91.199219 564.152344 92.695312 Z M 564.152344 92.695312 "/>
<path style=" stroke:none;fill-rule:nonzero;fill:rgb(0%,0%,0%);fill-opacity:1;" d="M 709.78125 95.203125 L 709.78125 136.222656 L 714.578125 135.921875 L 719.273438 135.621094 L 719.574219 94.800781 L 719.769531 54.074219 L 709.78125 54.074219 Z M 709.78125 95.203125 "/>
<path style=" stroke:none;fill-rule:nonzero;fill:rgb(0%,0%,0%);fill-opacity:1;" d="M 803.734375 94.5 L 803.734375 134.820312 L 807.53125 135.523438 C 816.328125 137.023438 835.417969 137.425781 840.519531 136.222656 C 846.910156 134.621094 853.613281 128.917969 856.804688 122.417969 C 858.703125 118.613281 859.105469 116.113281 859.003906 108.707031 C 859.003906 98.402344 857.710938 94.5 852.609375 88.597656 C 846.410156 81.589844 835.515625 78.890625 821.726562 80.890625 C 818.125 81.394531 815.023438 81.691406 814.832031 81.492188 C 814.628906 81.394531 814.527344 75.890625 814.628906 69.386719 C 814.730469 62.78125 814.527344 56.679688 814.128906 55.78125 C 813.628906 54.476562 812.332031 54.074219 808.632812 54.074219 L 803.734375 54.074219 Z M 839.71875 91.300781 C 851.007812 97 852.011719 117.8125 841.417969 125.519531 C 839.117188 127.21875 836.714844 127.714844 828.921875 127.917969 C 813.628906 128.417969 814.628906 129.71875 814.628906 109.207031 C 814.628906 99.703125 814.832031 91.601562 815.128906 91.398438 C 816.222656 90.296875 822.527344 89.296875 828.722656 89.199219 C 833.71875 89.09375 836.417969 89.699219 839.71875 91.300781 Z M 839.71875 91.300781 "/>
<path style=" stroke:none;fill-rule:nonzero;fill:rgb(0%,0%,0%);fill-opacity:1;" d="M 123.261719 67.285156 C 122.566406 67.988281 122.066406 69.785156 122.066406 71.285156 C 122.066406 73.386719 122.664062 74.390625 124.660156 75.089844 C 128.261719 76.488281 131.0625 74.789062 131.0625 71.285156 C 131.0625 67.988281 129.460938 66.085938 126.5625 66.085938 C 125.363281 66.085938 123.964844 66.582031 123.261719 67.285156 Z M 123.261719 67.285156 "/>
<path style=" stroke:none;fill-rule:nonzero;fill:rgb(0%,0%,0%);fill-opacity:1;" d="M 304.976562 80.089844 C 298.074219 82.59375 293.382812 86.394531 289.480469 92.695312 C 286.6875 97.300781 286.484375 98.199219 286.484375 107.605469 C 286.484375 118.914062 287.886719 122.613281 294.382812 129.21875 C 305.878906 140.925781 328.367188 140.828125 339.65625 129.21875 C 346.058594 122.613281 347.453125 118.816406 347.453125 107.605469 C 347.453125 98.199219 347.257812 97.300781 344.359375 92.597656 C 336.664062 79.992188 319.96875 74.691406 304.976562 80.089844 Z M 325.265625 94.800781 C 329.5625 96.902344 331.960938 101.703125 331.960938 108.007812 C 331.960938 117.410156 326.164062 123.316406 316.972656 123.316406 C 308.078125 123.316406 301.976562 117.011719 301.976562 107.605469 C 301.976562 95.503906 313.773438 88.996094 325.265625 94.800781 Z M 325.265625 94.800781 "/>
<path style=" stroke:none;fill-rule:nonzero;fill:rgb(0%,0%,0%);fill-opacity:1;" d="M 644.308594 78.992188 C 629.519531 82.996094 621.722656 92.800781 621.722656 107.410156 C 621.722656 111.410156 622.222656 116.113281 622.722656 118.015625 C 625.21875 126.320312 633.015625 133.722656 641.8125 136.125 C 647.609375 137.726562 659.902344 137.523438 666.300781 135.824219 L 671.296875 134.421875 L 671.199219 129.316406 C 670.996094 121.8125 670.5 120.914062 667.101562 122.214844 C 665.601562 122.816406 660.703125 123.414062 656.300781 123.519531 C 649.910156 123.617188 647.609375 123.214844 644.808594 121.617188 C 639.914062 118.714844 637.414062 113.8125 637.414062 107.410156 C 637.414062 101.703125 639.113281 98.402344 644.105469 94.703125 C 647.410156 92.296875 657.902344 91.398438 664.800781 93 C 667.300781 93.496094 669.601562 93.699219 670 93.300781 C 670.402344 92.898438 670.996094 90.097656 671.394531 86.996094 L 671.996094 81.394531 L 668.703125 80.195312 C 664.402344 78.691406 648.308594 77.890625 644.308594 78.992188 Z M 644.308594 78.992188 "/>
<path style=" stroke:none;fill-rule:nonzero;fill:rgb(0%,0%,0%);fill-opacity:1;" d="M 229.816406 80.390625 L 222.015625 81.289062 L 222.015625 136.125 L 229.414062 136.125 C 235.210938 136.125 236.910156 135.824219 237.410156 134.523438 C 237.710938 133.621094 238.007812 124.21875 238.007812 113.613281 L 238.007812 94.296875 L 244.902344 93.601562 C 250.304688 93.097656 252.597656 93.300781 255.203125 94.5 C 261.097656 97.300781 261.496094 98.703125 261.800781 118.414062 L 262.199219 136.222656 L 269.789062 135.921875 L 277.488281 135.621094 L 277.792969 116.710938 C 278.09375 95.203125 277.1875 90.597656 271.691406 85.394531 C 266.296875 80.195312 262.199219 79.09375 249.105469 79.191406 C 242.707031 79.289062 234.011719 79.792969 229.816406 80.390625 Z M 229.816406 80.390625 "/>
<path style=" stroke:none;fill-rule:nonzero;fill:rgb(0%,0%,0%);fill-opacity:1;" d="M 364.449219 80.488281 L 357.453125 81.589844 L 357.453125 135.621094 L 365.144531 135.921875 L 372.941406 136.222656 L 373.144531 115.410156 L 373.445312 94.597656 L 378.441406 93.699219 C 384.734375 92.695312 391.4375 94.296875 393.136719 97.398438 C 394.035156 98.804688 394.636719 105.808594 394.933594 117.613281 L 395.429688 135.621094 L 403.230469 135.921875 L 410.925781 136.222656 L 410.925781 94.402344 L 416.519531 93.699219 C 422.71875 93 429.015625 94.296875 431.011719 96.800781 C 432.015625 98.003906 432.511719 103.304688 432.914062 117.011719 L 433.414062 135.621094 L 441.207031 135.921875 C 447.007812 136.125 448.90625 135.921875 448.90625 134.925781 C 449.003906 134.222656 448.90625 124.417969 448.90625 113.214844 C 448.808594 95.101562 448.605469 92.5 446.90625 89.09375 C 444.804688 84.898438 441.207031 81.992188 436.015625 80.292969 C 431.410156 78.691406 415.722656 78.890625 408.628906 80.59375 C 403.628906 81.792969 402.226562 81.792969 398.730469 80.488281 C 393.835938 78.789062 374.941406 78.789062 364.449219 80.488281 Z M 364.449219 80.488281 "/>
<path style=" stroke:none;fill-rule:nonzero;fill:rgb(0%,0%,0%);fill-opacity:1;" d="M 472.59375 81.492188 C 465.898438 84.792969 463.5 87.296875 460.398438 94.296875 C 457.898438 99.90625 457.703125 101.105469 458.101562 110.007812 C 458.503906 117.714844 459 120.515625 461 124.015625 C 465.800781 132.722656 473.890625 137.324219 484.085938 137.324219 C 489.082031 137.226562 495.582031 135.621094 497.386719 134.019531 C 498.878906 132.621094 500.878906 133.023438 500.878906 134.621094 C 500.878906 135.921875 502.175781 136.125 508.675781 135.921875 L 516.371094 135.621094 L 516.371094 81.589844 L 507.875 80.390625 C 503.179688 79.792969 494.488281 79.191406 488.386719 79.191406 C 478.789062 79.191406 476.789062 79.492188 472.59375 81.492188 Z M 497.78125 92.695312 L 500.878906 93.300781 L 500.878906 105.507812 C 500.878906 112.109375 500.476562 118.113281 500.078125 118.613281 C 497.878906 121.714844 493.085938 123.519531 487.089844 123.617188 C 481.191406 123.617188 480.488281 123.414062 477.890625 120.414062 C 471.792969 113.613281 471.492188 103.007812 476.992188 96.597656 C 478.691406 94.800781 480.992188 93 482.195312 92.800781 C 485.785156 92.097656 494.382812 92.097656 497.78125 92.695312 Z M 497.78125 92.695312 "/>
<path style=" stroke:none;fill-rule:nonzero;fill:rgb(0%,0%,0%);fill-opacity:1;" d="M 750.457031 81.492188 C 743.859375 83.296875 738.765625 87.699219 735.46875 94.296875 C 732.96875 99.203125 732.570312 101.105469 732.570312 108.40625 C 732.570312 124.515625 740.367188 134.925781 753.859375 137.023438 C 759.753906 138.027344 767.648438 136.722656 772.945312 134.019531 C 777.546875 131.621094 777.746094 131.621094 777.746094 134.125 C 777.746094 135.824219 778.445312 136.125 782.742188 136.125 L 787.742188 136.125 L 787.539062 109.308594 L 787.238281 82.59375 L 782.242188 81.992188 C 769.550781 80.390625 755.160156 80.089844 750.457031 81.492188 Z M 776.847656 90.800781 C 777.441406 91.398438 777.644531 98.101562 777.546875 107.207031 L 777.246094 122.613281 L 771.847656 125.417969 C 761.753906 130.523438 751.058594 128.621094 745.957031 120.816406 C 743.5625 117.214844 743.261719 115.710938 743.261719 108.707031 C 743.261719 98.902344 745.460938 94.5 752.058594 91.097656 C 755.757812 89.199219 757.457031 88.996094 766.054688 89.398438 C 771.453125 89.597656 776.25 90.195312 776.847656 90.800781 Z M 776.847656 90.800781 "/>
<path style=" stroke:none;fill-rule:nonzero;fill:rgb(0%,0%,0%);fill-opacity:1;" d="M 883.898438 81.09375 C 874.296875 83.09375 869.300781 88.695312 869.402344 97.300781 C 869.503906 106.003906 874.199219 109.710938 888.390625 112.707031 C 898.589844 114.8125 902.484375 116.511719 903.78125 119.414062 C 905.183594 122.515625 903.582031 125.820312 900.085938 127.117188 C 895.585938 128.820312 883.097656 128.320312 876.5 126.015625 C 873.199219 124.914062 870.101562 124.316406 869.601562 124.816406 C 869.203125 125.21875 868.601562 127.316406 868.199219 129.316406 L 867.503906 133.023438 L 872.800781 134.523438 C 885.097656 138.125 898.886719 138.125 905.585938 134.621094 C 914.078125 130.320312 916.976562 120.015625 912.082031 112.308594 C 910.28125 109.605469 903.484375 106.40625 896.191406 105.007812 C 880.492188 101.804688 876.097656 97.601562 882.199219 91.601562 C 884.296875 89.398438 885.496094 89.09375 891.488281 89.09375 C 895.292969 89.09375 900.589844 89.796875 903.28125 90.597656 C 905.984375 91.398438 908.679688 92.097656 909.28125 92.097656 C 910.484375 92.097656 912.882812 85.191406 912.082031 83.992188 C 910.777344 81.792969 890.589844 79.691406 883.898438 81.09375 Z M 883.898438 81.09375 "/>
<path style=" stroke:none;fill-rule:nonzero;fill:rgb(0%,0%,0%);fill-opacity:1;" d="M 597.035156 108.308594 L 597.335938 135.621094 L 605.128906 135.921875 L 612.828125 136.222656 L 612.828125 81.09375 L 596.835938 81.09375 Z M 597.035156 108.308594 "/>
<path style=" stroke:none;fill-rule:nonzero;fill:rgb(0%,0%,0%);fill-opacity:1;" d="M 5.621094 90 C 4.625 98.402344 6.222656 100.605469 9.421875 95.203125 C 11.617188 91.398438 11.617188 87.796875 9.316406 85.796875 C 8.320312 84.792969 7.21875 84.097656 6.925781 84.097656 C 6.625 84.097656 6.023438 86.792969 5.621094 90 Z M 5.621094 90 "/>
<path style=" stroke:none;fill-rule:nonzero;fill:rgb(0%,0%,0%);fill-opacity:1;" d="M 76.589844 95.398438 C 73.886719 96.902344 70.292969 100.902344 65.09375 108.207031 C 60.996094 114.011719 52.097656 126.515625 45.300781 135.921875 C 30.910156 156.03125 29.910156 157.835938 31.210938 160.238281 C 34.011719 165.542969 38.605469 164.441406 43.601562 157.4375 C 45.003906 155.335938 50.699219 147.328125 56.097656 139.628906 C 61.496094 131.921875 68.292969 122.214844 71.191406 118.113281 C 80.984375 104.003906 80.984375 104.101562 84.1875 104.101562 C 87.28125 104.101562 91.078125 107.105469 91.078125 109.710938 C 91.078125 110.609375 83.183594 122.316406 73.589844 135.824219 C 62.894531 150.832031 56.097656 161.238281 56.097656 162.636719 C 56.097656 167.144531 60.792969 169.644531 64.296875 166.941406 C 65.191406 166.238281 73.691406 154.636719 83.28125 141.125 L 100.578125 116.613281 L 100.578125 110.109375 C 100.578125 102.402344 98.179688 98.304688 91.582031 95.101562 C 86.179688 92.5 81.582031 92.597656 76.589844 95.398438 Z M 76.589844 95.398438 "/>
<path style=" stroke:none;fill-rule:nonzero;fill:rgb(0%,0%,0%);fill-opacity:1;" d="M 143.851562 108.308594 C 125.761719 133.023438 111.070312 154.832031 111.371094 156.636719 C 111.769531 159.835938 114.871094 159.535156 120.867188 155.632812 C 136.457031 145.128906 147.65625 129.121094 151.648438 111.410156 C 154.445312 98.703125 151.648438 97.601562 143.851562 108.308594 Z M 143.851562 108.308594 "/>
</g>
</svg>
