<?xml version="1.0" encoding="UTF-8"?>
<svg xmlns="http://www.w3.org/2000/svg" xmlns:xlink="http://www.w3.org/1999/xlink" width="234px" height="48px" viewBox="0 0 234 48" version="1.1">
<g id="surface1">
<path style=" stroke:none;fill-rule:nonzero;fill:rgb(0%,0%,0%);fill-opacity:1;" d="M 10.832031 7.839844 C 8.652344 9.007812 5.738281 11.726562 4.371094 13.886719 C 3.179688 15.765625 2.214844 18.054688 2.519531 18.308594 C 2.621094 18.382812 3.152344 18.789062 3.710938 19.171875 C 4.828125 20.011719 5.382812 21.15625 5.382812 22.679688 C 5.382812 23.898438 5.03125 24.660156 3.253906 27.175781 C 1.914062 29.082031 1.859375 29.667969 3 30.402344 C 3.535156 30.785156 3.6875 30.785156 4.191406 30.429688 C 4.773438 30.046875 9.003906 24.050781 15.085938 15.003906 C 18.304688 10.203125 18.53125 9.769531 18.125 9.464844 C 16.378906 8.144531 14.046875 6.871094 13.363281 6.871094 C 12.957031 6.871094 11.816406 7.304688 10.832031 7.839844 Z M 10.832031 7.839844 "/>
<path style=" stroke:none;fill-rule:nonzero;fill:rgb(0%,0%,0%);fill-opacity:1;" d="M 20.835938 11.90625 C 20.304688 12.363281 19.949219 12.84375 14.324219 20.949219 C 8.347656 29.617188 6.269531 32.308594 5.03125 33.097656 C 3.761719 33.886719 3.382812 34.722656 3.8125 35.714844 C 3.964844 36.070312 4.394531 36.402344 4.722656 36.503906 C 6.195312 36.859375 6.574219 36.476562 11.640625 29.335938 C 16.910156 21.96875 17.46875 21.382812 20 20.722656 C 21.316406 20.390625 21.644531 20.390625 22.964844 20.722656 C 26.433594 21.636719 28.691406 24.382812 28.691406 27.710938 C 28.691406 29.566406 28.183594 30.761719 26.183594 33.554688 C 20.734375 41.152344 20.582031 41.429688 21.570312 42.421875 C 22.230469 43.085938 23.371094 43.109375 24.050781 42.449219 C 24.636719 41.941406 24.738281 41.636719 24.988281 40.109375 C 25.144531 39.222656 26.003906 37.824219 30.03125 32.03125 C 32.742188 28.089844 36.464844 22.550781 36.769531 21.941406 C 37.023438 21.460938 36.972656 21.304688 36.390625 20.949219 C 35.882812 20.59375 35.65625 20.570312 35.300781 20.796875 C 32.867188 22.550781 30.84375 22.5 29.144531 20.695312 C 28.234375 19.730469 27.726562 17.824219 28.132812 16.933594 C 28.511719 16.074219 27.953125 15.460938 25.394531 13.964844 C 24.355469 13.351562 23.445312 12.792969 23.371094 12.71875 C 23.292969 12.640625 22.8125 12.308594 22.308594 12.03125 C 21.417969 11.496094 21.34375 11.496094 20.835938 11.90625 Z M 20.835938 11.90625 "/>
<path style=" stroke:none;fill-rule:nonzero;fill:rgb(0%,0%,0%);fill-opacity:1;" d="M 152.417969 13.582031 C 150.742188 14.320312 150.210938 16.476562 151.402344 17.671875 C 153.074219 19.347656 155.859375 18.359375 155.859375 16.097656 C 155.859375 14.902344 155.304688 14.039062 154.1875 13.582031 C 153.199219 13.175781 153.378906 13.175781 152.417969 13.582031 Z M 152.417969 13.582031 "/>
<path style=" stroke:none;fill-rule:nonzero;fill:rgb(0%,0%,0%);fill-opacity:1;" d="M 143.953125 16.960938 L 143.953125 20.214844 L 141.371094 20.136719 C 138.027344 20.011719 136.355469 20.570312 134.886719 22.246094 C 133.59375 23.746094 133.238281 25.066406 133.367188 28.039062 C 133.441406 30.046875 133.566406 30.582031 134.175781 31.597656 C 135.035156 33.121094 136.480469 34.164062 138.179688 34.570312 C 139.472656 34.902344 144.664062 34.800781 147.019531 34.417969 L 148.007812 34.238281 L 148.007812 13.734375 L 143.953125 13.734375 Z M 143.015625 23.542969 L 143.953125 23.71875 L 143.953125 31.242188 L 143.066406 31.417969 C 142.5625 31.496094 141.472656 31.523438 140.609375 31.472656 C 139.214844 31.371094 138.988281 31.269531 138.230469 30.457031 C 136.785156 28.855469 136.761719 25.828125 138.152344 24.429688 C 139.117188 23.46875 140.710938 23.160156 143.015625 23.542969 Z M 143.015625 23.542969 "/>
<path style=" stroke:none;fill-rule:nonzero;fill:rgb(0%,0%,0%);fill-opacity:1;" d="M 179.925781 24.179688 L 179.925781 34.597656 L 181.144531 34.519531 L 182.332031 34.445312 L 182.410156 24.078125 L 182.460938 13.734375 L 179.925781 13.734375 Z M 179.925781 24.179688 "/>
<path style=" stroke:none;fill-rule:nonzero;fill:rgb(0%,0%,0%);fill-opacity:1;" d="M 203.738281 24 L 203.738281 34.238281 L 204.703125 34.417969 C 206.933594 34.800781 211.769531 34.902344 213.0625 34.597656 C 214.683594 34.191406 216.382812 32.742188 217.191406 31.089844 C 217.671875 30.125 217.773438 29.488281 217.75 27.609375 C 217.75 24.992188 217.421875 24 216.128906 22.5 C 214.554688 20.722656 211.796875 20.035156 208.300781 20.542969 C 207.386719 20.671875 206.601562 20.746094 206.554688 20.695312 C 206.5 20.671875 206.476562 19.273438 206.5 17.621094 C 206.527344 15.945312 206.476562 14.394531 206.375 14.167969 C 206.246094 13.835938 205.917969 13.734375 204.980469 13.734375 L 203.738281 13.734375 Z M 212.859375 23.1875 C 215.722656 24.636719 215.976562 29.921875 213.292969 31.878906 C 212.707031 32.308594 212.097656 32.433594 210.125 32.488281 C 206.246094 32.613281 206.5 32.945312 206.5 27.734375 C 206.5 25.320312 206.554688 23.265625 206.628906 23.210938 C 206.90625 22.933594 208.503906 22.679688 210.074219 22.652344 C 211.339844 22.628906 212.023438 22.78125 212.859375 23.1875 Z M 212.859375 23.1875 "/>
<path style=" stroke:none;fill-rule:nonzero;fill:rgb(0%,0%,0%);fill-opacity:1;" d="M 31.273438 17.089844 C 31.097656 17.265625 30.96875 17.722656 30.96875 18.105469 C 30.96875 18.636719 31.121094 18.894531 31.628906 19.070312 C 32.539062 19.425781 33.25 18.992188 33.25 18.105469 C 33.25 17.265625 32.84375 16.785156 32.109375 16.785156 C 31.804688 16.785156 31.449219 16.910156 31.273438 17.089844 Z M 31.273438 17.089844 "/>
<path style=" stroke:none;fill-rule:nonzero;fill:rgb(0%,0%,0%);fill-opacity:1;" d="M 77.328125 20.339844 C 75.578125 20.976562 74.390625 21.941406 73.402344 23.542969 C 72.691406 24.710938 72.640625 24.941406 72.640625 27.328125 C 72.640625 30.199219 72.996094 31.140625 74.644531 32.816406 C 77.558594 35.789062 83.257812 35.765625 86.117188 32.816406 C 87.742188 31.140625 88.09375 30.175781 88.09375 27.328125 C 88.09375 24.941406 88.046875 24.710938 87.308594 23.515625 C 85.359375 20.316406 81.128906 18.96875 77.328125 20.339844 Z M 82.472656 24.078125 C 83.558594 24.609375 84.167969 25.828125 84.167969 27.429688 C 84.167969 29.820312 82.699219 31.320312 80.371094 31.320312 C 78.113281 31.320312 76.570312 29.71875 76.570312 27.328125 C 76.570312 24.253906 79.558594 22.601562 82.472656 24.078125 Z M 82.472656 24.078125 "/>
<path style=" stroke:none;fill-rule:nonzero;fill:rgb(0%,0%,0%);fill-opacity:1;" d="M 163.332031 20.0625 C 159.585938 21.078125 157.609375 23.570312 157.609375 27.277344 C 157.609375 28.292969 157.734375 29.488281 157.863281 29.972656 C 158.496094 32.082031 160.472656 33.960938 162.699219 34.570312 C 164.167969 34.976562 167.285156 34.925781 168.90625 34.496094 L 170.171875 34.140625 L 170.148438 32.84375 C 170.097656 30.9375 169.972656 30.707031 169.109375 31.039062 C 168.730469 31.191406 167.488281 31.34375 166.371094 31.371094 C 164.753906 31.394531 164.167969 31.292969 163.460938 30.886719 C 162.21875 30.148438 161.585938 28.90625 161.585938 27.277344 C 161.585938 25.828125 162.015625 24.992188 163.28125 24.050781 C 164.121094 23.441406 166.777344 23.210938 168.527344 23.617188 C 169.160156 23.746094 169.742188 23.796875 169.84375 23.695312 C 169.945312 23.59375 170.097656 22.882812 170.199219 22.09375 L 170.351562 20.671875 L 169.515625 20.367188 C 168.425781 19.984375 164.347656 19.78125 163.332031 20.0625 Z M 163.332031 20.0625 "/>
<path style=" stroke:none;fill-rule:nonzero;fill:rgb(0%,0%,0%);fill-opacity:1;" d="M 58.277344 20.417969 L 56.300781 20.644531 L 56.300781 34.570312 L 58.175781 34.570312 C 59.644531 34.570312 60.078125 34.496094 60.203125 34.164062 C 60.28125 33.933594 60.355469 31.546875 60.355469 28.855469 L 60.355469 23.949219 L 62.101562 23.773438 C 63.472656 23.644531 64.054688 23.695312 64.714844 24 C 66.207031 24.710938 66.308594 25.066406 66.386719 30.074219 L 66.488281 34.597656 L 68.410156 34.519531 L 70.363281 34.445312 L 70.4375 29.640625 C 70.515625 24.179688 70.285156 23.007812 68.890625 21.6875 C 67.523438 20.367188 66.488281 20.085938 63.167969 20.113281 C 61.546875 20.136719 59.34375 20.265625 58.277344 20.417969 Z M 58.277344 20.417969 "/>
<path style=" stroke:none;fill-rule:nonzero;fill:rgb(0%,0%,0%);fill-opacity:1;" d="M 92.402344 20.441406 L 90.628906 20.722656 L 90.628906 34.445312 L 92.578125 34.519531 L 94.554688 34.597656 L 94.605469 29.308594 L 94.683594 24.023438 L 95.949219 23.796875 C 97.542969 23.542969 99.242188 23.949219 99.671875 24.734375 C 99.902344 25.09375 100.054688 26.871094 100.128906 29.871094 L 100.253906 34.445312 L 102.230469 34.519531 L 104.183594 34.597656 L 104.183594 23.976562 L 105.597656 23.796875 C 107.171875 23.617188 108.765625 23.949219 109.273438 24.585938 C 109.527344 24.890625 109.652344 26.234375 109.753906 29.71875 L 109.882812 34.445312 L 111.855469 34.519531 C 113.328125 34.570312 113.808594 34.519531 113.808594 34.265625 C 113.832031 34.089844 113.808594 31.597656 113.808594 28.753906 C 113.785156 24.152344 113.730469 23.492188 113.300781 22.628906 C 112.769531 21.5625 111.855469 20.824219 110.539062 20.390625 C 109.375 19.984375 105.398438 20.035156 103.601562 20.46875 C 102.332031 20.773438 101.976562 20.773438 101.089844 20.441406 C 99.851562 20.011719 95.0625 20.011719 92.402344 20.441406 Z M 92.402344 20.441406 "/>
<path style=" stroke:none;fill-rule:nonzero;fill:rgb(0%,0%,0%);fill-opacity:1;" d="M 119.8125 20.695312 C 118.113281 21.535156 117.507812 22.171875 116.722656 23.949219 C 116.085938 25.371094 116.039062 25.675781 116.136719 27.9375 C 116.242188 29.894531 116.367188 30.605469 116.875 31.496094 C 118.089844 33.707031 120.140625 34.875 122.722656 34.875 C 123.992188 34.851562 125.636719 34.445312 126.09375 34.035156 C 126.472656 33.679688 126.980469 33.785156 126.980469 34.191406 C 126.980469 34.519531 127.308594 34.570312 128.957031 34.519531 L 130.90625 34.445312 L 130.90625 20.722656 L 128.753906 20.417969 C 127.5625 20.265625 125.359375 20.113281 123.816406 20.113281 C 121.382812 20.113281 120.875 20.1875 119.8125 20.695312 Z M 126.195312 23.542969 L 126.980469 23.695312 L 126.980469 26.796875 C 126.980469 28.472656 126.878906 29.996094 126.777344 30.125 C 126.21875 30.910156 125.003906 31.371094 123.484375 31.394531 C 121.992188 31.394531 121.8125 31.34375 121.152344 30.582031 C 119.609375 28.855469 119.53125 26.160156 120.925781 24.53125 C 121.355469 24.078125 121.941406 23.617188 122.246094 23.570312 C 123.15625 23.390625 125.335938 23.390625 126.195312 23.542969 Z M 126.195312 23.542969 "/>
<path style=" stroke:none;fill-rule:nonzero;fill:rgb(0%,0%,0%);fill-opacity:1;" d="M 190.238281 20.695312 C 188.566406 21.15625 187.273438 22.273438 186.4375 23.949219 C 185.804688 25.195312 185.703125 25.675781 185.703125 27.53125 C 185.703125 31.621094 187.679688 34.265625 191.097656 34.800781 C 192.59375 35.054688 194.59375 34.722656 195.9375 34.035156 C 197.101562 33.425781 197.152344 33.425781 197.152344 34.0625 C 197.152344 34.496094 197.332031 34.570312 198.417969 34.570312 L 199.6875 34.570312 L 199.636719 27.761719 L 199.558594 20.976562 L 198.292969 20.824219 C 195.078125 20.417969 191.429688 20.339844 190.238281 20.695312 Z M 196.925781 23.058594 C 197.074219 23.210938 197.128906 24.914062 197.101562 27.226562 L 197.027344 31.140625 L 195.660156 31.851562 C 193.101562 33.148438 190.390625 32.664062 189.097656 30.683594 C 188.488281 29.769531 188.414062 29.386719 188.414062 27.609375 C 188.414062 25.117188 188.96875 24 190.644531 23.136719 C 191.582031 22.652344 192.011719 22.601562 194.191406 22.703125 C 195.558594 22.753906 196.773438 22.90625 196.925781 23.058594 Z M 196.925781 23.058594 "/>
<path style=" stroke:none;fill-rule:nonzero;fill:rgb(0%,0%,0%);fill-opacity:1;" d="M 224.058594 20.59375 C 221.625 21.101562 220.359375 22.527344 220.382812 24.710938 C 220.410156 26.921875 221.601562 27.863281 225.195312 28.625 C 227.78125 29.160156 228.769531 29.589844 229.097656 30.328125 C 229.453125 31.113281 229.046875 31.953125 228.160156 32.285156 C 227.019531 32.714844 223.855469 32.589844 222.183594 32.003906 C 221.347656 31.722656 220.5625 31.574219 220.433594 31.699219 C 220.332031 31.800781 220.179688 32.335938 220.078125 32.84375 L 219.902344 33.785156 L 221.246094 34.164062 C 224.363281 35.078125 227.855469 35.078125 229.554688 34.191406 C 231.707031 33.097656 232.441406 30.480469 231.199219 28.523438 C 230.746094 27.835938 229.023438 27.023438 227.171875 26.667969 C 223.195312 25.855469 222.082031 24.789062 223.628906 23.265625 C 224.160156 22.703125 224.460938 22.628906 225.980469 22.628906 C 226.945312 22.628906 228.289062 22.804688 228.96875 23.007812 C 229.65625 23.210938 230.339844 23.390625 230.492188 23.390625 C 230.796875 23.390625 231.402344 21.636719 231.199219 21.332031 C 230.871094 20.773438 225.753906 20.238281 224.058594 20.59375 Z M 224.058594 20.59375 "/>
<path style=" stroke:none;fill-rule:nonzero;fill:rgb(0%,0%,0%);fill-opacity:1;" d="M 151.351562 27.507812 L 151.429688 34.445312 L 153.402344 34.519531 L 155.355469 34.597656 L 155.355469 20.59375 L 151.300781 20.59375 Z M 151.351562 27.507812 "/>
<path style=" stroke:none;fill-rule:nonzero;fill:rgb(0%,0%,0%);fill-opacity:1;" d="M 1.457031 22.855469 C 1.203125 24.992188 1.609375 25.550781 2.417969 24.179688 C 2.976562 23.210938 2.976562 22.296875 2.394531 21.789062 C 2.140625 21.535156 1.859375 21.359375 1.785156 21.359375 C 1.710938 21.359375 1.558594 22.042969 1.457031 22.855469 Z M 1.457031 22.855469 "/>
<path style=" stroke:none;fill-rule:nonzero;fill:rgb(0%,0%,0%);fill-opacity:1;" d="M 19.445312 24.226562 C 18.757812 24.609375 17.847656 25.625 16.53125 27.480469 C 15.492188 28.957031 13.234375 32.132812 11.511719 34.519531 C 7.867188 39.628906 7.613281 40.085938 7.941406 40.695312 C 8.652344 42.042969 9.816406 41.761719 11.082031 39.984375 C 11.4375 39.449219 12.882812 37.417969 14.25 35.460938 C 15.617188 33.503906 17.339844 31.039062 18.074219 29.996094 C 20.558594 26.414062 20.558594 26.4375 21.371094 26.4375 C 22.152344 26.4375 23.117188 27.203125 23.117188 27.863281 C 23.117188 28.089844 21.113281 31.066406 18.683594 34.496094 C 15.972656 38.304688 14.25 40.949219 14.25 41.304688 C 14.25 42.449219 15.441406 43.085938 16.328125 42.398438 C 16.554688 42.21875 18.707031 39.273438 21.140625 35.839844 L 25.523438 29.617188 L 25.523438 27.964844 C 25.523438 26.007812 24.914062 24.964844 23.242188 24.152344 C 21.875 23.492188 20.707031 23.515625 19.445312 24.226562 Z M 19.445312 24.226562 "/>
<path style=" stroke:none;fill-rule:nonzero;fill:rgb(0%,0%,0%);fill-opacity:1;" d="M 36.492188 27.507812 C 31.90625 33.785156 28.183594 39.324219 28.257812 39.78125 C 28.359375 40.59375 29.144531 40.515625 30.664062 39.527344 C 34.617188 36.859375 37.457031 32.792969 38.46875 28.292969 C 39.175781 25.066406 38.46875 24.789062 36.492188 27.507812 Z M 36.492188 27.507812 "/>
</g>
</svg>
