<?xml version="1.0" encoding="UTF-8"?>
<svg xmlns="http://www.w3.org/2000/svg" xmlns:xlink="http://www.w3.org/1999/xlink" width="110px" height="150px" viewBox="0 0 878 1195" version="1.1">
<g id="surface1">
<path style=" stroke:none;fill-rule:nonzero;fill:rgb(17.254902%,49.019608%,96.862745%);fill-opacity:1;" d="M 567.132812 1195 C 481.828125 1195 419.566406 1174.460938 380.34375 1133.382812 C 344.007812 1098.609375 322.921875 1050.871094 321.695312 1000.605469 C 321.253906 985.332031 324.796875 970.210938 331.96875 956.71875 C 338.664062 945.0625 348.328125 935.394531 359.984375 928.695312 C 387.445312 915 419.75 915 447.214844 928.695312 C 458.847656 935.367188 468.46875 945.046875 475.070312 956.71875 C 482.449219 970.144531 486.125 985.292969 485.710938 1000.605469 C 486.472656 1018.890625 481.226562 1036.925781 470.769531 1051.953125 C 462.054688 1064.21875 449.597656 1073.328125 435.265625 1077.921875 C 449.28125 1095.757812 469.109375 1108.117188 491.300781 1112.84375 C 516.128906 1120.050781 541.839844 1123.757812 567.695312 1123.855469 C 601.921875 1124.152344 635.445312 1114.132812 663.890625 1095.101562 C 693.402344 1074.261719 715.40625 1044.472656 726.648438 1010.144531 C 740.902344 969.292969 747.855469 926.253906 747.195312 882.996094 C 748.347656 837.894531 740.734375 792.996094 724.78125 750.792969 C 712.78125 717.039062 690.007812 688.167969 659.96875 668.636719 C 632.046875 650.976562 599.632812 641.707031 566.589844 641.9375 C 537.800781 644.378906 510.035156 653.800781 485.710938 669.386719 L 425.734375 699.445312 L 425.734375 669.386719 L 695.265625 307.9375 L 321.695312 307.9375 L 321.695312 683.019531 C 320.640625 710.085938 327.804688 736.835938 342.242188 759.757812 C 356.453125 780.074219 380.261719 791.476562 405 789.816406 C 427.476562 789.363281 449.214844 781.707031 467.007812 767.972656 C 487.179688 753.195312 504.734375 735.144531 518.9375 714.570312 C 520.21875 710.960938 522.574219 707.835938 525.691406 705.613281 C 528.195312 703.449219 531.390625 702.257812 534.699219 702.25 C 541.1875 702.84375 547.328125 705.453125 552.257812 709.714844 C 558.5 716.691406 561.898438 725.75 561.78125 735.109375 C 561.058594 741.398438 559.9375 747.632812 558.417969 753.78125 C 545.148438 785.890625 522.902344 813.496094 494.347656 833.296875 C 467.824219 851.238281 436.5 860.75 404.476562 860.585938 C 323.59375 860.585938 267.5625 844.652344 236.382812 812.789062 C 204.003906 777.207031 187.308594 730.101562 190.058594 682.082031 L 190.058594 307.9375 L 0.046875 307.9375 L 0.046875 238.25 L 190.941406 238.25 L 190.941406 79.351562 L 147.238281 35.632812 L 147.238281 0 L 274.058594 0 L 321.695312 24.648438 L 321.695312 238.25 L 815.179688 236.75 L 864.308594 286.042969 L 561.714844 590 C 579.996094 582.648438 599.246094 577.996094 618.867188 576.179688 C 657.699219 577.878906 695.585938 588.691406 729.464844 607.738281 C 768.695312 626.378906 801.757812 655.875 824.730469 692.726562 C 845.316406 723.921875 859.886719 758.6875 867.691406 795.234375 C 874.109375 824.0625 877.554688 853.472656 877.964844 883.003906 C 878.167969 939.359375 865.382812 995.003906 840.609375 1045.628906 C 817.117188 1094.652344 777.574219 1134.179688 728.535156 1157.664062 C 678.335938 1182.390625 623.09375 1195.171875 567.132812 1195 Z M 567.132812 1195 "/>
</g>
</svg>
